<svg xmlns="http://www.w3.org/2000/svg" viewBox="0 0 791.62 610.81"><defs><style>.cls-1{fill:none;}.cls-2{fill:#4d4d4d;}.cls-3{fill:#29abe2;}.cls-4{fill:gray;}</style></defs><g id="Layer_2" data-name="Layer 2"><g id="electric_bath_water" data-name="electric bath water"><path class="cls-1" d="M748.69,605.63H44c-14.34,0-26.18-9.8-28-22.48a26,26,0,0,0,25.65,22.66H750.5a25.76,25.76,0,0,0,20.56-10.28A29.1,29.1,0,0,1,748.69,605.63Z"/><path class="cls-2" d="M776.37,437.82h.53v142a24.31,24.31,0,0,1-5.84,15.72,25.76,25.76,0,0,1-20.56,10.28H41.63A26,26,0,0,1,16,583.15a24.42,24.42,0,0,1-.24-3.34v-142h0V422.64h-5v157.1a31,31,0,0,0,30.87,31.07H750.5a31,31,0,0,0,30.87-31.07V422.64h-5Z"/><path class="cls-3" d="M15.74,579.81a24.42,24.42,0,0,0,.24,3.34c1.79,12.68,13.63,22.48,28,22.48H748.69a29.1,29.1,0,0,0,22.37-10.1,24.31,24.31,0,0,0,5.84-15.72v-142H15.74Z"/><rect class="cls-4" width="791.62" height="31.65"/></g></g></svg>