<?xml version="1.0" encoding="utf-8"?>
<!-- Generator: Adobe Illustrator 26.0.2, SVG Export Plug-In . SVG Version: 6.00 Build 0)  -->
<svg version="1.1" xmlns="http://www.w3.org/2000/svg" xmlns:xlink="http://www.w3.org/1999/xlink" x="0px" y="0px"
	 viewBox="0 0 195.9 300" style="enable-background:new 0 0 195.9 300;" xml:space="preserve">
<style type="text/css">
	.st0{fill:#D1731E;}
	.st1{fill:#FCA054;}
	.st2{fill:#F6F6F6;}
	.st3{fill:#D1D1D1;}
	.st4{fill:#3F2222;}
	.st5{fill:#BF0000;}
	.st6{fill:#FDB376;}
</style>
<g id="Layer_1">
</g>
<g id="Layer_2">
	<g>
		<path class="st0" d="M103.5,205.3H85.6v67.5c-3.5,0.2-6.6,0.4-9,0.7c-10.7,1.2-14.9,2.8-17.1,3.9c-0.9,0.4-7.2,3.4-6.6,4.7
			c0.5,1.1,5.9,1.3,27.7-2.9c-4.8,1.7-9.5,3.4-14.3,5.1c-5.2,2.4-7.7,3.9-7.4,4.6c0.5,1.2,9.6-0.2,27.1-4.2
			c-14.8,6-17.2,8.3-16.8,9.2c0.6,1.6,9.2,1.1,16.1-1c10.1-3.2,15.7-9.8,18-13.2h0.1V205.3z"/>
		<path class="st1" d="M117.9,210.5H100V278c-3.5,0.2-6.6,0.4-9,0.7c-10.7,1.2-14.9,2.8-17.1,3.9c-0.9,0.4-7.2,3.4-6.6,4.7
			c0.5,1.1,5.9,1.3,27.7-2.9c-4.8,1.7-9.5,3.4-14.3,5.1c-5.2,2.4-7.7,3.9-7.4,4.6c0.5,1.2,9.6-0.2,27.1-4.2
			c-14.8,6-17.2,8.3-16.8,9.2c0.6,1.6,9.2,1.1,16.1-1c10.1-3.2,15.7-9.8,18-13.2C117.8,260.1,117.8,235.3,117.9,210.5z"/>
		<path class="st2" d="M193.7,162.5c-0.2-0.2-0.3-0.5-0.5-0.7c2.1-3.5,3.9-8,1.8-11.5c-1.4-2.5-5.2-3.9-14.8-3.5
			c-12.3,0.5-19.1,3.5-32.1,5.9c-6.1,1.2-11.1,1.7-14.2,2c-28.9,0-57.9,0-86.8-0.1c-25.3,0-45.8,20.5-45.8,45.8v4.6
			c0,25.3,20.5,45.8,45.8,45.8h88.4c25.3,0,45.8-20.5,45.8-45.8v-4.6c0-1.4-0.1-2.8-0.2-4.1c1.2-1.1,2.4-2.3,3.4-3.6
			c1.7-2.2,8.1-10.2,5.2-15.8C192.2,173.8,196.4,167.2,193.7,162.5z"/>
		<path class="st2" d="M85.3,48.7c-1.5-1.5-3.2-3-4.9-4.3c-4.5-3.5-9.6-6.3-15.2-8.1c-3.2-1-6.5-1.8-10-2.1
			c-1.8-0.2-3.6-0.3-5.4-0.3C22.3,33.8,0,56.1,0,83.6v117.5C0,228.7,22.3,251,49.8,251c27.5,0,49.8-22.3,49.8-49.8V83.6
			C99.6,70,94.2,57.7,85.3,48.7z"/>
		<path class="st3" d="M72,188.7L72,188.7c0-14.2,8.5-25.8,19.1-25.8l44.7,0c2.4,0,19.8-1.5,25.2,10.6c4.5,10.8-8.8,23.3-12.4,26.7
			c-19.6,18.5-57.3,23.7-71,6.7C75.1,203.9,72,198.3,72,188.7z"/>
		<ellipse class="st4" cx="16.9" cy="88.1" rx="9.8" ry="13.9"/>
		<ellipse class="st4" cx="62" cy="88.9" rx="9.8" ry="13.9"/>
		<path class="st5" d="M45.9,117.5c-1.6,0-3.1,0.5-4.5,1.3c-2-1-4.3-1.6-6.7-1.6c-8.5,0-15.3,7.1-15.3,15.9
			c0,8.8,6.9,15.9,15.3,15.9c0.3,0,0.6,0,1-0.1c2.3,4.9,6.1,8.2,10.3,8.2c7,0,12.7-8.9,12.7-19.8C58.6,126.4,52.9,117.5,45.9,117.5z
			"/>
		<path class="st5" d="M111.1,42.3"/>
		<path class="st5" d="M80.8,22.3c-2.1-0.5-4.4,0.1-6.5,1.4c-0.3-0.1-0.6-0.2-0.9-0.4c-0.4-1.4-0.8-2.8-1.1-3.9
			C70.1,12.6,63.6-0.8,55.5,0c-3.1,0.3-5.7,2.7-7.7,5.9C40.7,1.8,31,1.5,26.2,6c-3.7,3.5-4.3,9.5-3.1,14.9
			C15.4,21.7,7.9,30,8.7,36.7c0.6,5,5.8,8.7,11,9.6c-0.2,0.6-0.3,1.5-0.2,2.5c0.4,4.9,5.9,9.6,11.6,10.1c6.9,0.6,11.4-5,11.9-5.5
			c3.6,1,7.3,0.9,10.3-1.1c2.6-1.8,4-4.6,4.6-7.8c2.2,0.3,4.7,0.1,7.2-0.7c1.4-0.5,2.6-1.1,3.7-1.8c1.1-0.3,2.4-0.5,3.9-0.5
			c2,0,3.7,0.4,5.1,0.8c0,0,0.1,0.1,0.1,0.1c0.6,0.4,1.1,0.8,1.7,1.2c0.2,0.1,0.3,0.3,0.5,0.4c1.9,1.4,3.7,3,5.4,4.7
			c1.3-2.1,2.3-4.1,2.7-5.6C90,36.2,87.5,23.9,80.8,22.3z"/>
	</g>
	<g>
		<path class="st6" d="M59.5,120.5c0.7-8.9-15.2-23.1-28.8-19.5c-8.6,2.2-16.6,11.7-15.5,19.3c6.1,0.9,12.9,1.6,20.6,1.8
			C44.6,122.2,52.6,121.5,59.5,120.5z"/>
		<path class="st1" d="M35.7,122c-7.6-0.1-14.5-0.8-20.6-1.8c0.1,0.5,0.2,1,0.3,1.4c2.4,7.3,13.4,9.1,16.2,9.6
			c11.3,1.8,26.2-2.5,27.7-10c0.1-0.3,0.1-0.5,0.1-0.8C52.6,121.5,44.6,122.2,35.7,122z"/>
	</g>
</g>
</svg>
