<?xml version="1.0" encoding="utf-8"?>
<!-- Generator: Adobe Illustrator 26.0.2, SVG Export Plug-In . SVG Version: 6.00 Build 0)  -->
<svg version="1.1" id="Layer_1" xmlns="http://www.w3.org/2000/svg" xmlns:xlink="http://www.w3.org/1999/xlink" x="0px" y="0px"
	 viewBox="0 0 270 270" style="enable-background:new 0 0 270 270;" xml:space="preserve">
<style type="text/css">
	.st0{fill:#D1731E;}
	.st1{fill:#FCA054;}
	.st2{fill:#F6F6F6;}
	.st3{fill:#D1D1D1;}
	.st4{fill:#3F2222;}
	.st5{fill:#BF0000;}
	.st6{fill:#FDB376;}
</style>
<g id="Layer_1_00000101093620859974107770000012231666085578627724_">
</g>
<g id="Layer_2_00000087377370859288250690000000030118357557918351_">
	<g>
		<path class="st0" d="M137.9,221.4h-9.2v34.5c-1.8,0.1-3.4,0.2-4.6,0.4c-5.4,0.6-7.6,1.5-8.7,2c-0.5,0.2-3.7,1.8-3.4,2.4
			c0.2,0.5,3,0.7,14.2-1.5c-2.5,0.8-4.8,1.8-7.3,2.6c-2.7,1.2-3.9,2-3.8,2.4c0.2,0.6,4.9-0.1,13.9-2.1c-7.6,3.1-8.8,4.2-8.6,4.7
			c0.3,0.8,4.7,0.5,8.2-0.5c5.1-1.6,8-5,9.2-6.7l0,0L137.9,221.4L137.9,221.4z"/>
		<path class="st1" d="M145.2,224.1H136v34.5c-1.8,0.1-3.4,0.2-4.6,0.4c-5.4,0.6-7.6,1.5-8.7,2c-0.5,0.2-3.7,1.8-3.4,2.4
			c0.2,0.5,3,0.7,14.2-1.5c-2.5,0.8-4.8,1.8-7.3,2.6c-2.7,1.2-3.9,2-3.8,2.4c0.2,0.6,4.9-0.1,13.9-2.1c-7.6,3.1-8.8,4.2-8.6,4.7
			c0.3,0.8,4.7,0.5,8.2-0.5c5.1-1.6,8-5,9.2-6.7C145.1,249.4,145.1,236.7,145.2,224.1z"/>
		<path class="st2" d="M183.9,199.5c-0.1-0.1-0.2-0.2-0.2-0.4c1.1-1.8,2-4.1,0.9-5.9c-0.7-1.3-2.7-2-7.6-1.8
			c-6.3,0.2-9.7,1.8-16.4,3c-3.1,0.6-5.7,0.8-7.3,1c-14.8,0-29.6,0-44.4-0.1c-13,0-23.5,10.5-23.5,23.5v2.4
			c0,13,10.5,23.5,23.5,23.5h45.2c13,0,23.5-10.5,23.5-23.5v-2.4c0-0.7-0.1-1.5-0.1-2.1c0.6-0.5,1.2-1.1,1.8-1.8
			c0.8-1.1,4.1-5.2,2.7-8C183.2,205.3,185.3,201.9,183.9,199.5z"/>
		<path class="st2" d="M128.5,141.3c-0.8-0.8-1.6-1.5-2.5-2.2c-2.3-1.8-4.9-3.2-7.7-4.1c-1.6-0.5-3.3-0.9-5.1-1.1
			c-0.9-0.1-1.8-0.2-2.8-0.2c-14,0-25.4,11.4-25.4,25.4v60.1c0,14.1,11.4,25.5,25.4,25.5s25.4-11.4,25.4-25.4v-60.2
			C135.9,152.2,133,145.9,128.5,141.3z"/>
		<path class="st3" d="M121.7,212.9L121.7,212.9c0-7.3,4.4-13.2,9.7-13.2h22.8c1.2,0,10.1-0.8,12.9,5.4c2.3,5.5-4.5,11.9-6.4,13.6
			c-10,9.4-29.3,12.1-36.3,3.4C123.3,220.7,121.7,217.8,121.7,212.9z"/>
		<ellipse class="st4" cx="93.6" cy="161.4" rx="5" ry="7.1"/>
		<ellipse class="st4" cx="116.6" cy="161.8" rx="5" ry="7.1"/>
		<path class="st5" d="M108.4,176.5c-0.8,0-1.6,0.2-2.3,0.7c-1-0.5-2.2-0.8-3.4-0.8c-4.4,0-7.8,3.6-7.8,8.1s3.5,8.1,7.8,8.1
			c0.2,0,0.3,0,0.5-0.1c1.1,2.5,3.1,4.2,5.3,4.2c3.6,0,6.5-4.5,6.5-10.1C114.9,181.1,112,176.5,108.4,176.5z"/>
		<path class="st5" d="M141.7,138"/>
		<path class="st5" d="M126.2,127.8c-1.1-0.2-2.2,0.1-3.3,0.7c-0.2-0.1-0.3-0.1-0.5-0.2c-0.2-0.7-0.4-1.5-0.5-2
			c-1.1-3.4-4.5-10.3-8.7-9.9c-1.5,0.2-2.9,1.4-3.9,3.1c-3.6-2.1-8.6-2.3-11,0c-1.9,1.8-2.2,4.8-1.6,7.6c-3.9,0.5-7.7,4.7-7.4,8.1
			c0.3,2.5,3,4.4,5.6,4.9c-0.1,0.3-0.2,0.8-0.1,1.3c0.2,2.5,3,4.9,5.9,5.1c3.5,0.3,5.8-2.5,6.1-2.8c1.8,0.5,3.8,0.5,5.3-0.5
			c1.3-0.9,2.1-2.4,2.4-4c1.1,0.2,2.4,0.1,3.7-0.4c0.7-0.2,1.3-0.5,1.9-0.9c0.5-0.2,1.2-0.2,2-0.2c1,0,1.9,0.2,2.6,0.4l0.1,0.1
			c0.3,0.2,0.5,0.4,0.8,0.6c0.1,0.1,0.2,0.2,0.2,0.2c1,0.7,1.9,1.5,2.8,2.4c0.7-1.1,1.1-2.1,1.4-2.8
			C130.9,134.9,129.7,128.6,126.2,127.8z"/>
	</g>
	<g>
		<path class="st6" d="M115.3,178c0.4-4.5-7.7-11.8-14.7-10c-4.4,1.1-8.5,6-7.9,9.9c3.1,0.5,6.6,0.8,10.5,0.9
			C107.7,178.9,111.8,178.5,115.3,178z"/>
		<path class="st1" d="M103.1,178.8c-3.9-0.1-7.4-0.4-10.5-0.9c0.1,0.2,0.1,0.5,0.2,0.7c1.2,3.8,6.8,4.7,8.3,4.9
			c5.7,0.9,13.4-1.3,14.2-5.1c0.1-0.2,0.1-0.2,0.1-0.4C111.8,178.5,107.7,178.9,103.1,178.8z"/>
	</g>
</g>
</svg>
