<svg xmlns="http://www.w3.org/2000/svg" viewBox="0 0 323.65 294.78"><defs><style>.cls-1{fill:none;}.cls-2{fill:#8c6239;}.cls-3{fill:#999;}.cls-4{fill:#b3b3b3;}.cls-5{fill:#666;}</style></defs><g id="Layer_2" data-name="Layer 2"><g id="cleaver"><circle class="cls-1" cx="84.63" cy="18.92" r="8.97"/><path class="cls-2" d="M321.17,265.48l-78.23-92,0,0,.54.64-28,25-.06,0L290.63,291a10.4,10.4,0,0,0,14.71,1.39l14.57-12.16A10.4,10.4,0,0,0,321.17,265.48Zm-74.58-51.32c-4.36,0-7.89-3.84-7.89-8.59s3.53-8.58,7.89-8.58,7.88,3.84,7.88,8.58S250.94,214.16,246.59,214.16Zm49.63,59.25c-4.36,0-7.89-3.85-7.89-8.59s3.53-8.59,7.89-8.59,7.88,3.85,7.88,8.59S300.57,273.41,296.22,273.41Z"/><path class="cls-3" d="M103.82,200.18C76.27,170,46.18,132.2,25.5,103.5A737.35,737.35,0,0,0,103.82,200.18Z"/><path class="cls-3" d="M243.46,174.18l-.54-.64L103.48,9.26a26.23,26.23,0,0,0-36.95-3l-55,46.54c3,4.67,101.4,160.08,157.6,177.46,0,0-.7.66-1.84,1.7L207.23,199s5.19-3.15,8.2.13l.06,0ZM84.62,27.89a9,9,0,1,1,9-9A9,9,0,0,1,84.62,27.89Z"/><ellipse class="cls-4" cx="246.59" cy="205.57" rx="7.88" ry="8.59"/><ellipse class="cls-4" cx="296.22" cy="264.82" rx="7.88" ry="8.59"/><path class="cls-5" d="M11.52,52.75l-.07-.11L0,62.49c1.22,5.42,11.07,21,25.5,41,20.68,28.7,50.77,66.53,78.32,96.68C121.93,220,139,236.53,151.48,244.94c4.4-2.77,12.25-9.78,15.8-13,1.14-1,1.84-1.7,1.84-1.7C112.92,212.83,14.47,57.42,11.52,52.75Z"/></g></g></svg>