<svg xmlns="http://www.w3.org/2000/svg" viewBox="0 0 294.89 318.48"><defs><style>.cls-1{fill:#666;}.cls-2{fill:gray;}.cls-3{fill:#ccc;}.cls-4{fill:#e6e6e6;}.cls-13,.cls-5{fill:#4d4d4d;}.cls-6{fill:#1a1a1a;}.cls-7{fill:#999;}.cls-8{fill:#1e2aca;opacity:0.78;}.cls-9{fill:#4d55be;opacity:0.7;}.cls-10{fill:lime;}.cls-11{fill:red;}.cls-12{fill:#fff;opacity:0.38;}.cls-13{opacity:0.54;}</style></defs><g id="Layer_2" data-name="Layer 2"><g id="CO2_Chamber" data-name="CO2 Chamber"><path class="cls-1" d="M4.18,67l221.91,44.22,1.47-51.11L68.8,36.69,1.22,26.87,3.29,67.82l.92.18ZM7.63,31.55l10.22.61c2,.11,3.47,2.23,3.22,4.63L19.16,55.57a5.6,5.6,0,0,1-6.57,5.2h0a8.22,8.22,0,0,1-6.31-8L6.21,33.3C6.2,32.3,6.84,31.5,7.63,31.55Z"/><path class="cls-1" d="M211.54,246.49c0,3.44.07,5.53.07,5.53l-.07,0c0-.83,0-2.78-.06-5.52h0c.07,6.51.12,10.78.12,10.78L10,200.87l2.59,51-.56-14.12,208.43,64.34-.37,16.39,2-69.36Z"/><path class="cls-2" d="M227.86,60.17l-.3,0-1.47,51.11.45.09-1.93,69-.19,27.49-1.69,32.07h-.08l-.25,9.35-.28-.07-2,69.36,60.94-51.76L294.89,34.66Zm45.21,115.12a6.34,6.34,0,0,1-6.62-1.32l-6.08,2.32a2.75,2.75,0,1,1-2-5.13l6-2.31a6.37,6.37,0,1,1,8.61,6.44Z"/><path class="cls-3" d="M227.86,60.17l67-25.51L74.6,0,.4,26.6,68.8,36.69,227.56,60.13Zm-170-49.43L77.09,4.23l192.5,30.24-19,7.61Z"/><path class="cls-4" d="M212.17,235.52l-.24,1.07v0Z"/><polygon class="cls-4" points="4.21 68 3.29 67.82 2.44 67.65 4.21 68 4.21 68"/><path class="cls-4" d="M211.35,239c0,2.7.06,5.22.08,7.47h0c0-2.09,0-4.63-.09-7.5Z"/><path class="cls-4" d="M212.59,238.58l-1.15.39c0,2.9.07,5.45.1,7.52l10.58,2.63.28.07.25-9.35-10.23-1.78C212.47,238.23,212.53,238.4,212.59,238.58Z"/><path class="cls-5" d="M4.21,68h0l220.07,43.23-13.45,70.55c0,4.36.26,32.28.47,52.9,0,0,0,.09,0,.13-.12-10.63-.27-24.18-.38-35.12.12,11,.29,24.64.42,35.27l.54,1.63.24-1.07,5.57-27.12,6.87-28.11,1.93-69-.45-.09L4.18,67Z"/><path class="cls-6" d="M212.17,235.52l-.23,1.11c.16.48.31,1,.48,1.43l10.23,1.78h.08l1.69-32.07.19-27.49-6.87,28.11Z"/><path class="cls-7" d="M212.59,238.58c-.06-.18-.12-.35-.17-.52-.17-.48-.32-.95-.48-1.43v0l-.54-1.63c0,1.39,0,2.73.05,4Z"/><path class="cls-7" d="M211.39,239c0-1.32,0-2.72,0-4.17,0,0,0-.09,0-.13,0,1.48,0,2.92,0,4.32Z"/><path class="cls-8" d="M4.27,102.88,2.44,67.65,0,143l2.1.39A155.88,155.88,0,0,1,4.27,102.88Z"/><path class="cls-4" d="M6.22,124.59c-.12,2.66-.16,5.44-.14,8.33l.44.12Z"/><path class="cls-8" d="M6.22,124.59c-.12,2.66-.16,5.44-.14,8.33l.44.12Z"/><path class="cls-4" d="M5.28,98.27,4.21,68l-1.77-.35,1.83,35.23C4.59,101.27,4.93,99.74,5.28,98.27Z"/><path class="cls-8" d="M5.28,98.27,4.21,68l-1.77-.35,1.83,35.23C4.59,101.27,4.93,99.74,5.28,98.27Z"/><path class="cls-4" d="M6.68,137.53l-.51-.14q.11,3.3.34,6.8l.41.07Z"/><path class="cls-8" d="M6.68,137.53l-.51-.14q.11,3.3.34,6.8l.41.07Z"/><path class="cls-5" d="M41.36,142.48a116,116,0,0,1,.94-15.95L6.64,118.07q-.27,3.14-.42,6.52l.3,8.45Z"/><path class="cls-8" d="M41.36,142.48a116,116,0,0,1,.94-15.95L6.64,118.07q-.27,3.14-.42,6.52l.3,8.45Z"/><path class="cls-5" d="M104.87,93.32,60.54,84.71c-.86,1.49-2.32,4.14-4,7.75l44.4,9.77C102.4,98.53,103.78,95.52,104.87,93.32Z"/><path class="cls-8" d="M104.87,93.32,60.54,84.71c-.86,1.49-2.32,4.14-4,7.75l44.4,9.77C102.4,98.53,103.78,95.52,104.87,93.32Z"/><path class="cls-5" d="M152.14,128.5l49.23,10.92c.73-3.71,1.52-7.11,2.32-10.19l-48.55-10.68C154.12,121.53,153.09,124.86,152.14,128.5Z"/><path class="cls-8" d="M152.14,128.5l49.23,10.92c.73-3.71,1.52-7.11,2.32-10.19l-48.55-10.68C154.12,121.53,153.09,124.86,152.14,128.5Z"/><path class="cls-5" d="M204.82,125.09c1.46-5.1,2.86-9,3.87-11.62L161,104.22c-1,2-2.62,5.5-4.42,10.26Z"/><path class="cls-8" d="M204.82,125.09c1.46-5.1,2.86-9,3.87-11.62L161,104.22c-1,2-2.62,5.5-4.42,10.26Z"/><path class="cls-5" d="M149.66,139.84c-.42,2.36-.79,4.86-1.09,7.48l50,11.86c.37-4.18.84-8.08,1.38-11.63.2-1.34.41-2.64.63-3.91l-49.48-11C150.58,135,150.09,137.36,149.66,139.84Z"/><path class="cls-8" d="M149.66,139.84c-.42,2.36-.79,4.86-1.09,7.48l50,11.86c.37-4.18.84-8.08,1.38-11.63.2-1.34.41-2.64.63-3.91l-49.48-11C150.58,135,150.09,137.36,149.66,139.84Z"/><path class="cls-5" d="M16.23,72.38l.12-.62L107,89.35l.19-.33.92.55,106,20.58-.26,1.36.25.12s-.2.44-.5,1.16l-.3,1.57-.31-.06c-3.08,7.86-11.44,32.4-10.77,65.89l8.61,1.59,13.45-70.55L4.21,68,5.28,98.27C9.42,81.12,15.69,73,16.22,72.37Z"/><path class="cls-8" d="M16.23,72.38l.12-.62L107,89.35l.19-.33.92.55,106,20.58-.26,1.36.25.12s-.2.44-.5,1.16l-.3,1.57-.31-.06c-3.08,7.86-11.44,32.4-10.77,65.89l8.61,1.59,13.45-70.55L4.21,68,5.28,98.27C9.42,81.12,15.69,73,16.22,72.37Z"/><path class="cls-5" d="M198.25,163.51l-50.11-11.88a126.6,126.6,0,0,0-.2,18.58l49.94,9.18C197.78,173.77,197.93,168.46,198.25,163.51Z"/><path class="cls-8" d="M198.25,163.51l-50.11-11.88a126.6,126.6,0,0,0-.2,18.58l49.94,9.18C197.78,173.77,197.93,168.46,198.25,163.51Z"/><path class="cls-5" d="M46.5,127.52a111.62,111.62,0,0,0-.83,16.13l46.16,12.51a124.39,124.39,0,0,1,.41-17.79Z"/><path class="cls-8" d="M46.5,127.52a111.62,111.62,0,0,0-.83,16.13l46.16,12.51a124.39,124.39,0,0,1,.41-17.79Z"/><path class="cls-5" d="M50.52,95.52,13.3,87.33A94.89,94.89,0,0,0,10.2,97L47,105.19C48.15,101.62,49.35,98.38,50.52,95.52Z"/><path class="cls-8" d="M50.52,95.52,13.3,87.33A94.89,94.89,0,0,0,10.2,97L47,105.19C48.15,101.62,49.35,98.38,50.52,95.52Z"/><path class="cls-5" d="M6.68,137.53l.24,6.73,34.83,6.41c-.11-1.25-.19-2.49-.26-3.71Z"/><path class="cls-8" d="M6.68,137.53l.24,6.73,34.83,6.41c-.11-1.25-.19-2.49-.26-3.71Z"/><path class="cls-5" d="M56.09,83.85,18.54,76.56A53.93,53.93,0,0,0,15,83.31l37.28,8.2C53.73,88.22,55.09,85.64,56.09,83.85Z"/><path class="cls-8" d="M56.09,83.85,18.54,76.56A53.93,53.93,0,0,0,15,83.31l37.28,8.2C53.73,88.22,55.09,85.64,56.09,83.85Z"/><path class="cls-5" d="M143.92,150.63,96.46,139.37a119.32,119.32,0,0,0-.27,18l38.45,10.42,9,1.64A131.25,131.25,0,0,1,143.92,150.63Z"/><path class="cls-8" d="M143.92,150.63,96.46,139.37a119.32,119.32,0,0,0-.27,18l38.45,10.42,9,1.64A131.25,131.25,0,0,1,143.92,150.63Z"/><path class="cls-5" d="M46.12,151.48l37.45,6.89L45.86,148.15C45.93,149.25,46,150.35,46.12,151.48Z"/><path class="cls-8" d="M46.12,151.48l37.45,6.89L45.86,148.15C45.93,149.25,46,150.35,46.12,151.48Z"/><path class="cls-5" d="M98.22,126.9c-.5,2.56-.94,5.29-1.3,8.17l47.45,11.26c.31-2.58.68-5.05,1.09-7.39q.66-3.75,1.46-7.2L99.46,121.21C99,123.05,98.6,124.94,98.22,126.9Z"/><path class="cls-8" d="M98.22,126.9c-.5,2.56-.94,5.29-1.3,8.17l47.45,11.26c.31-2.58.68-5.05,1.09-7.39q.66-3.75,1.46-7.2L99.46,121.21C99,123.05,98.6,124.94,98.22,126.9Z"/><path class="cls-5" d="M103.67,107.22c-1.07,3-2.14,6.24-3.13,9.84l47.4,10.51c.94-3.63,2-7,3-9.95Z"/><path class="cls-8" d="M103.67,107.22c-1.07,3-2.14,6.24-3.13,9.84l47.4,10.51c.94-3.63,2-7,3-9.95Z"/><path class="cls-5" d="M48.28,117.08c-.43,2-.82,4-1.17,6.18l45.61,10.82c.37-2.88.82-5.6,1.32-8.16q.57-2.91,1.23-5.64L50,110.24C49.38,112.42,48.8,114.7,48.28,117.08Z"/><path class="cls-8" d="M48.28,117.08c-.43,2-.82,4-1.17,6.18l45.61,10.82c.37-2.88.82-5.6,1.32-8.16q.57-2.91,1.23-5.64L50,110.24C49.38,112.42,48.8,114.7,48.28,117.08Z"/><path class="cls-5" d="M54.8,96.46c-1.19,2.84-2.41,6.08-3.56,9.66l45.09,10c1-3.58,2-6.87,3.09-9.83Z"/><path class="cls-8" d="M54.8,96.46c-1.19,2.84-2.41,6.08-3.56,9.66l45.09,10c1-3.58,2-6.87,3.09-9.83Z"/><path class="cls-5" d="M42.92,122.27c.36-2.2.77-4.29,1.21-6.28.51-2.32,1.08-4.55,1.67-6.68L9.18,101.19a129.61,129.61,0,0,0-2.49,16.25l.85-3.57Z"/><path class="cls-8" d="M42.92,122.27c.36-2.2.77-4.29,1.21-6.28.51-2.32,1.08-4.55,1.67-6.68L9.18,101.19a129.61,129.61,0,0,0-2.49,16.25l.85-3.57Z"/><path class="cls-5" d="M156.65,103.37l-47.39-9.2c-1,2-2.48,5.1-4.05,9l47.14,10.37C154,109.1,155.56,105.64,156.65,103.37Z"/><path class="cls-8" d="M156.65,103.37l-47.39-9.2c-1,2-2.48,5.1-4.05,9l47.14,10.37C154,109.1,155.56,105.64,156.65,103.37Z"/><path class="cls-7" d="M6.17,137.39l.51.14L41.49,147c.07,1.22.15,2.46.26,3.71l4.37.81c-.1-1.13-.19-2.23-.26-3.33l37.71,10.22,51.07,9.39L96.19,157.34a119.32,119.32,0,0,1,.27-18l47.46,11.26a131.25,131.25,0,0,0-.33,18.77l4.35.81a126.6,126.6,0,0,1,.2-18.58l50.11,11.88c-.32,5-.47,10.26-.37,15.88l4.34.8c-.67-33.49,7.69-58,10.77-65.89l.31.06.3-1.57c.3-.72.48-1.12.5-1.16l-.25-.12.26-1.36-106-20.58-.92-.55-.19.33L16.35,71.76l-.12.62h0c-.53.66-6.8,8.75-10.94,25.9-.35,1.47-.69,3-1,4.61a155.88,155.88,0,0,0-2.17,40.5l4.41.81Q6.27,140.7,6.17,137.39Zm85.66,18.77L45.67,143.65a111.62,111.62,0,0,1,.83-16.13l45.74,10.85A124.39,124.39,0,0,0,91.83,156.16ZM94,125.92c-.5,2.56-1,5.28-1.32,8.16L47.11,123.26c.35-2.16.74-4.23,1.17-6.18.52-2.38,1.1-4.66,1.72-6.84l45.27,10Q94.61,123,94,125.92Zm2.29-9.8-45.09-10c1.15-3.58,2.37-6.82,3.56-9.66l44.62,9.83C98.37,109.25,97.31,112.54,96.33,116.12Zm49.13,22.82c-.41,2.34-.78,4.81-1.09,7.39L96.92,135.07c.36-2.88.8-5.61,1.3-8.17.38-2,.8-3.85,1.24-5.69l47.46,10.53Q146.13,135.19,145.46,138.94Zm2.48-11.37-47.4-10.51c1-3.6,2.06-6.89,3.13-9.84l47.24,10.4C149.9,120.61,148.88,123.94,147.94,127.57Zm52,20c-.54,3.55-1,7.45-1.38,11.63l-50-11.86c.3-2.62.67-5.12,1.09-7.48s.92-4.88,1.45-7.17l49.48,11C200.37,144.91,200.16,146.21,200,147.55Zm1.41-8.13L152.14,128.5c1-3.64,2-7,3-10l48.55,10.68C202.89,132.31,202.1,135.71,201.37,139.42Zm7.32-25.95c-1,2.6-2.41,6.52-3.87,11.62l-48.21-10.61c1.8-4.76,3.43-8.28,4.42-10.26Zm-99.43-19.3,47.39,9.2c-1.09,2.27-2.64,5.73-4.3,10.17l-47.14-10.37C106.78,99.27,108.22,96.21,109.26,94.17ZM60.54,84.71l44.33,8.61c-1.09,2.2-2.47,5.21-3.92,8.91l-44.4-9.77C58.22,88.85,59.68,86.2,60.54,84.71Zm-42-8.15,37.55,7.29c-1,1.79-2.36,4.37-3.84,7.66L15,83.31A53.93,53.93,0,0,1,18.54,76.56ZM13.3,87.33l37.22,8.19c-1.17,2.86-2.37,6.1-3.5,9.67L10.2,97A94.89,94.89,0,0,1,13.3,87.33ZM9.18,101.19l36.62,8.12c-.59,2.13-1.16,4.36-1.67,6.68-.44,2-.85,4.08-1.21,6.28l-35.38-8.4-.85,3.57A129.61,129.61,0,0,1,9.18,101.19Zm-3,23.4q.15-3.39.42-6.52l35.66,8.46a116,116,0,0,0-.94,15.95L6.52,133l-.44-.12C6.06,130,6.1,127.25,6.22,124.59Z"/><path class="cls-8" d="M6.17,137.39l.51.14L41.49,147c.07,1.22.15,2.46.26,3.71l4.37.81c-.1-1.13-.19-2.23-.26-3.33l37.71,10.22,51.07,9.39L96.19,157.34a119.32,119.32,0,0,1,.27-18l47.46,11.26a131.25,131.25,0,0,0-.33,18.77l4.35.81a126.6,126.6,0,0,1,.2-18.58l50.11,11.88c-.32,5-.47,10.26-.37,15.88l4.34.8c-.67-33.49,7.69-58,10.77-65.89l.31.06.3-1.57c.3-.72.48-1.12.5-1.16l-.25-.12.26-1.36-106-20.58-.92-.55-.19.33L16.35,71.76l-.12.62h0c-.53.66-6.8,8.75-10.94,25.9-.35,1.47-.69,3-1,4.61a155.88,155.88,0,0,0-2.17,40.5l4.41.81Q6.27,140.7,6.17,137.39Zm85.66,18.77L45.67,143.65a111.62,111.62,0,0,1,.83-16.13l45.74,10.85A124.39,124.39,0,0,0,91.83,156.16ZM94,125.92c-.5,2.56-1,5.28-1.32,8.16L47.11,123.26c.35-2.16.74-4.23,1.17-6.18.52-2.38,1.1-4.66,1.72-6.84l45.27,10Q94.61,123,94,125.92Zm2.29-9.8-45.09-10c1.15-3.58,2.37-6.82,3.56-9.66l44.62,9.83C98.37,109.25,97.31,112.54,96.33,116.12Zm49.13,22.82c-.41,2.34-.78,4.81-1.09,7.39L96.92,135.07c.36-2.88.8-5.61,1.3-8.17.38-2,.8-3.85,1.24-5.69l47.46,10.53Q146.13,135.19,145.46,138.94Zm2.48-11.37-47.4-10.51c1-3.6,2.06-6.89,3.13-9.84l47.24,10.4C149.9,120.61,148.88,123.94,147.94,127.57Zm52,20c-.54,3.55-1,7.45-1.38,11.63l-50-11.86c.3-2.62.67-5.12,1.09-7.48s.92-4.88,1.45-7.17l49.48,11C200.37,144.91,200.16,146.21,200,147.55Zm1.41-8.13L152.14,128.5c1-3.64,2-7,3-10l48.55,10.68C202.89,132.31,202.1,135.71,201.37,139.42Zm7.32-25.95c-1,2.6-2.41,6.52-3.87,11.62l-48.21-10.61c1.8-4.76,3.43-8.28,4.42-10.26Zm-99.43-19.3,47.39,9.2c-1.09,2.27-2.64,5.73-4.3,10.17l-47.14-10.37C106.78,99.27,108.22,96.21,109.26,94.17ZM60.54,84.71l44.33,8.61c-1.09,2.2-2.47,5.21-3.92,8.91l-44.4-9.77C58.22,88.85,59.68,86.2,60.54,84.71Zm-42-8.15,37.55,7.29c-1,1.79-2.36,4.37-3.84,7.66L15,83.31A53.93,53.93,0,0,1,18.54,76.56ZM13.3,87.33l37.22,8.19c-1.17,2.86-2.37,6.1-3.5,9.67L10.2,97A94.89,94.89,0,0,1,13.3,87.33ZM9.18,101.19l36.62,8.12c-.59,2.13-1.16,4.36-1.67,6.68-.44,2-.85,4.08-1.21,6.28l-35.38-8.4-.85,3.57A129.61,129.61,0,0,1,9.18,101.19Zm-3,23.4q.15-3.39.42-6.52l35.66,8.46a116,116,0,0,0-.94,15.95L6.52,133l-.44-.12C6.06,130,6.1,127.25,6.22,124.59Z"/><path class="cls-1" d="M211.54,252l.07,0s0-2.09-.07-5.53h-.06C211.51,249.22,211.53,251.17,211.54,252Z"/><path class="cls-8" d="M211.54,252l.07,0s0-2.09-.07-5.53h-.06C211.51,249.22,211.53,251.17,211.54,252Z"/><path class="cls-4" d="M211.39,239c0,2.87.06,5.41.09,7.5h.06c0-2.07-.06-4.62-.1-7.52Z"/><path class="cls-8" d="M211.39,239c0,2.87.06,5.41.09,7.5h.06c0-2.07-.06-4.62-.1-7.52Z"/><path class="cls-5" d="M211,199.69c.11,10.94.26,24.49.38,35.12,0,.05,0,.1,0,.15C211.26,224.33,211.09,210.65,211,199.69Z"/><path class="cls-8" d="M211,199.69c.11,10.94.26,24.49.38,35.12,0,.05,0,.1,0,.15C211.26,224.33,211.09,210.65,211,199.69Z"/><path class="cls-7" d="M211.44,239c0-1.28,0-2.62-.05-4,0-.05,0-.1,0-.15,0,1.45,0,2.85,0,4.17Z"/><path class="cls-8" d="M211.44,239c0-1.28,0-2.62-.05-4,0-.05,0-.1,0-.15,0,1.45,0,2.85,0,4.17Z"/><path class="cls-9" d="M9.13,196.21l-.61-11.62-.17-.05,0-1.21a244.06,244.06,0,0,1-6.2-40L0,143l2.44,55.75L10,200.87l-.22-4.49Z"/><path class="cls-1" d="M211.43,246.47,9.81,196.38l.22,4.49,201.52,56.38S211.5,253,211.43,246.47Z"/><path class="cls-9" d="M211.43,246.47,9.81,196.38l.22,4.49,201.52,56.38S211.5,253,211.43,246.47Z"/><path class="cls-4" d="M6.51,144.19l0,.51.4.1,0-.54Z"/><path class="cls-9" d="M6.51,144.19l0,.51.4.1,0-.54Z"/><path class="cls-4" d="M6.92,149.24c.09.87.17,1.74.27,2.61l-.09-2.56Z"/><path class="cls-9" d="M6.92,149.24c.09.87.17,1.74.27,2.61l-.09-2.56Z"/><path class="cls-4" d="M208.53,240l-.18-.54L63.05,198.83,8.52,184.59l.61,11.62.68.17,201.62,50.09c0-2.25-.05-4.77-.08-7.47Z"/><path class="cls-9" d="M208.53,240l-.18-.54L63.05,198.83,8.52,184.59l.61,11.62.68.17,201.62,50.09c0-2.25-.05-4.77-.08-7.47Z"/><path class="cls-5" d="M42.75,159,7.1,149.29l.09,2.56c.15,1.44.32,2.9.5,4.38l0,0,36.45,10C43.6,163.78,43.14,161.37,42.75,159Z"/><path class="cls-9" d="M42.75,159,7.1,149.29l.09,2.56c.15,1.44.32,2.9.5,4.38l0,0,36.45,10C43.6,163.78,43.14,161.37,42.75,159Z"/><path class="cls-5" d="M6.94,144.8l35.17,9.56c-.15-1.24-.26-2.47-.36-3.69L6.92,144.26Z"/><path class="cls-9" d="M6.94,144.8l35.17,9.56c-.15-1.24-.26-2.47-.36-3.69L6.92,144.26Z"/><path class="cls-5" d="M9.33,183.82l.15-.55-1.13.27c0-.07,0-.14,0-.21l0,1.21.17.05,54.53,14.24Z"/><path class="cls-9" d="M9.33,183.82l.15-.55-1.13.27c0-.07,0-.14,0-.21l0,1.21.17.05,54.53,14.24Z"/><path class="cls-5" d="M107.06,199.27c1.2,2.52,2.5,5,4,7.58l-1.09.62L158,220.91q-2.42-4.49-4.36-8.94Z"/><path class="cls-9" d="M107.06,199.27c1.2,2.52,2.5,5,4,7.58l-1.09.62L158,220.91q-2.42-4.49-4.36-8.94Z"/><path class="cls-5" d="M152.43,196.05l48.27,13.29c-.45-2.61-.83-5.19-1.17-7.73l-49.08-13.34C151,190.83,151.67,193.43,152.43,196.05Z"/><path class="cls-9" d="M152.43,196.05l48.27,13.29c-.45-2.61-.83-5.19-1.17-7.73l-49.08-13.34C151,190.83,151.67,193.43,152.43,196.05Z"/><path class="cls-5" d="M104.78,194.21,151.6,207q-1.44-3.72-2.58-7.4l-47.12-13C102.75,189.1,103.71,191.65,104.78,194.21Z"/><path class="cls-9" d="M104.78,194.21,151.6,207q-1.44-3.72-2.58-7.4l-47.12-13C102.75,189.1,103.71,191.65,104.78,194.21Z"/><path class="cls-5" d="M100.37,181.71l47.23,13c-.7-2.6-1.29-5.17-1.79-7.72L98.48,174.14C99,176.63,99.64,179.16,100.37,181.71Z"/><path class="cls-9" d="M100.37,181.71l47.23,13c-.7-2.6-1.29-5.17-1.79-7.72L98.48,174.14C99,176.63,99.64,179.16,100.37,181.71Z"/><path class="cls-5" d="M46.6,155.58,93,168.21q-.58-3.83-.91-7.53l-8.56-2.31-37.45-6.89C46.25,152.83,46.41,154.2,46.6,155.58Z"/><path class="cls-9" d="M46.6,155.58,93,168.21q-.58-3.83-.91-7.53l-8.56-2.31-37.45-6.89C46.25,152.83,46.41,154.2,46.6,155.58Z"/><path class="cls-5" d="M55,185.08c1.2,2.7,2.54,5.43,4,8.16l46.83,13.08q-2.31-4.27-4.16-8.52Z"/><path class="cls-9" d="M55,185.08c1.2,2.7,2.54,5.43,4,8.16l46.83,13.08q-2.31-4.27-4.16-8.52Z"/><path class="cls-5" d="M156.79,208.37,203.07,221q-.82-3.51-1.5-6.95L154,200.92C154.82,203.39,155.75,205.88,156.79,208.37Z"/><path class="cls-9" d="M156.79,208.37,203.07,221q-.82-3.51-1.5-6.95L154,200.92C154.82,203.39,155.75,205.88,156.79,208.37Z"/><path class="cls-5" d="M96.94,185.21,50.22,172.35c.77,2.54,1.66,5.12,2.66,7.72l46.71,12.72Q98.1,189,96.94,185.21Z"/><path class="cls-9" d="M96.94,185.21,50.22,172.35c.77,2.54,1.66,5.12,2.66,7.72l46.71,12.72Q98.1,189,96.94,185.21Z"/><path class="cls-5" d="M10.44,173q.69,3.51,1.52,7.15l41.37,11.56q-2-4-3.64-8Z"/><path class="cls-9" d="M10.44,173q.69,3.51,1.52,7.15l41.37,11.56q-2-4-3.64-8Z"/><path class="cls-5" d="M163.8,222.45l-.09.05,43,12q-1.56-5-2.81-10l-.28,1-44.62-12.16C160.47,216.43,162,219.44,163.8,222.45Z"/><path class="cls-9" d="M163.8,222.45l-.09.05,43,12q-1.56-5-2.81-10l-.28,1-44.62-12.16C160.47,216.43,162,219.44,163.8,222.45Z"/><path class="cls-5" d="M143.64,170.2c0-.27,0-.53,0-.8l-9-1.64Z"/><path class="cls-9" d="M143.64,170.2c0-.27,0-.53,0-.8l-9-1.64Z"/><path class="cls-5" d="M199,197c-.28-2.56-.49-5.08-.66-7.55l-49.88-13.52c.27,2.5.63,5.05,1.09,7.63Z"/><path class="cls-9" d="M199,197c-.28-2.56-.49-5.08-.66-7.55l-49.88-13.52c.27,2.5.63,5.05,1.09,7.63Z"/><path class="cls-5" d="M47.79,178.68c-.92-2.58-1.72-5.14-2.42-7.67l-37-10.2c.36,2.43.76,4.91,1.22,7.45Z"/><path class="cls-9" d="M47.79,178.68c-.92-2.58-1.72-5.14-2.42-7.67l-37-10.2c.36,2.43.76,4.91,1.22,7.45Z"/><path class="cls-5" d="M95.56,180.38c-.67-2.53-1.23-5-1.71-7.5L47.32,160.23q.65,3.6,1.57,7.3Z"/><path class="cls-9" d="M95.56,180.38c-.67-2.53-1.23-5-1.71-7.5L47.32,160.23q.65,3.6,1.57,7.3Z"/><path class="cls-5" d="M148,171.38l50,13.57c-.08-1.89-.14-3.74-.17-5.56l-49.94-9.18C148,170.6,148,171,148,171.38Z"/><path class="cls-9" d="M148,171.38l50,13.57c-.08-1.89-.14-3.74-.17-5.56l-49.94-9.18C148,170.6,148,171,148,171.38Z"/><path class="cls-5" d="M211.3,234.68c-.21-20.62-.49-48.54-.47-52.9l-8.61-1.59A191.73,191.73,0,0,0,211.3,234.68Z"/><path class="cls-9" d="M211.3,234.68c-.21-20.62-.49-48.54-.47-52.9l-8.61-1.59A191.73,191.73,0,0,0,211.3,234.68Z"/><path class="cls-5" d="M145,182.33q-.61-3.86-1-7.59L96.56,161.89c.25,2.47.59,5,1,7.56Z"/><path class="cls-9" d="M145,182.33q-.61-3.86-1-7.59L96.56,161.89c.25,2.47.59,5,1,7.56Z"/><path class="cls-7" d="M9.48,183.27l-.15.55,53.72,15,145.3,40.59.18.54,2.82-1c0-1.4,0-2.84,0-4.32a191.73,191.73,0,0,1-9.08-54.49l-4.34-.8c0,1.82.09,3.67.17,5.56l-50-13.57c0-.39-.06-.78-.08-1.17l-4.35-.81c0,.27,0,.53,0,.8l-9-2.44-51.07-9.39,8.56,2.31q.33,3.7.91,7.53L46.6,155.58c-.19-1.38-.35-2.75-.48-4.1l-4.37-.81c.1,1.22.21,2.45.36,3.69L6.94,144.8l-.4-.1,0-.51-4.41-.81a244.06,244.06,0,0,0,6.2,40c0,.07,0,.14,0,.21ZM12,180.1q-.83-3.65-1.52-7.15l39.25,10.69q1.64,4,3.64,8Zm38.26-7.75,46.72,12.86q1.17,3.76,2.65,7.58L52.88,180.07C51.88,177.47,51,174.89,50.22,172.35ZM59,193.24c-1.48-2.73-2.82-5.46-4-8.16l46.69,12.72q1.86,4.24,4.16,8.52Zm50.93,14.23,1.09-.62c-1.45-2.54-2.75-5.06-4-7.58L153.67,212q2,4.46,4.36,8.94Zm94,17.09q1.25,4.92,2.81,10l-43-12,.09-.05c-1.76-3-3.33-6-4.75-9l44.62,12.16Zm-.88-3.58-46.28-12.61c-1-2.49-2-5-2.81-7.45L201.57,214Q202.25,217.46,203.07,221Zm-2.37-11.64-48.27-13.29c-.76-2.62-1.42-5.22-2-7.78l49.08,13.34C199.87,204.15,200.25,206.73,200.7,209.34Zm-2.38-19.88c.17,2.47.38,5,.66,7.55l-49.45-13.44c-.46-2.58-.82-5.13-1.09-7.63ZM149,199.56q1.14,3.67,2.58,7.4l-46.82-12.75c-1.07-2.56-2-5.11-2.88-7.63Zm-1.42-4.84-47.23-13c-.73-2.55-1.35-5.08-1.89-7.57L145.81,187C146.31,189.55,146.9,192.12,147.6,194.72Zm-3.61-20q.36,3.73,1,7.59L97.59,169.45c-.44-2.56-.78-5.09-1-7.56Zm-50.14-1.86c.48,2.47,1,5,1.71,7.5L48.89,167.53q-.93-3.71-1.57-7.3ZM7.71,156.19l0,0c-.18-1.48-.35-2.94-.5-4.38-.1-.87-.18-1.74-.27-2.61l.18,0L42.75,159c.39,2.38.85,4.79,1.41,7.24ZM45.37,171c.7,2.53,1.5,5.09,2.42,7.67L9.55,168.26c-.46-2.54-.86-5-1.22-7.45Z"/><path class="cls-9" d="M9.48,183.27l-.15.55,53.72,15,145.3,40.59.18.54,2.82-1c0-1.4,0-2.84,0-4.32a191.73,191.73,0,0,1-9.08-54.49l-4.34-.8c0,1.82.09,3.67.17,5.56l-50-13.57c0-.39-.06-.78-.08-1.17l-4.35-.81c0,.27,0,.53,0,.8l-9-2.44-51.07-9.39,8.56,2.31q.33,3.7.91,7.53L46.6,155.58c-.19-1.38-.35-2.75-.48-4.1l-4.37-.81c.1,1.22.21,2.45.36,3.69L6.94,144.8l-.4-.1,0-.51-4.41-.81a244.06,244.06,0,0,0,6.2,40c0,.07,0,.14,0,.21ZM12,180.1q-.83-3.65-1.52-7.15l39.25,10.69q1.64,4,3.64,8Zm38.26-7.75,46.72,12.86q1.17,3.76,2.65,7.58L52.88,180.07C51.88,177.47,51,174.89,50.22,172.35ZM59,193.24c-1.48-2.73-2.82-5.46-4-8.16l46.69,12.72q1.86,4.24,4.16,8.52Zm50.93,14.23,1.09-.62c-1.45-2.54-2.75-5.06-4-7.58L153.67,212q2,4.46,4.36,8.94Zm94,17.09q1.25,4.92,2.81,10l-43-12,.09-.05c-1.76-3-3.33-6-4.75-9l44.62,12.16Zm-.88-3.58-46.28-12.61c-1-2.49-2-5-2.81-7.45L201.57,214Q202.25,217.46,203.07,221Zm-2.37-11.64-48.27-13.29c-.76-2.62-1.42-5.22-2-7.78l49.08,13.34C199.87,204.15,200.25,206.73,200.7,209.34Zm-2.38-19.88c.17,2.47.38,5,.66,7.55l-49.45-13.44c-.46-2.58-.82-5.13-1.09-7.63ZM149,199.56q1.14,3.67,2.58,7.4l-46.82-12.75c-1.07-2.56-2-5.11-2.88-7.63Zm-1.42-4.84-47.23-13c-.73-2.55-1.35-5.08-1.89-7.57L145.81,187C146.31,189.55,146.9,192.12,147.6,194.72Zm-3.61-20q.36,3.73,1,7.59L97.59,169.45c-.44-2.56-.78-5.09-1-7.56Zm-50.14-1.86c.48,2.47,1,5,1.71,7.5L48.89,167.53q-.93-3.71-1.57-7.3ZM7.71,156.19l0,0c-.18-1.48-.35-2.94-.5-4.38-.1-.87-.18-1.74-.27-2.61l.18,0L42.75,159c.39,2.38.85,4.79,1.41,7.24ZM45.37,171c.7,2.53,1.5,5.09,2.42,7.67L9.55,168.26c-.46-2.54-.86-5-1.22-7.45Z"/><path class="cls-3" d="M268.54,163.39a6.37,6.37,0,0,0-4.08,5.46l4.24-1.61a2.74,2.74,0,1,1,1.95,5.13l-4.2,1.6a6.36,6.36,0,1,0,2.09-10.58Z"/><path class="cls-3" d="M272.24,168.83a2.74,2.74,0,0,0-3.54-1.59l-4.24,1.61-6,2.31a2.75,2.75,0,1,0,2,5.13l6.08-2.32,4.2-1.6A2.74,2.74,0,0,0,272.24,168.83Z"/><path d="M12.59,60.77h0a5.6,5.6,0,0,0,6.57-5.2l1.91-18.78c.25-2.4-1.22-4.52-3.22-4.63L7.63,31.55c-.79-.05-1.43.75-1.42,1.75l.07,19.46A8.22,8.22,0,0,0,12.59,60.77ZM9.92,36.27l7.2.61A2.28,2.28,0,0,1,19,39.49a2.17,2.17,0,0,1-2.21,2.15L9.82,40.9A2.35,2.35,0,0,1,8,38.44,2,2,0,0,1,9.92,36.27ZM7.65,49.75A1.71,1.71,0,0,1,9.47,47.9l6.75.82A2.16,2.16,0,0,1,18,51.1a1.89,1.89,0,0,1-2.06,1.82L9.38,52a2.22,2.22,0,0,1-1.73-2.25Z"/><path class="cls-10" d="M9.38,52l6.53.92A1.89,1.89,0,0,0,18,51.1a2.16,2.16,0,0,0-1.75-2.38L9.47,47.9a1.71,1.71,0,0,0-1.82,1.85h0A2.22,2.22,0,0,0,9.38,52Z"/><path class="cls-11" d="M9.82,40.9l7,.74A2.17,2.17,0,0,0,19,39.49a2.28,2.28,0,0,0-1.86-2.61l-7.2-.61A2,2,0,0,0,8,38.44,2.35,2.35,0,0,0,9.82,40.9Z"/><polygon class="cls-3" points="269.59 34.47 77.09 4.23 57.82 10.74 250.55 42.08 269.59 34.47"/><polygon class="cls-12" points="269.59 34.47 77.09 4.23 57.82 10.74 250.55 42.08 269.59 34.47"/><polygon class="cls-1" points="12.06 237.75 12.62 251.87 220.12 318.48 220.49 302.09 12.06 237.75"/><polygon class="cls-13" points="12.06 237.75 12.62 251.87 220.12 318.48 220.49 302.09 12.06 237.75"/></g></g></svg>