<svg xmlns="http://www.w3.org/2000/svg" viewBox="0 0 129.24 135.54"><defs><style>.cls-1{fill:#e5e1e6;}.cls-2{fill:#f88d2a;}.cls-3{fill:#f2a8dc;}.cls-4{fill:#fed925;}.cls-5{fill:#ca3625;}.cls-6{fill:#fff;}</style></defs><g id="Layer_2" data-name="Layer 2"><g id="Colour_Logo_1" data-name="Colour Logo 1"><path class="cls-1" d="M120,19.27A69.8,69.8,0,0,0,120,0,49,49,0,0,0,102.6,22.09l.25.46a61.55,61.55,0,0,1,13.94,10A68.74,68.74,0,0,0,120,19.27Z"/><path class="cls-1" d="M25.66,22.09a49.57,49.57,0,0,0-6.11-11A49.44,49.44,0,0,0,8.27,0a69.88,69.88,0,0,0,3.2,32.56,61.62,61.62,0,0,1,14-10Z"/><path class="cls-2" d="M127.58,48.28a45.46,45.46,0,0,0-10.79-15.72,61.55,61.55,0,0,0-13.94-10,82.72,82.72,0,0,0-38.72-9.23,82.65,82.65,0,0,0-38.71,9.23,61.62,61.62,0,0,0-13.95,10A45.6,45.6,0,0,0,.68,48.28C-2,54.93,3.4,62,11.17,62h9.09c1.26-5.68,4.72-9.67,8.92-9.67s7.66,4,8.93,9.67H88.73c1.26-5.68,4.72-9.67,8.92-9.67s7.66,4,8.92,9.67h10.52C124.86,62,130.23,54.93,127.58,48.28Z"/><path class="cls-3" d="M69.44,85.19l-.33,0-1.31-.08-.44,0c-.55,0-1.1,0-1.66,0s-1.12,0-1.67,0l-.43,0-1.31.08-.33,0c-13.33,1.18-23.63,8.57-23.63,17.48,0,9.74,12.28,17.66,27.37,17.66s27.37-7.92,27.37-17.66C93.07,93.76,82.77,86.37,69.44,85.19Z"/><path class="cls-4" d="M120.14,67.36H107.08c-.21,7.79-4.27,13.81-9.43,13.81s-9.22-6-9.43-13.81H38.61c-.21,7.79-4.27,13.81-9.43,13.81s-9.22-6-9.43-13.81H9.89A6.63,6.63,0,0,0,3.26,74v4.1a6.63,6.63,0,0,0,6.63,6.63H46.34a38.23,38.23,0,0,1,19.36-5,38.25,38.25,0,0,1,19.36,5h35.08a6.63,6.63,0,0,0,6.63-6.63V74A6.63,6.63,0,0,0,120.14,67.36Z"/><circle class="cls-5" cx="81.1" cy="101.11" r="5.14"/><circle class="cls-5" cx="50.86" cy="101.11" r="5.14"/><g id="Seasame"><ellipse class="cls-6" cx="76.9" cy="23.98" rx="1.24" ry="3.55" transform="translate(12.9 72.9) rotate(-54.71)"/><ellipse class="cls-6" cx="82.57" cy="39.68" rx="1.18" ry="2.38" transform="translate(-9.02 41.44) rotate(-26.77)"/><ellipse class="cls-6" cx="60.37" cy="22.96" rx="3.39" ry="1.6" transform="translate(1.56 49.66) rotate(-45.24)"/><ellipse class="cls-6" cx="57.28" cy="42.84" rx="3.65" ry="1.74" transform="translate(-11.84 61.26) rotate(-51.72)"/><ellipse class="cls-6" cx="46.04" cy="21.48" rx="2.66" ry="1.55" transform="translate(6.45 53.31) rotate(-63.81)"/><ellipse class="cls-6" cx="31.04" cy="32.65" rx="1.27" ry="3.62" transform="translate(-9.6 13.21) rotate(-20.89)"/><ellipse class="cls-6" cx="17.69" cy="49.54" rx="3.36" ry="1.58" transform="translate(-32.74 64.52) rotate(-86.89)"/><ellipse class="cls-6" cx="75.05" cy="48.24" rx="1.44" ry="3.24" transform="translate(-10.04 75.08) rotate(-50.23)"/><ellipse class="cls-6" cx="38.36" cy="48.6" rx="2.45" ry="1.41" transform="translate(-23.55 49.49) rotate(-52.54)"/><ellipse class="cls-6" cx="99.35" cy="48.28" rx="1.27" ry="2.64" transform="translate(7.42 109.52) rotate(-59.59)"/><ellipse class="cls-6" cx="109.65" cy="39.51" rx="3.51" ry="1.3" transform="translate(2.72 85.88) rotate(-43.26)"/><ellipse class="cls-6" cx="95.22" cy="30.23" rx="1.38" ry="2.62" transform="translate(0.55 62.15) rotate(-36.25)"/></g><path class="cls-2" d="M121.69,113.92H92.84c-5.34,7-15.5,11.75-27.14,11.75s-21.8-4.74-27.14-11.75H8.34a7.55,7.55,0,0,0-7.55,7.54v1.12a13,13,0,0,0,13,13H116.28a13,13,0,0,0,13-13v-1.12A7.55,7.55,0,0,0,121.69,113.92Z"/><path class="cls-5" d="M34.57,102.67c0-5.19,2.36-10,6.31-13.84H10.52a7.26,7.26,0,0,0-7.26,7.26v6.28a7.26,7.26,0,0,0,7.26,7.26H36A17.45,17.45,0,0,1,34.57,102.67Z"/><path class="cls-5" d="M119.51,88.83h-29c4,3.86,6.31,8.65,6.31,13.84a17.45,17.45,0,0,1-1.47,7h24.15a7.26,7.26,0,0,0,7.26-7.26V96.09A7.26,7.26,0,0,0,119.51,88.83Z"/></g></g></svg>