<?xml version="1.0" encoding="utf-8"?>
<!-- Generator: Adobe Illustrator 26.0.2, SVG Export Plug-In . SVG Version: 6.00 Build 0)  -->
<svg version="1.1" id="Layer_1" xmlns="http://www.w3.org/2000/svg" xmlns:xlink="http://www.w3.org/1999/xlink" x="0px" y="0px"
	 viewBox="0 0 270 200.2" style="enable-background:new 0 0 270 200.2;" xml:space="preserve">
<style type="text/css">
	.st0{fill:#D2D2D2;}
	.st1{fill:#332429;}
	.st2{fill:#EAEAEA;}
	.st3{fill:#B7B7B8;}
	.st4{fill:#1D1718;}
	.st5{fill:#FEDBB9;}
	.st6{fill:#FACAD4;}
	.st7{fill:#B17685;}
	.st8{fill:#443338;}
	.st9{fill:#E2A2B1;}
</style>
<g>
	<g id="Tail">
		<path class="st0" d="M262.4,160.6c0,0-0.1,0-0.1,0c-1.3-0.1-2.4-1.2-2.3-2.5c0.8-18.9,0-38-2.4-56.8c-1.1-9-2.6-18-4.5-26.9
			c-0.3-1.3,0.6-2.6,1.9-2.9c1.3-0.3,2.6,0.6,2.9,1.9c1.9,9,3.4,18.1,4.5,27.2c2.4,19,3.2,38.4,2.4,57.6
			C264.8,159.6,263.7,160.6,262.4,160.6z"/>
		<path class="st0" d="M255.5,169.2c1.4-1.3,4.2-8.8,2.3-12.7c-1.6-3.9-1.7-8.5,3.4-11.6c5.1-3.2,16.5,8.6,0.8,21.3
			c0,0,1.7-2.9,0.7-5.9C262.1,164.8,255.5,169.2,255.5,169.2z"/>
	</g>
	<g>
		<path class="st0" d="M91,186.7c5.7-0.2,10.7-0.9,15-1.8v-65.8H70.2c0,21.9,0,43.7,0,65.6C75.7,185.9,82.8,186.9,91,186.7z"/>
		<path class="st1" d="M91,186.7c-8.2,0.2-15.2-0.7-20.8-2c0,2.4,0,4.8,0,7.2c4.1,1.4,10.5,3.1,18.4,3c7.4-0.1,13.4-1.6,17.4-3v-7
			C101.7,185.8,96.6,186.5,91,186.7z"/>
	</g>
	<g>
		<path class="st0" d="M222.6,186.7c5.7-0.2,10.7-0.9,15-1.8v-65.8h-35.8c0,21.9,0,43.7,0,65.6C207.4,185.9,214.4,186.9,222.6,186.7
			z"/>
		<path class="st1" d="M222.6,186.7c-8.2,0.2-15.2-0.7-20.8-2c0,2.4,0,4.8,0,7.2c4.1,1.4,10.5,3.1,18.4,3c7.4-0.1,13.4-1.6,17.4-3
			v-7C233.3,185.8,228.3,186.5,222.6,186.7z"/>
	</g>
	<path class="st2" d="M248.6,59.9c-2.1-2.1-8.6-8.3-21-12.9c0.4,6-11.5,10.1-9.3,21c-1.1,7.8-12,14.6-26.3,16.4
		c-15.9,2.1-32.5-2.4-38-10.6c-53.7,0.6-42.5-24.5-20.7-32.2c1.2-0.4,2.4-0.9,3.4-1.3c-16.2,0.8-30.2,2.2-38.6,3.1
		c2.5,4.7,4.3,9.9,5.1,15.5v6.8h0c0,0,0,0,0,0c0,18-23,40.5-46.7,39.6c-0.5,0-2.5-0.1-5-0.5c-0.7-0.1-1.3-0.3-2-0.4
		c0.4,1.3,0.6,2.7,0.9,4.2c11.3,5.4,19.5,14.1,21.5,18.9c2.2,5.1-2.3,8.3-4.8,13.8c3.9,2.3,8.1,4.1,12.2,5.9
		c4.6,2.1,8.6,3.4,11.2,4.1h120.1c12.7,0,24.3-4.4,33.5-11.8c-28.6-3.8-20.6-25.5-6.4-32.1c15.4-7.1,4.4-18.6,25-19
		c0.1,0,0.2,0,0.3,0C261.4,79.9,257.5,69,248.6,59.9z"/>
	<g id="Head">
		<path class="st3" d="M56.6,105.3c23.7,0.9,46.7-21.6,46.7-39.6c0,0,0,0,0,0h0v-6.8c-0.8-5.6-2.5-10.8-5.1-15.5
			c-3.7,0.4-6.3,0.7-7.5,0.9C61,44.2,37,68.2,37,97.8v0c1.7-0.5,4.8-1.2,7.7,0.1c2.6,1.2,4,3.5,4.8,6.4c0.6,0.1,1.3,0.3,2,0.4
			C54.1,105.2,56.1,105.3,56.6,105.3z"/>
		<path class="st4" d="M25.7,19.5c-3.2,0.9-9.3,3-15.1,8.2C3.7,33.8,1,40.9,0,44.2c1.8,0,5.6-0.1,9.7-2.2c4.5-2.3,6.9-5.6,7.9-7.1
			C20.3,29.7,23,24.6,25.7,19.5z"/>
		<path class="st5" d="M75.1,16.6c0.9-2.3,2.3-5.2,4.6-8.3c2.9-4,6.1-6.6,8.5-8.3c0.5,3.7,0.8,8.7,0,14.5c-1,7.3-3.4,13.1-5.3,16.8
			C80.3,26.4,77.7,21.5,75.1,16.6z"/>
		<path class="st5" d="M33.8,19.3c-0.9-2.3-2.3-5.2-4.6-8.3c-2.9-4-6.1-6.6-8.5-8.3c-0.5,3.7-0.8,8.7,0,14.5
			c1,7.3,3.4,13.1,5.3,16.8C28.6,29,31.2,24.1,33.8,19.3z"/>
		<path class="st2" d="M99.8,51.4C96.5,28,76.1,10.6,52.8,11c-22.6,0.4-42,17.6-45.1,40.4c0,2.3,0,4.7,0,7c0,0,0,0,0,0
			c0,24.8,20.6,44.8,46,44.8c25.4,0,46-20.1,46-44.8c0,0,0,0,0,0h0V51.4z"/>
		<ellipse class="st6" cx="42.3" cy="84.3" rx="25.8" ry="19.2"/>
		<g>
			<circle class="st7" cx="28.2" cy="84.9" r="3.7"/>
			<circle class="st7" cx="50.1" cy="84.9" r="3.7"/>
		</g>
		<g>
			<ellipse class="st8" cx="23" cy="51" rx="5.2" ry="9.6"/>
			<ellipse class="st8" cx="69.8" cy="51" rx="5.2" ry="9.6"/>
		</g>
		<path class="st4" d="M80.2,19.4c3.2,0.9,9.3,3,15.1,8.3c6.8,6.2,9.5,13.3,10.5,16.5c-1.8,0-5.6-0.1-9.7-2.2
			c-4.5-2.3-6.9-5.6-7.9-7.2C85.5,29.7,82.8,24.6,80.2,19.4z"/>
	</g>
	<g>
		<path class="st7" d="M216,158.3c1.4,0,3.1,0.1,5,0.3c1.4-2.1,2.2-4.6,2.2-7.2h-34.4c0,1.2,0.2,2.4,0.5,3.6
			c1.1,0.6,2.4,1.1,3.8,1.6C201.1,159.4,206.9,158,216,158.3z"/>
		<path class="st9" d="M221,158.6c-1.9-0.2-3.5-0.3-5-0.3c-9.2-0.3-14.9,1.1-22.9-1.8c-1.4-0.5-2.6-1-3.8-1.6c0.4,1.4,1,2.6,1.8,3.8
			c-0.4,0.6-0.8,1.4-1.1,2.4c-0.9,2.6-0.7,5.1,0.3,5.7c1,0.5,2.5-1.1,3.4-3.7c0.1-0.4,0.2-0.8,0.3-1.2c0.8,0.7,1.6,1.2,2.5,1.8
			c-0.3,0.8-0.5,1.8-0.6,2.8c-0.3,3.1,0.4,5.8,1.7,6.1c1.3,0.2,2.6-2.1,2.9-5.2c0.1-0.7,0.1-1.3,0.1-1.9c1.7,0.5,3.5,0.7,5.4,0.7
			c0.3,0,0.6,0,0.9,0c0,0.2,0.1,0.4,0.1,0.6c0.6,3.6,1.9,6.2,2.9,5.9c1.1-0.3,1.5-3.5,0.9-7.1c0,0,0,0,0,0c1.8-0.4,3.4-1.1,4.9-2
			c1.5,3.5,3.3,5.8,4.1,5.2c0.8-0.6,0.5-4-0.8-7.7C219.8,160.3,220.5,159.5,221,158.6z"/>
	</g>
	<g>
		<path class="st2" d="M116.7,191.5v-67.1H80.8c0,22.3,0,44.7,0,67c5.8,0.4,11.9,0.6,18.4,0.6C105.3,192.1,111.1,191.9,116.7,191.5z
			"/>
		<path class="st1" d="M99.2,192.1c-6.4,0-12.6-0.2-18.4-0.6c0,1.9,0,3.8,0,5.7c4.1,1.4,10.5,3.1,18.4,3c7.4-0.1,13.4-1.6,17.4-3
			v-5.6C111.1,191.9,105.3,192.1,99.2,192.1z"/>
	</g>
	<g>
		<path class="st2" d="M245.3,191.5v-67.1h-35.8c0,22.3,0,44.7,0,67c5.8,0.4,11.9,0.6,18.4,0.6C233.9,192.1,239.7,191.9,245.3,191.5
			z"/>
		<path class="st1" d="M227.8,192.1c-6.4,0-12.6-0.2-18.4-0.6c0,1.9,0,3.8,0,5.7c4.1,1.4,10.5,3.1,18.4,3c7.4-0.1,13.4-1.6,17.4-3
			v-5.6C239.7,191.9,233.9,192.1,227.8,192.1z"/>
	</g>
	<g>
		<path class="st0" d="M120.6,136.1c27.3-0.1,54.7-0.2,82-0.2c0.2,1.8,0.7,3.9,1.5,6.2c1.4,3.9,3.4,7,5.4,9.4h-92.8
			c1-2,2-4.6,2.8-7.6C120.1,140.8,120.5,138.2,120.6,136.1z"/>
	</g>
	<g>
		<path class="st0" d="M64.4,123.8c-4.9-2.5-9.2-5.3-13-8c0.9,6.6,2.4,13.8,8,19.6c5.1,5.3,12.8,8.7,20,11.9c0.5,0.2,1,0.4,1.4,0.6
			v-17.3C75.9,129,70.3,126.9,64.4,123.8z"/>
	</g>
	<g id="Spots">
		<path class="st4" d="M154.1,73.7c5.5,8.2,22.1,12.7,38,10.6c14.2-1.9,25.2-8.6,26.3-16.4c-2.2-10.9,9.6-15,9.3-21
			c-0.8-0.3-1.6-0.6-2.5-0.9c-22.6-7.3-59-7.5-88.3-5.9c-1,0.5-2.1,0.9-3.4,1.3C111.5,49.2,100.4,74.3,154.1,73.7z"/>
		<path class="st4" d="M72,127.5c-2.1-4.8-10.2-13.6-21.5-18.9c1.2,8.1,1.2,18.8,9,26.8c2.2,2.3,4.9,4.2,7.8,5.9
			C69.7,135.8,74.2,132.6,72,127.5z"/>
		<path class="st4" d="M136.6,128.8c7.4-1.7,9.9,3.5,14.3,1.6c4.4-2,13.9-11.6,12.6-22s-7.7-4.1-12.8-11.4
			c-5.1-7.3-20.6-9.6-19.1,9.4c-4.9,2.5-7.2,8.6-5.6,14.2C127.5,125.4,131.8,128.9,136.6,128.8z"/>
		<path class="st4" d="M264.3,97.8L264.3,97.8c-0.2-2.5-0.5-5.6-1.2-9.3c-0.1,0-0.2,0-0.3,0c-20.7,0.4-9.7,11.8-25,19
			c-14.2,6.6-22.1,28.3,6.4,32.1C256.5,129.8,264.3,114.7,264.3,97.8z"/>
	</g>
</g>
</svg>
