<?xml version="1.0" encoding="utf-8"?>
<!-- Generator: Adobe Illustrator 26.0.2, SVG Export Plug-In . SVG Version: 6.00 Build 0)  -->
<svg version="1.1" id="Layer_1" xmlns="http://www.w3.org/2000/svg" xmlns:xlink="http://www.w3.org/1999/xlink" x="0px" y="0px"
	 viewBox="0 0 270 270" style="enable-background:new 0 0 270 270;" xml:space="preserve">
<style type="text/css">
	.st0{fill:#D2D2D2;}
	.st1{fill:#332429;}
	.st2{fill:#EAEAEA;}
	.st3{fill:#B7B7B8;}
	.st4{fill:#1D1718;}
	.st5{fill:#FEDBB9;}
	.st6{fill:#FACAD4;}
	.st7{fill:#B17685;}
	.st8{fill:#443338;}
	.st9{fill:#E2A2B1;}
</style>
<g>
	<g id="Tail">
		<path class="st0" d="M252.4,233.5L252.4,233.5c-1.3-0.1-2.3-1.1-2.2-2.3c0.7-17.4,0-35-2.2-52.4c-1-8.3-2.4-16.6-4.1-24.8
			c-0.3-1.2,0.6-2.4,1.8-2.7c1.2-0.3,2.4,0.6,2.7,1.8c1.8,8.3,3.1,16.7,4.1,25.1c2.2,17.5,2.9,35.4,2.2,53.1
			C254.7,232.6,253.6,233.5,252.4,233.5z"/>
		<path class="st0" d="M246.1,241.4c1.3-1.2,3.9-8.1,2.1-11.7c-1.5-3.6-1.6-7.8,3.1-10.7c4.7-2.9,15.2,7.9,0.7,19.6
			c0,0,1.6-2.7,0.6-5.4C252.2,237.4,246.1,241.4,246.1,241.4z"/>
	</g>
	<g>
		<path class="st0" d="M94.4,257.6c5.3-0.2,9.9-0.8,13.8-1.7v-60.7h-33c0,20.2,0,40.3,0,60.5C80.3,256.8,86.9,257.7,94.4,257.6z"/>
		<path class="st1" d="M94.4,257.6c-7.6,0.2-14-0.6-19.2-1.8c0,2.2,0,4.4,0,6.6c3.8,1.3,9.7,2.9,17,2.8c6.8-0.1,12.4-1.5,16-2.8
			v-6.5C104.3,256.7,99.6,257.4,94.4,257.6z"/>
	</g>
	<g>
		<path class="st0" d="M215.8,257.6c5.3-0.2,9.9-0.8,13.8-1.7v-60.7h-33c0,20.2,0,40.3,0,60.5C201.7,256.8,208.2,257.7,215.8,257.6z
			"/>
		<path class="st1" d="M215.8,257.6c-7.6,0.2-14-0.6-19.2-1.8c0,2.2,0,4.4,0,6.6c3.8,1.3,9.7,2.9,17,2.8c6.8-0.1,12.4-1.5,16-2.8
			v-6.5C225.6,256.7,221,257.4,215.8,257.6z"/>
	</g>
	<path class="st2" d="M239.7,140.7c-1.9-1.9-7.9-7.7-19.4-11.9c0.4,5.5-10.6,9.3-8.6,19.4c-1,7.2-11.1,13.5-24.2,15.1
		c-14.7,1.9-30-2.2-35-9.8c-49.5,0.6-39.2-22.6-19.1-29.7c1.1-0.4,2.2-0.8,3.1-1.2c-14.9,0.7-27.8,2-35.6,2.9
		c2.3,4.3,4,9.1,4.7,14.3v6.3l0,0l0,0c0,16.6-21.2,37.3-43,36.5c-0.5,0-2.3-0.1-4.6-0.5c-0.6-0.1-1.2-0.3-1.8-0.4
		c0.4,1.2,0.6,2.5,0.8,3.9c10.4,5,18,13,19.8,17.4c2,4.7-2.1,7.7-4.4,12.7c3.6,2.1,7.5,3.8,11.2,5.4c4.2,1.9,7.9,3.1,10.3,3.8h110.7
		c11.7,0,22.4-4.1,30.9-10.9c-26.4-3.5-19-23.5-5.9-29.6c14.2-6.5,4.1-17.1,23-17.5c0.1,0,0.2,0,0.3,0
		C251.5,159.1,247.9,149.1,239.7,140.7z"/>
	<g id="Head">
		<path class="st3" d="M62.7,182.5c21.8,0.8,43-19.9,43-36.5l0,0l0,0v-6.3c-0.7-5.2-2.3-10-4.7-14.3c-3.4,0.4-5.8,0.6-6.9,0.8
			c-27.4-0.1-49.5,22-49.5,49.3l0,0c1.6-0.5,4.4-1.1,7.1,0.1c2.4,1.1,3.7,3.2,4.4,5.9c0.6,0.1,1.2,0.3,1.8,0.4
			C60.4,182.4,62.3,182.5,62.7,182.5z"/>
		<path class="st4" d="M34.2,103.4c-2.9,0.8-8.6,2.8-13.9,7.6c-6.4,5.6-8.8,12.2-9.8,15.2c1.7,0,5.2-0.1,8.9-2
			c4.1-2.1,6.4-5.2,7.3-6.5C29.3,112.8,31.8,108.1,34.2,103.4z"/>
		<path class="st5" d="M79.8,100.8c0.8-2.1,2.1-4.8,4.2-7.7c2.7-3.7,5.6-6.1,7.8-7.7c0.5,3.4,0.7,8,0,13.4
			c-0.9,6.7-3.1,12.1-4.9,15.5C84.6,109.8,82.2,105.3,79.8,100.8z"/>
		<path class="st5" d="M41.7,103.2c-0.8-2.1-2.1-4.8-4.2-7.7c-2.7-3.7-5.6-6.1-7.8-7.7c-0.5,3.4-0.7,8,0,13.4
			c0.9,6.7,3.1,12.1,4.9,15.5C36.9,112.2,39.3,107.7,41.7,103.2z"/>
		<path class="st2" d="M102.6,132.8c-3-21.6-21.8-37.6-43.3-37.2c-20.8,0.4-38.7,16.2-41.6,37.2c0,2.1,0,4.3,0,6.5l0,0
			c0,22.9,19,41.3,42.4,41.3s42.4-18.5,42.4-41.3l0,0l0,0L102.6,132.8L102.6,132.8z"/>
		<ellipse class="st6" cx="49.5" cy="163.2" rx="23.8" ry="17.7"/>
		<g>
			<circle class="st7" cx="36.5" cy="163.7" r="3.4"/>
			<circle class="st7" cx="56.7" cy="163.7" r="3.4"/>
		</g>
		<g>
			<ellipse class="st8" cx="31.8" cy="132.5" rx="4.8" ry="8.8"/>
			<ellipse class="st8" cx="74.9" cy="132.5" rx="4.8" ry="8.8"/>
		</g>
		<path class="st4" d="M84.5,103.3c2.9,0.8,8.6,2.8,13.9,7.7c6.3,5.7,8.8,12.3,9.7,15.2c-1.7,0-5.2-0.1-8.9-2
			c-4.1-2.1-6.4-5.2-7.3-6.6C89.4,112.8,86.9,108.1,84.5,103.3z"/>
	</g>
	<g>
		<path class="st7" d="M209.7,231.4c1.3,0,2.9,0.1,4.6,0.3c1.3-1.9,2-4.2,2-6.6h-31.7c0,1.1,0.2,2.2,0.5,3.3c1,0.6,2.2,1,3.5,1.5
			C195.9,232.4,201.3,231.1,209.7,231.4z"/>
		<path class="st9" d="M214.3,231.7c-1.8-0.2-3.2-0.3-4.6-0.3c-8.5-0.3-13.7,1-21.1-1.7c-1.3-0.5-2.4-0.9-3.5-1.5
			c0.4,1.3,0.9,2.4,1.7,3.5c-0.4,0.6-0.7,1.3-1,2.2c-0.8,2.4-0.6,4.7,0.3,5.3c0.9,0.5,2.3-1,3.1-3.4c0.1-0.4,0.2-0.7,0.3-1.1
			c0.7,0.6,1.5,1.1,2.3,1.7c-0.3,0.7-0.5,1.7-0.6,2.6c-0.3,2.9,0.4,5.3,1.6,5.6c1.2,0.2,2.4-1.9,2.7-4.8c0.1-0.6,0.1-1.2,0.1-1.8
			c1.6,0.5,3.2,0.6,5,0.6c0.3,0,0.6,0,0.8,0c0,0.2,0.1,0.4,0.1,0.6c0.6,3.3,1.8,5.7,2.7,5.4c1-0.3,1.4-3.2,0.8-6.5l0,0
			c1.7-0.4,3.1-1,4.5-1.8c1.4,3.2,3,5.3,3.8,4.8c0.7-0.6,0.5-3.7-0.7-7.1C213.2,233.2,213.8,232.5,214.3,231.7z"/>
	</g>
	<g>
		<path class="st2" d="M118.1,262v-61.9H85c0,20.6,0,41.2,0,61.8c5.3,0.4,11,0.6,17,0.6C107.6,262.5,113,262.3,118.1,262z"/>
		<path class="st1" d="M102,262.5c-5.9,0-11.6-0.2-17-0.6c0,1.8,0,3.5,0,5.3c3.8,1.3,9.7,2.9,17,2.8c6.8-0.1,12.4-1.5,16-2.8v-5.2
			C113,262.3,107.6,262.5,102,262.5z"/>
	</g>
	<g>
		<path class="st2" d="M236.7,262v-61.9h-33c0,20.6,0,41.2,0,61.8c5.3,0.4,11,0.6,17,0.6C226.2,262.5,231.5,262.3,236.7,262z"/>
		<path class="st1" d="M220.5,262.5c-5.9,0-11.6-0.2-17-0.6c0,1.8,0,3.5,0,5.3c3.8,1.3,9.7,2.9,17,2.8c6.8-0.1,12.4-1.5,16-2.8v-5.2
			C231.5,262.3,226.2,262.5,220.5,262.5z"/>
	</g>
	<g>
		<path class="st0" d="M121.7,210.9c25.2-0.1,50.4-0.2,75.6-0.2c0.2,1.7,0.6,3.6,1.4,5.7c1.3,3.6,3.1,6.5,5,8.7h-85.5
			c0.9-1.8,1.8-4.2,2.6-7C121.3,215.2,121.6,212.8,121.7,210.9z"/>
	</g>
	<g>
		<path class="st0" d="M69.9,199.6c-4.5-2.3-8.5-4.9-12-7.4c0.8,6.1,2.2,12.7,7.4,18.1c4.7,4.9,11.8,8,18.4,11
			c0.5,0.2,0.9,0.4,1.3,0.6v-15.9C80.5,204.4,75.4,202.4,69.9,199.6z"/>
	</g>
	<g id="Spots">
		<path class="st4" d="M152.6,153.4c5.1,7.6,20.4,11.7,35,9.8c13.1-1.8,23.2-7.9,24.2-15.1c-2-10,8.8-13.8,8.6-19.4
			c-0.7-0.3-1.5-0.6-2.3-0.8c-20.8-6.7-54.4-6.9-81.4-5.4c-0.9,0.5-1.9,0.8-3.1,1.2C113.3,130.8,103.1,153.9,152.6,153.4z"/>
		<path class="st4" d="M76.9,203c-1.9-4.4-9.4-12.5-19.8-17.4c1.1,7.5,1.1,17.3,8.3,24.7c2,2.1,4.5,3.9,7.2,5.4
			C74.8,210.6,79,207.7,76.9,203z"/>
		<path class="st4" d="M136.5,204.2c6.8-1.6,9.1,3.2,13.2,1.5c4.1-1.8,12.8-10.7,11.6-20.3c-1.2-9.6-7.1-3.8-11.8-10.5
			s-19-8.8-17.6,8.7c-4.5,2.3-6.6,7.9-5.2,13.1C128.1,201,132,204.3,136.5,204.2z"/>
		<path class="st4" d="M254.2,175.6L254.2,175.6c-0.2-2.3-0.5-5.2-1.1-8.6c-0.1,0-0.2,0-0.3,0c-19.1,0.4-8.9,10.9-23,17.5
			c-13.1,6.1-20.4,26.1,5.9,29.6C247,205.1,254.2,191.2,254.2,175.6z"/>
	</g>
</g>
</svg>
