<svg xmlns="http://www.w3.org/2000/svg" viewBox="0 0 364.25 217.4"><defs><style>.cls-1{fill:#3c3f44;}.cls-2{fill:#121212;}.cls-3{fill:#353a3e;}.cls-4{fill:#c4603e;}.cls-5{fill:#24272c;}.cls-6{fill:#7d7d7d;}.cls-7{fill:#fff;opacity:0.06;}.cls-8{opacity:0.05;}</style></defs><g id="Layer_2" data-name="Layer 2"><g id="stun_gun" data-name="stun gun"><g id="Layer_5" data-name="Layer 5"><path class="cls-1" d="M333.71,10.43a2,2,0,0,0-1.56-.74H290.88A2.07,2.07,0,0,0,289,11v-.48a.82.82,0,0,0-.81-.82h-3.82a.82.82,0,0,0-.81.82V11a3.87,3.87,0,0,0-3.12-1.58H242.82a3.91,3.91,0,0,0-3.9,3.9v2.3a.42.42,0,0,1,.29.23V13.59a3.91,3.91,0,0,1,3.9-3.9h37.08A3.9,3.9,0,0,1,283.73,12V10.68a.82.82,0,0,1,.81-.82h3.38a.82.82,0,0,1,.81.82v53a.82.82,0,0,1-.81.82h-3.38a.82.82,0,0,1-.81-.82v-2a3.9,3.9,0,0,1-3.54,2.27H243.11a3.9,3.9,0,0,1-3.9-3.9V56.5a.43.43,0,0,1-.39.25h-3.45a.44.44,0,0,1-.45-.44V16a.45.45,0,0,1,.45-.44h3.45l.09,0a.8.8,0,0,0-.54-.22h-3a.58.58,0,0,0-.19,0V11.29a2.72,2.72,0,0,0-2.72-2.72H186.52a3,3,0,0,1,.35,1.41V23.53a3.14,3.14,0,0,1-3.14,3.15H89.19A3.15,3.15,0,0,1,86,23.53V14L72,0,64.36,0l.55,10L47,10.24,41.58.36,37,0l7.32,27H225.9l-.35,6.06s-32.66,1.21-38.22,24.23c0,0,0,20.9,13.55,29.08,0,0,9.38,10.6-13.2.61H168.35l-.24.41h20.36c22.58,10,13.2-.6,13.2-.6-8.86-5.35-11.93-16.15-13-23h43.77a2.72,2.72,0,0,0,2.72-2.73V57a1.08,1.08,0,0,0,.19,0h3a.8.8,0,0,0,.55-.22v3.7a3.9,3.9,0,0,0,3.9,3.9h37.59a3.89,3.89,0,0,0,3.12-1.57v1.05a.82.82,0,0,0,.81.82h3.82a.82.82,0,0,0,.81-.82v-.47a2.08,2.08,0,0,0,1.91,1.29h41.27a2.08,2.08,0,0,0,1.73-.94L363.4,52.49l.85-29.64ZM47.44,18.49a2.3,2.3,0,1,1,2.3-2.3A2.3,2.3,0,0,1,47.44,18.49ZM363.09,52.25,333.71,63.43a2.07,2.07,0,0,1-1.63.81H291A2.07,2.07,0,0,1,289,62.17V12A2.07,2.07,0,0,1,291,10h41.06a2.07,2.07,0,0,1,1.63.81l30.21,12.29Z"/><path class="cls-1" d="M12.15,87a6.15,6.15,0,0,0,.51.41h64c-.19-.13-.36-.28-.54-.41Z"/><path class="cls-2" d="M235.37,15.58a.45.45,0,0,0-.45.44V56.31a.44.44,0,0,0,.45.44h3.45a.43.43,0,0,0,.39-.25V15.83a.42.42,0,0,0-.29-.23h0l-.09,0Z"/><path class="cls-3" d="M75.16,70.21a7.27,7.27,0,0,1,6.21-3.5h77.47l.09-.17h5.69a11.19,11.19,0,0,1,5,.86c7.08,2.79,2.25,13.45-1.26,19.57h19.33c22.58,10,13.2-.61,13.2-.61-13.55-8.18-13.55-29.08-13.55-29.08,5.56-23,38.22-24.23,38.22-24.23L225.9,27H43.84L.06,49.1C-1,77.88,11.87,87,11.87,87H76.09C69.61,81.94,72.53,74.53,75.16,70.21ZM45,49.18h0a9.56,9.56,0,0,1,9.57-9.57h45.61a9.56,9.56,0,0,1,9.57,9.57h0a9.56,9.56,0,0,1-9.57,9.57H54.58A9.56,9.56,0,0,1,45,49.18Z"/><path class="cls-4" d="M169.61,67.4c8,3.76-1.11,18.77-3.74,22.77a3.83,3.83,0,0,0-.62,2.23c.54,13.71-7.52,54.82-13.45,70.86a60.24,60.24,0,0,1-10.5,17.59c-2.69,3.22-5.11,8.79-3.06,17.9,2.85,12.75-3,16.77-6.15,18a7.81,7.81,0,0,1-2.79.49h-.53c-7.11-12.63-7.45-30.83-3.19-32.66,5.06-2.17,34-85.37,28.94-95.5-3.24-6.47.9-16.17,4.32-22.35H81.37a7.27,7.27,0,0,0-6.21,3.5c-2.63,4.32-5.55,11.73.93,16.76.18.13.35.28.54.41C80.41,90,87,91.91,97.89,92.22c0,0-15,54.82-24.92,89.7L62.79,193.07a13.25,13.25,0,0,0-3.35,7.08c-.8,5.79.33,15.07,15,17.25H129.7a7.66,7.66,0,0,0,2.8-.5c3.11-1.21,9-5.22,6.14-18-2-9.11.37-14.69,3.06-17.9a60.15,60.15,0,0,0,10.5-17.59c5.93-16,14-57.15,13.45-70.87a3.73,3.73,0,0,1,.63-2.22c.45-.7,1.11-1.73,1.83-3l.24-.41C171.86,80.85,176.69,70.19,169.61,67.4ZM112.38,95.09,81.14,184.85s-4.92,24.46-17.74,27.47c-4.87-2.82-5.48-15.28.06-19.41L73,182.55C83,147.66,98.08,92,98.08,92c-21.7-.61-26.26-7.34-25.67-13.81C74,78.1,127.18,76.78,112.38,95.09Z"/><path class="cls-5" d="M333.66,10.75l0,0a2.07,2.07,0,0,0-1.63-.81H291A2.07,2.07,0,0,0,289,12V62.17A2.07,2.07,0,0,0,291,64.24h41.06a2.07,2.07,0,0,0,1.63-.81l0,0Z"/><polygon class="cls-3" points="333.71 10.77 333.66 10.75 333.66 63.45 333.71 63.43 363.09 52.25 363.92 23.06 333.71 10.77"/><path class="cls-2" d="M284.09,60a3.85,3.85,0,0,1-.36,1.63v2a.82.82,0,0,0,.81.82h3.38a.82.82,0,0,0,.81-.82V10.68a.82.82,0,0,0-.81-.82h-3.38a.82.82,0,0,0-.81.82V12a3.89,3.89,0,0,1,.36,1.63Z"/><path class="cls-5" d="M239.21,60a3.9,3.9,0,0,0,3.9,3.9h37.08a3.9,3.9,0,0,0,3.54-2.27,3.85,3.85,0,0,0,.36-1.63V13.59a3.91,3.91,0,0,0-3.9-3.9H243.11a3.91,3.91,0,0,0-3.9,3.9V60Z"/><path class="cls-5" d="M89.19,26.68h94.54a3.14,3.14,0,0,0,3.14-3.15V10a3,3,0,0,0-.35-1.41,3.12,3.12,0,0,0-2.79-1.74H89.19A3.15,3.15,0,0,0,86,10V23.53A3.15,3.15,0,0,0,89.19,26.68Z"/><rect class="cls-6" x="45.01" y="39.61" width="64.76" height="19.15" rx="9.57"/><path d="M47.44,13.89a2.3,2.3,0,1,0,2.3,2.3A2.3,2.3,0,0,0,47.44,13.89Z"/><path class="cls-4" d="M72.41,78.14c-.59,6.47,4,13.2,25.67,13.81,0,0-15.11,55.71-25.08,90.6l-9.54,10.36c-5.54,4.13-4.93,16.59-.06,19.41,12.82-3,17.74-27.47,17.74-27.47l31.24-89.76C127.18,76.78,74,78.1,72.41,78.14Z"/><path class="cls-7" d="M72.41,78.14c-.59,6.47,4,13.2,25.67,13.81,0,0-15.11,55.71-25.08,90.6l-9.54,10.36c-5.54,4.13-4.93,16.59-.06,19.41,12.82-3,17.74-27.47,17.74-27.47l31.24-89.76C127.18,76.78,74,78.1,72.41,78.14Z"/><path class="cls-3" d="M158.93,66.54l-.09.17H165a11.9,11.9,0,0,1,4.59.69,11.19,11.19,0,0,0-5-.86Z"/><path class="cls-8" d="M158.93,66.54l-.09.17H165a11.9,11.9,0,0,1,4.59.69,11.19,11.19,0,0,0-5-.86Z"/><path class="cls-4" d="M158.84,66.71c-3.42,6.18-7.56,15.88-4.32,22.35,5.06,10.13-23.88,93.33-28.94,95.5-4.26,1.83-3.92,20,3.19,32.66h.53a7.81,7.81,0,0,0,2.79-.49c3.12-1.21,9-5.23,6.15-18-2.05-9.11.37-14.68,3.06-17.9a60.24,60.24,0,0,0,10.5-17.59c5.93-16,14-57.15,13.45-70.86a3.83,3.83,0,0,1,.62-2.23c2.63-4,11.77-19,3.74-22.77a11.9,11.9,0,0,0-4.59-.69Z"/><path class="cls-8" d="M158.84,66.71c-3.42,6.18-7.56,15.88-4.32,22.35,5.06,10.13-23.88,93.33-28.94,95.5-4.26,1.83-3.92,20,3.19,32.66h.53a7.81,7.81,0,0,0,2.79-.49c3.12-1.21,9-5.23,6.15-18-2.05-9.11.37-14.68,3.06-17.9a60.24,60.24,0,0,0,10.5-17.59c5.93-16,14-57.15,13.45-70.86a3.83,3.83,0,0,1,.62-2.23c2.63-4,11.77-19,3.74-22.77a11.9,11.9,0,0,0-4.59-.69Z"/></g></g></g></svg>