<?xml version="1.0" encoding="utf-8"?>
<!-- Generator: Adobe Illustrator 26.0.2, SVG Export Plug-In . SVG Version: 6.00 Build 0)  -->
<svg version="1.1" xmlns="http://www.w3.org/2000/svg" xmlns:xlink="http://www.w3.org/1999/xlink" x="0px" y="0px"
	 viewBox="0 0 358.86 215.34" style="enable-background:new 0 0 358.86 215.34;" xml:space="preserve">
<style type="text/css">
	.st0{fill:none;stroke:#8E8E8E;stroke-width:0.5;stroke-miterlimit:10;stroke-dasharray:2,1;}
	.st1{fill:none;stroke:#8E8E8E;stroke-width:0.5;stroke-miterlimit:10;}
	.st2{opacity:0.42;fill:none;stroke:#000000;stroke-width:0.5;stroke-miterlimit:10;}
	.st3{opacity:0.5;fill:none;stroke:#000000;stroke-width:0.8;stroke-miterlimit:10;}
	.st4{fill:#262223;}
	.st5{fill:#8E8E8E;}
</style>
<g id="Layer_1">
	<g>
		<g id="Colour_Logo_1">
			<path d="M108.53,80.79h-6.94c-0.11,4.14-2.27,7.34-5.01,7.34c-2.74,0-4.9-3.2-5.01-7.34H65.22c-0.11,4.14-2.27,7.34-5.01,7.34
				s-4.9-3.2-5.01-7.34h-5.24c-1.95,0-3.52,1.58-3.52,3.52v2.18c0,1.95,1.58,3.52,3.52,3.52h19.36c2.83-1.67,6.39-2.68,10.28-2.68
				c3.89,0,7.46,1.01,10.28,2.68h18.63c1.95,0,3.52-1.58,3.52-3.52v-2.18C112.05,82.37,110.48,80.79,108.53,80.79z"/>
			<path d="M81.6,90.27c-0.06-0.01-0.12-0.01-0.18-0.01c-0.23-0.02-0.46-0.03-0.7-0.05c-0.08,0-0.15-0.01-0.23-0.01
				c-0.29-0.01-0.59-0.02-0.88-0.02c-0.3,0-0.59,0.01-0.88,0.02c-0.08,0-0.15,0.01-0.23,0.01c-0.23,0.01-0.47,0.03-0.7,0.05
				c-0.06,0-0.12,0.01-0.17,0.01c-7.08,0.63-12.55,4.55-12.55,9.29c0,5.17,6.52,9.38,14.54,9.38c8.02,0,14.54-4.21,14.54-9.38
				C94.15,94.82,88.68,90.9,81.6,90.27z M71.73,101.45c-1.51,0-2.73-1.22-2.73-2.73s1.22-2.73,2.73-2.73c1.51,0,2.73,1.22,2.73,2.73
				S73.24,101.45,71.73,101.45z M87.8,101.45c-1.51,0-2.73-1.22-2.73-2.73s1.22-2.73,2.73-2.73s2.73,1.22,2.73,2.73
				S89.3,101.45,87.8,101.45z"/>
			<path d="M112.48,70.66c-1.21-3.06-3.18-5.87-5.73-8.35c0.7-2.03,1.33-4.39,1.7-7.06c0.57-4.11,0.36-7.64,0-10.24
				c-1.67,1.17-3.92,3.05-5.99,5.87c-1.59,2.16-2.6,4.23-3.25,5.87c0.04,0.08,0.09,0.16,0.13,0.24c-5.78-3.08-12.88-4.9-20.56-4.9
				c-7.68,0-14.78,1.82-20.56,4.9c0.04-0.08,0.09-0.16,0.13-0.24c-0.65-1.63-1.65-3.71-3.25-5.87c-2.07-2.81-4.33-4.69-5.99-5.87
				c-0.36,2.6-0.57,6.13,0,10.24c0.37,2.67,1,5.03,1.7,7.06c-2.55,2.47-4.52,5.29-5.73,8.35c-1.41,3.53,1.44,7.27,5.57,7.27h4.82
				c0.67-3.02,2.51-5.14,4.74-5.14s4.07,2.12,4.74,5.14h26.89c0.67-3.02,2.51-5.14,4.74-5.14c2.23,0,4.07,2.12,4.74,5.14h5.59
				C111.04,77.93,113.89,74.19,112.48,70.66z M54.95,71.39c-0.06,0.98-0.48,1.75-0.94,1.72c-0.46-0.03-0.79-0.86-0.73-1.84
				c0.06-0.98,0.48-1.75,0.94-1.72C54.68,69.58,55.01,70.41,54.95,71.39z M61.91,64.15c-0.33,0.16-0.92-0.51-1.31-1.49
				c-0.39-0.99-0.43-1.92-0.1-2.08c0.33-0.16,0.92,0.51,1.31,1.49C62.2,63.05,62.24,63.98,61.91,64.15z M65.61,71.38
				c-0.47,0.55-1.08,0.74-1.36,0.44c-0.29-0.3-0.14-0.99,0.32-1.54c0.47-0.55,1.08-0.74,1.36-0.44
				C66.22,70.15,66.08,70.84,65.61,71.38z M69.85,56.89c-0.38,0.68-0.99,1.02-1.37,0.77c-0.38-0.26-0.38-1.02,0-1.7
				c0.38-0.68,0.99-1.02,1.37-0.77C70.23,55.45,70.23,56.21,69.85,56.89z M75.79,68.44c-0.69,0.82-1.54,1.18-1.89,0.81
				c-0.36-0.37-0.09-1.34,0.6-2.15s1.54-1.18,1.89-0.81S76.48,67.63,75.79,68.44z M77.3,57.89c-0.72,0.68-1.54,0.94-1.83,0.56
				c-0.29-0.37,0.06-1.23,0.78-1.92c0.72-0.68,1.54-0.94,1.83-0.56C78.37,56.35,78.02,57.21,77.3,57.89z M85.93,71.71
				c-0.23,0.36-1.02,0.17-1.76-0.42c-0.74-0.59-1.16-1.36-0.93-1.72c0.23-0.36,1.02-0.17,1.76,0.42
				C85.74,70.58,86.16,71.35,85.93,71.71z M87.11,58.82c-0.18,0.32-1.02,0.1-1.87-0.49c-0.86-0.59-1.41-1.33-1.23-1.65
				c0.18-0.32,1.02-0.1,1.87,0.49S87.29,58.5,87.11,58.82z M89.18,67.2c-0.29,0.19-0.79-0.15-1.13-0.76
				c-0.33-0.61-0.37-1.27-0.08-1.46c0.29-0.19,0.79,0.15,1.13,0.76C89.43,66.36,89.47,67.01,89.18,67.2z M94.77,61.59
				c-0.48-0.6-0.63-1.32-0.34-1.6c0.29-0.29,0.91-0.03,1.39,0.57c0.48,0.6,0.63,1.32,0.34,1.6C95.87,62.44,95.25,62.19,94.77,61.59z
				 M98.71,71.34c-0.15,0.34-0.82,0.31-1.5-0.06c-0.68-0.37-1.1-0.95-0.95-1.29s0.82-0.31,1.5,0.06
				C98.44,70.42,98.87,71,98.71,71.34z M103.37,66.56c-0.76,0.69-1.56,1-1.79,0.69s0.2-1.12,0.96-1.81c0.76-0.69,1.56-1,1.79-0.69
				S104.13,65.87,103.37,66.56z"/>
			<path d="M109.36,105.53H94.03c-2.84,3.72-8.24,6.24-14.42,6.24c-6.18,0-11.58-2.52-14.42-6.24H49.14c-2.21,0-4.01,1.79-4.01,4.01
				v0.59c0,3.8,3.08,6.89,6.89,6.89h54.46c3.8,0,6.89-3.08,6.89-6.89v-0.59C113.37,107.32,111.57,105.53,109.36,105.53z"/>
			<path d="M63.08,99.56c0-2.76,1.25-5.3,3.35-7.35H50.3c-2.13,0-3.85,1.73-3.85,3.85v3.34c0,2.13,1.73,3.85,3.85,3.85h13.56
				C63.35,102.08,63.08,100.84,63.08,99.56z"/>
			<path d="M108.2,92.2H92.8c2.1,2.05,3.35,4.59,3.35,7.35c0,1.29-0.28,2.53-0.78,3.69h12.83c2.13,0,3.85-1.73,3.85-3.85v-3.34
				C112.05,93.93,110.33,92.2,108.2,92.2z"/>
		</g>
		<g>
			<path d="M141.68,108.93h-14.76V59.84h14.31l5.98,10.23l6.02-10.23h14.41v49.09h-14.77V84.35l-5.66,9.49l-5.53-9.49V108.93z"/>
			<path d="M185.96,96.61h12.93v12.32h-27.7V59.84h27.7v12.32h-12.93v6.08H195v12.32h-9.04V96.61z"/>
			<path d="M217.75,100.56l-1.9,8.36H200.9l11.94-49.09h21.07l11.32,49.09h-14.8l-1.93-8.36H217.75z M220.39,89.05h5.47l-2.7-12
				L220.39,89.05z"/>
			<path d="M264.82,108.93h-14.76V79.69h-7.43V59.84h29.63v19.85h-7.43V108.93z"/>
			<path d="M301.44,87.5v21.42h-14.76V87.5l-12.71-27.66h14.96l5.15,11.13l5.15-11.13h14.93L301.44,87.5z"/>
		</g>
	</g>
</g>
<g id="Layer_2">
	<line class="st0" x1="-18.57" y1="117.01" x2="377.43" y2="117.01"/>
	<line class="st1" x1="-18.57" y1="161.35" x2="377.43" y2="161.35"/>
	<line class="st0" x1="-18.57" y1="45.01" x2="377.43" y2="45.01"/>
	<line class="st2" x1="-18.57" y1="0.68" x2="377.43" y2="0.68"/>
	<line class="st0" x1="44.71" y1="161.66" x2="44.71" y2="-99.83"/>
	<line class="st1" x1="0.38" y1="161.66" x2="0.38" y2="-99.83"/>
	<line class="st0" x1="314.14" y1="161.66" x2="314.14" y2="-98.58"/>
	<line class="st1" x1="358.47" y1="161.25" x2="358.47" y2="-98.98"/>
	<line class="st3" x1="201.15" y1="108.93" x2="201.15" y2="186.91"/>
	<line class="st3" x1="244.97" y1="108.9" x2="244.97" y2="186.88"/>
	<g>
		<path class="st4" d="M219.3,180.68l2.24,3.09c0.62,0.8,1.11,1.52,1.63,2.32h0.06c0.52-0.83,1.04-1.58,1.59-2.35l2.18-3.06h3.12
			l-5.36,6.96l5.49,7.44h-3.22l-2.34-3.24c-0.62-0.83-1.14-1.64-1.69-2.5h-0.07c-0.52,0.86-1.04,1.64-1.66,2.5l-2.28,3.24h-3.15
			l5.59-7.35l-5.33-7.05H219.3z"/>
	</g>
	<g>
		<path class="st5" d="M333.12,133.06l1.91,2.63c0.52,0.68,0.94,1.29,1.38,1.97h0.05c0.44-0.71,0.88-1.34,1.35-2l1.85-2.6h2.65
			l-4.56,5.92l4.67,6.32h-2.73l-1.99-2.76c-0.52-0.71-0.97-1.39-1.44-2.12h-0.06c-0.44,0.73-0.88,1.39-1.41,2.12l-1.93,2.76h-2.68
			l4.75-6.25l-4.53-5.99H333.12z"/>
	</g>
	<g>
		<path class="st5" d="M19.36,133.06l1.91,2.63c0.52,0.68,0.94,1.29,1.38,1.97h0.05c0.44-0.71,0.88-1.34,1.35-2l1.85-2.6h2.65
			L24,138.98l4.67,6.32h-2.73l-1.99-2.76c-0.52-0.71-0.97-1.39-1.44-2.12h-0.06c-0.44,0.73-0.88,1.39-1.41,2.12l-1.93,2.76h-2.68
			l4.75-6.25l-4.53-5.99H19.36z"/>
	</g>
	<g>
		<path class="st5" d="M19.36,16.73l1.91,2.63c0.52,0.68,0.94,1.29,1.38,1.97h0.05c0.44-0.71,0.88-1.34,1.35-2l1.85-2.6h2.65
			L24,22.65l4.67,6.32h-2.73l-1.99-2.76c-0.52-0.71-0.97-1.39-1.44-2.12h-0.06c-0.44,0.73-0.88,1.39-1.41,2.12l-1.93,2.76h-2.68
			l4.75-6.25l-4.53-5.99H19.36z"/>
	</g>
	<g>
		<path class="st5" d="M333.12,16.73l1.91,2.63c0.52,0.68,0.94,1.29,1.38,1.97h0.05c0.44-0.71,0.88-1.34,1.35-2l1.85-2.6h2.65
			l-4.56,5.92l4.67,6.32h-2.73l-1.99-2.76c-0.52-0.71-0.97-1.39-1.44-2.12h-0.06c-0.44,0.73-0.88,1.39-1.41,2.12l-1.93,2.76h-2.68
			l4.75-6.25l-4.53-5.99H333.12z"/>
	</g>
</g>
</svg>
