<?xml version="1.0" encoding="utf-8"?>
<!-- Generator: Adobe Illustrator 26.0.2, SVG Export Plug-In . SVG Version: 6.00 Build 0)  -->
<svg version="1.1" id="Layer_2" xmlns="http://www.w3.org/2000/svg" xmlns:xlink="http://www.w3.org/1999/xlink" x="0px" y="0px"
	 viewBox="0 0 269.4 72" style="enable-background:new 0 0 269.4 72;" xml:space="preserve">
<g>
	<g id="Colour_Logo_1">
		<path d="M63.8,35.8h-6.9c-0.1,4.1-2.3,7.3-5,7.3c-2.7,0-4.9-3.2-5-7.3H20.5c-0.1,4.1-2.3,7.3-5,7.3s-4.9-3.2-5-7.3H5.2
			c-2,0-3.5,1.6-3.5,3.5v2.2c0,1.9,1.6,3.5,3.5,3.5h19.4c2.8-1.7,6.4-2.7,10.3-2.7s7.5,1,10.3,2.7h18.6c1.9,0,3.5-1.6,3.5-3.5v-2.2
			C67.3,37.4,65.8,35.8,63.8,35.8z"/>
		<path d="M36.9,45.3c-0.1,0-0.1,0-0.2,0c-0.2,0-0.5,0-0.7-0.1c-0.1,0-0.2,0-0.2,0c-0.3,0-0.6,0-0.9,0c-0.3,0-0.6,0-0.9,0
			c-0.1,0-0.2,0-0.2,0c-0.2,0-0.5,0-0.7,0.1c-0.1,0-0.1,0-0.2,0c-7.1,0.6-12.6,4.6-12.6,9.3c0,5.2,6.5,9.4,14.5,9.4
			s14.5-4.2,14.5-9.4C49.4,49.8,44,45.9,36.9,45.3z M27,56.4c-1.5,0-2.7-1.2-2.7-2.7S25.5,51,27,51s2.7,1.2,2.7,2.7
			S28.5,56.4,27,56.4z M43.1,56.4c-1.5,0-2.7-1.2-2.7-2.7s1.2-2.7,2.7-2.7s2.7,1.2,2.7,2.7S44.6,56.4,43.1,56.4z"/>
		<path d="M67.8,25.7c-1.2-3.1-3.2-5.9-5.7-8.3c0.7-2,1.3-4.4,1.7-7.1c0.6-4.1,0.4-7.6,0-10.2c-1.7,1.2-3.9,3-6,5.9
			c-1.6,2.2-2.6,4.2-3.2,5.9c0,0.1,0.1,0.2,0.1,0.2c-5.8-3.1-12.9-4.9-20.6-4.9S19.3,8.9,13.5,12c0-0.1,0.1-0.2,0.1-0.2
			C13,10.1,12,8,10.4,5.9C8.3,3.1,6.1,1.2,4.4,0C4,2.6,3.8,6.1,4.4,10.2c0.4,2.7,1,5,1.7,7.1c-2.5,2.5-4.5,5.3-5.7,8.4
			c-1.4,3.5,1.4,7.3,5.6,7.3h4.8c0.7-3,2.5-5.1,4.7-5.1s4.1,2.1,4.7,5.1h26.9c0.7-3,2.5-5.1,4.7-5.1c2.2,0,4.1,2.1,4.7,5.1h5.6
			C66.3,32.9,69.2,29.2,67.8,25.7z M10.2,26.4c-0.1,1-0.5,1.8-0.9,1.7s-0.8-0.9-0.7-1.8c0.1-1,0.5-1.8,0.9-1.7S10.3,25.4,10.2,26.4z
			 M17.2,19.1c-0.3,0.2-0.9-0.5-1.3-1.5c-0.4-1-0.4-1.9-0.1-2.1s0.9,0.5,1.3,1.5C17.5,18,17.5,19,17.2,19.1z M20.9,26.4
			c-0.5,0.6-1.1,0.7-1.4,0.4c-0.3-0.3-0.1-1,0.3-1.5c0.5-0.6,1.1-0.7,1.4-0.4C21.5,25.1,21.4,25.8,20.9,26.4z M25.1,11.9
			c-0.4,0.7-1,1-1.4,0.8c-0.4-0.3-0.4-1,0-1.7s1-1,1.4-0.8C25.5,10.4,25.5,11.2,25.1,11.9z M31.1,23.4c-0.7,0.8-1.5,1.2-1.9,0.8
			c-0.4-0.4-0.1-1.3,0.6-2.2s1.5-1.2,1.9-0.8C32,21.7,31.8,22.6,31.1,23.4z M32.6,12.9c-0.7,0.7-1.5,0.9-1.8,0.6
			c-0.3-0.4,0.1-1.2,0.8-1.9c0.7-0.7,1.5-0.9,1.8-0.6S33.3,12.2,32.6,12.9z M41.2,26.7c-0.2,0.4-1,0.2-1.8-0.4
			c-0.7-0.6-1.2-1.4-0.9-1.7s1-0.2,1.8,0.4C41,25.6,41.4,26.3,41.2,26.7z M42.4,13.8c-0.2,0.3-1,0.1-1.9-0.5
			c-0.9-0.6-1.4-1.3-1.2-1.7s1-0.1,1.9,0.5S42.6,13.5,42.4,13.8z M44.5,22.2c-0.3,0.2-0.8-0.2-1.1-0.8C43,20.8,43,20.2,43.3,20
			s0.8,0.2,1.1,0.8C44.7,21.3,44.8,22,44.5,22.2z M50.1,16.6c-0.5-0.6-0.6-1.3-0.3-1.6c0.3-0.3,0.9,0,1.4,0.6
			c0.5,0.6,0.6,1.3,0.3,1.6C51.2,17.4,50.5,17.2,50.1,16.6z M54,26.3c-0.2,0.3-0.8,0.3-1.5-0.1c-0.7-0.4-1.1-0.9-0.9-1.3
			s0.8-0.3,1.5,0.1C53.7,25.4,54.2,26,54,26.3z M58.7,21.5c-0.8,0.7-1.6,1-1.8,0.7s0.2-1.1,1-1.8c0.8-0.7,1.6-1,1.8-0.7
			S59.4,20.9,58.7,21.5z"/>
		<path d="M64.6,60.5H49.3c-2.8,3.7-8.2,6.2-14.4,6.2s-11.6-2.5-14.4-6.2H4.4c-2.2,0-4,1.8-4,4v0.6c0,3.8,3.1,6.9,6.9,6.9h54.5
			c3.8,0,6.9-3.1,6.9-6.9v-0.6C68.7,62.3,66.9,60.5,64.6,60.5z"/>
		<path d="M18.4,54.5c0-2.8,1.2-5.3,3.3-7.3H5.6c-2.1,0-3.8,1.7-3.8,3.8v3.3c0,2.1,1.7,3.8,3.8,3.8h13.6
			C18.6,57.1,18.4,55.8,18.4,54.5z"/>
		<path d="M63.5,47.2H48.1c2.1,2.1,3.3,4.6,3.3,7.3c0,1.3-0.3,2.5-0.8,3.7h12.8c2.1,0,3.8-1.7,3.8-3.8V51
			C67.3,48.9,65.6,47.2,63.5,47.2z"/>
	</g>
	<g>
		<path d="M97,63.9H82.2V14.8h14.3l6,10.2l6-10.2h14.4v49.1h-14.8V39.3l-5.7,9.5L97,39.3V63.9z"/>
		<path d="M141.2,51.6h12.9v12.3h-27.7V14.8h27.7v12.3h-12.9v6.1h9v12.3h-9V51.6z"/>
		<path d="M173,55.5l-1.9,8.4h-15l11.9-49.1h21.1l11.3,49.1h-14.8l-1.9-8.4H173z M175.7,44h5.5l-2.7-12L175.7,44z"/>
		<path d="M220.1,63.9h-14.8V34.7h-7.4V14.8h29.6v19.9h-7.4L220.1,63.9L220.1,63.9z"/>
		<path d="M256.7,42.5v21.4H242V42.5l-12.7-27.7h15l5.1,11.1l5.1-11.1h14.9L256.7,42.5z"/>
	</g>
</g>
</svg>
