<?xml version="1.0" encoding="utf-8"?>
<!-- Generator: Adobe Illustrator 26.0.2, SVG Export Plug-In . SVG Version: 6.00 Build 0)  -->
<svg version="1.1" id="Layer_2_00000067233113045966583960000000331539758049893022_"
	 xmlns="http://www.w3.org/2000/svg" xmlns:xlink="http://www.w3.org/1999/xlink" x="0px" y="0px" viewBox="0 0 269.4 72"
	 style="enable-background:new 0 0 269.4 72;" xml:space="preserve">
<style type="text/css">
	.st0{fill:#871010;}
	.st1{fill:url(#SVGID_1_);}
	.st2{fill:url(#SVGID_00000136402533580134546560000015941064366320336540_);}
	.st3{fill:url(#SVGID_00000143582391589468940980000006347801505575655813_);}
	.st4{fill:#E3AFD0;}
	.st5{fill:#FFD630;}
	.st6{filter:url(#Adobe_OpacityMaskFilter);}
	.st7{opacity:0.22;mask:url(#SVGID_00000128463815681156455510000001895456905539119520_);}
	.st8{fill:#D73729;}
	.st9{filter:url(#Adobe_OpacityMaskFilter_00000054244535823199473250000012610961338347100580_);}
	.st10{opacity:0.5;mask:url(#SVGID_00000098915589880578221590000013826186162800289416_);}
	.st11{filter:url(#Adobe_OpacityMaskFilter_00000163753149156129984440000001411780305550421170_);}
	.st12{opacity:0.5;mask:url(#SVGID_00000140711569756725784310000009699644174216564385_);}
	.st13{fill:#FFF7E2;}
	.st14{filter:url(#Adobe_OpacityMaskFilter_00000039830568810208852840000010839492506575638923_);}
	.st15{opacity:0.75;mask:url(#SVGID_00000180353115115045438190000008733535988706006916_);}
	.st16{filter:url(#Adobe_OpacityMaskFilter_00000098190908924982736040000015908835911453026495_);}
	.st17{opacity:0.75;mask:url(#SVGID_00000038405424005367459440000018214306983199642247_);}
	.st18{filter:url(#Adobe_OpacityMaskFilter_00000025420326032040784070000017653415627570088874_);}
	.st19{opacity:0.75;mask:url(#SVGID_00000006665709288463082740000014264127562867330973_);}
	.st20{filter:url(#Adobe_OpacityMaskFilter_00000060740070557403030780000015416574889649661068_);}
	.st21{opacity:0.5;mask:url(#SVGID_00000118398060303995428690000004564768737030086065_);}
	.st22{filter:url(#Adobe_OpacityMaskFilter_00000140711170942306951130000005492876576052008610_);}
	.st23{opacity:0.75;mask:url(#SVGID_00000072270297783254291560000006545745350781887145_);}
	.st24{filter:url(#Adobe_OpacityMaskFilter_00000019656748598421892490000000814755256187799459_);}
	.st25{opacity:0.75;mask:url(#SVGID_00000161619299638220848140000003298268553938116006_);}
	.st26{filter:url(#Adobe_OpacityMaskFilter_00000046312191983431394350000004216213906577485201_);}
	.st27{opacity:0.75;mask:url(#SVGID_00000044868879767745743110000012265388825915600052_);}
	.st28{filter:url(#Adobe_OpacityMaskFilter_00000075140683976439575040000002009067158676486065_);}
	.st29{opacity:0.75;mask:url(#SVGID_00000171699795821360077340000012905463816097381539_);}
	.st30{filter:url(#Adobe_OpacityMaskFilter_00000016791764525434298000000004076044133893937805_);}
	.st31{opacity:0.75;mask:url(#SVGID_00000172433907080137819880000012109123079300574637_);}
	.st32{filter:url(#Adobe_OpacityMaskFilter_00000101080726328189785090000008016796038549345983_);}
	.st33{opacity:0.75;mask:url(#SVGID_00000147202907091586334870000013416502371482925452_);}
	.st34{filter:url(#Adobe_OpacityMaskFilter_00000169529762390623470570000017181960580259187878_);}
	.st35{opacity:0.75;mask:url(#SVGID_00000072269256094207875400000015806806255140012929_);}
	.st36{filter:url(#Adobe_OpacityMaskFilter_00000028315123769083613420000002240598455705346203_);}
	.st37{opacity:0.75;mask:url(#SVGID_00000057835010504287907600000006161063987707956404_);}
	.st38{fill:url(#SVGID_00000160156471957219362890000011580887729365654972_);}
	.st39{fill:#D83729;}
	.st40{filter:url(#Adobe_OpacityMaskFilter_00000183214690834685670580000012213392932458792351_);}
	.st41{opacity:0.35;mask:url(#SVGID_00000108277555683720557520000008416164547713224077_);}
	.st42{filter:url(#Adobe_OpacityMaskFilter_00000034091338360806891410000009582747542606382477_);}
	.st43{opacity:0.35;mask:url(#SVGID_00000103966348830178277210000008347604016461065106_);}
</style>
<g>
	<g>
		<path class="st0" d="M97,63.9H82.2V14.8h14.3l6,10.2l6-10.2h14.4v49.1h-14.8V39.3l-5.7,9.5L97,39.3V63.9z"/>
		<path class="st0" d="M141.2,51.6h12.9v12.3h-27.7V14.8h27.7v12.3h-12.9v6.1h9v12.3h-9V51.6z"/>
		<path class="st0" d="M173,55.5l-1.9,8.4h-15L168,14.8h21.1l11.3,49.1h-14.8l-1.9-8.4H173z M175.7,44h5.5l-2.7-12L175.7,44z"/>
		<path class="st0" d="M220.1,63.9h-14.8V34.7h-7.4V14.8h29.6v19.9h-7.4L220.1,63.9L220.1,63.9z"/>
		<path class="st0" d="M256.7,42.5v21.4H242V42.5l-12.7-27.7h15l5.1,11.1l5.1-11.1h14.9L256.7,42.5z"/>
	</g>
</g>
<g id="Complex_Logo_1">
	<g>
		
			<linearGradient id="SVGID_1_" gradientUnits="userSpaceOnUse" x1="56.6668" y1="68.3108" x2="65.3426" y2="64.2225" gradientTransform="matrix(1 0 0 -1 0 74)">
			<stop  offset="0" style="stop-color:#E2D9C3"/>
			<stop  offset="0.2894" style="stop-color:#F4F0E7"/>
			<stop  offset="0.4611" style="stop-color:#FFFFFF"/>
			<stop  offset="0.587" style="stop-color:#FCFBF8"/>
			<stop  offset="0.7657" style="stop-color:#F3EFE6"/>
			<stop  offset="0.9751" style="stop-color:#E4DCC7"/>
			<stop  offset="1" style="stop-color:#E2D9C3"/>
		</linearGradient>
		<path class="st1" d="M63.8,10.2c0.6-4.1,0.4-7.6,0-10.2c-1.7,1.2-3.9,3.1-6,5.9c-1.6,2.2-2.6,4.2-3.2,5.9c0,0.1,0.1,0.2,0.1,0.2
			c2.8,1.5,5.3,3.3,7.4,5.3C62.8,15.3,63.4,12.9,63.8,10.2z"/>
		
			<linearGradient id="SVGID_00000161591426947892509260000014906581825150179765_" gradientUnits="userSpaceOnUse" x1="10.5473" y1="67.8369" x2="3.3151" y2="64.4416" gradientTransform="matrix(1 0 0 -1 0 74)">
			<stop  offset="0" style="stop-color:#E2D9C3"/>
			<stop  offset="0.147" style="stop-color:#EFEADD"/>
			<stop  offset="0.3213" style="stop-color:#FBF9F6"/>
			<stop  offset="0.4276" style="stop-color:#FFFFFF"/>
			<stop  offset="0.5613" style="stop-color:#FCFBF8"/>
			<stop  offset="0.7511" style="stop-color:#F3EFE6"/>
			<stop  offset="0.9735" style="stop-color:#E4DCC7"/>
			<stop  offset="1" style="stop-color:#E2D9C3"/>
		</linearGradient>
		<path style="fill:url(#SVGID_00000161591426947892509260000014906581825150179765_);" d="M13.7,11.7C13,10.1,12,8,10.4,5.9
			c-2-2.8-4.3-4.7-6-5.9C4,2.6,3.8,6.1,4.4,10.2c0.4,2.7,1,5,1.7,7.1c2.1-2,4.6-3.8,7.4-5.3C13.6,11.9,13.6,11.8,13.7,11.7z"/>
		
			<linearGradient id="SVGID_00000083803423511282075340000009717283943976080059_" gradientUnits="userSpaceOnUse" x1="34.2385" y1="66.9002" x2="34.0363" y2="37.1752" gradientTransform="matrix(1 0 0 -1 0 74)">
			<stop  offset="0" style="stop-color:#F5AC63"/>
			<stop  offset="0.1232" style="stop-color:#F4A658"/>
			<stop  offset="0.3497" style="stop-color:#F39E48"/>
			<stop  offset="0.6136" style="stop-color:#F2993F"/>
			<stop  offset="1" style="stop-color:#F2973D"/>
		</linearGradient>
		<path style="fill:url(#SVGID_00000083803423511282075340000009717283943976080059_);" d="M67.8,25.6c-1.2-3.1-3.2-5.9-5.7-8.3
			c-2.1-2-4.6-3.8-7.4-5.3c-5.8-3.1-12.9-4.9-20.6-4.9S19.3,8.9,13.5,12c-2.8,1.5-5.3,3.3-7.4,5.3c-2.6,2.5-4.5,5.3-5.7,8.3
			C-1,29.2,1.8,32.9,6,32.9h4.8c0.7-3,2.5-5.1,4.7-5.1s4.1,2.1,4.7,5.1h26.9c0.7-3,2.5-5.1,4.7-5.1s4.1,2.1,4.7,5.1h5.6
			C66.4,32.9,69.2,29.2,67.8,25.6z"/>
	</g>
	<g>
		<path class="st4" d="M36.9,45.3c-0.1,0-0.1,0-0.2,0c-0.2,0-0.5,0-0.7,0c-0.1,0-0.2,0-0.2,0c-0.3,0-0.6,0-0.9,0c-0.3,0-0.6,0-0.9,0
			c-0.1,0-0.2,0-0.2,0c-0.2,0-0.5,0-0.7,0c-0.1,0-0.1,0-0.2,0c-7.1,0.6-12.6,4.6-12.6,9.3c0,5.2,6.5,9.4,14.5,9.4s14.5-4.2,14.5-9.4
			C49.5,49.8,44,45.9,36.9,45.3z"/>
		<g>
			<g>
				<path class="st5" d="M63.9,35.8H57c-0.1,4.1-2.3,7.3-5,7.3s-4.9-3.2-5-7.3H20.5c-0.1,4.1-2.3,7.3-5,7.3s-4.9-3.2-5-7.3H5.3
					c-1.9,0-3.5,1.6-3.5,3.5v2.2c0,1.9,1.6,3.5,3.5,3.5h19.4c2.8-1.7,6.4-2.7,10.3-2.7s7.5,1,10.3,2.7h18.6c1.9,0,3.5-1.6,3.5-3.5
					v-2.2C67.4,37.4,65.8,35.8,63.9,35.8z"/>
			</g>
			<defs>
				<filter id="Adobe_OpacityMaskFilter" filterUnits="userSpaceOnUse" x="1.8" y="35.8" width="65.6" height="9.2">
					<feColorMatrix  type="matrix" values="1 0 0 0 0  0 1 0 0 0  0 0 1 0 0  0 0 0 1 0"/>
				</filter>
			</defs>
			
				<mask maskUnits="userSpaceOnUse" x="1.8" y="35.8" width="65.6" height="9.2" id="SVGID_00000128463815681156455510000001895456905539119520_">
				<g class="st6">
					
						<image style="overflow:visible;enable-background:new    ;" width="296" height="63" xlink:href="../Code/Style Guide/Styleguide/assets/FE1BE979.jpg"  transform="matrix(0.235 0 0 0.235 -0.1016 32.9171)">
					</image>
				</g>
			</mask>
			<g class="st7">
				<path d="M63.9,35.8H57c-0.1,4.1-2.3,7.3-5,7.3s-4.9-3.2-5-7.3H20.5c-0.1,4.1-2.3,7.3-5,7.3s-4.9-3.2-5-7.3H5.3
					c-1.9,0-3.5,1.6-3.5,3.5v2.2c0,1.9,1.6,3.5,3.5,3.5h19.4c2.8-1.7,6.4-2.7,10.3-2.7s7.5,1,10.3,2.7h18.6c1.9,0,3.5-1.6,3.5-3.5
					v-2.2C67.4,37.4,65.8,35.8,63.9,35.8z"/>
			</g>
		</g>
	</g>
	<g>
		<g>
			<g>
				<circle class="st8" cx="43" cy="54.5" r="2.7"/>
			</g>
			<defs>
				
					<filter id="Adobe_OpacityMaskFilter_00000073718458458499263730000003844123823619328443_" filterUnits="userSpaceOnUse" x="40.3" y="51.8" width="5.4" height="5.4">
					<feColorMatrix  type="matrix" values="1 0 0 0 0  0 1 0 0 0  0 0 1 0 0  0 0 0 1 0"/>
				</filter>
			</defs>
			
				<mask maskUnits="userSpaceOnUse" x="40.3" y="51.8" width="5.4" height="5.4" id="SVGID_00000098915589880578221590000013826186162800289416_">
				<g style="filter:url(#Adobe_OpacityMaskFilter_00000073718458458499263730000003844123823619328443_);">
					
						<image style="overflow:visible;enable-background:new    ;" width="42" height="46" xlink:href="../Code/Style Guide/Styleguide/assets/FE1BE97B.jpg"  transform="matrix(0.218 0 0 0.218 38.3829 49.467)">
					</image>
				</g>
			</mask>
			<g class="st10">
				<circle cx="43" cy="54.5" r="2.7"/>
			</g>
		</g>
		<g>
			<g>
				<circle class="st8" cx="26.9" cy="54.5" r="2.7"/>
			</g>
			<defs>
				
					<filter id="Adobe_OpacityMaskFilter_00000039819280281771419580000013450640799279842695_" filterUnits="userSpaceOnUse" x="24.2" y="51.8" width="5.4" height="5.4">
					<feColorMatrix  type="matrix" values="1 0 0 0 0  0 1 0 0 0  0 0 1 0 0  0 0 0 1 0"/>
				</filter>
			</defs>
			
				<mask maskUnits="userSpaceOnUse" x="24.2" y="51.8" width="5.4" height="5.4" id="SVGID_00000140711569756725784310000009699644174216564385_">
				<g style="filter:url(#Adobe_OpacityMaskFilter_00000039819280281771419580000013450640799279842695_);">
					
						<image style="overflow:visible;enable-background:new    ;" width="42" height="46" xlink:href="../Code/Style Guide/Styleguide/assets/FE1BE97E.jpg"  transform="matrix(0.218 0 0 0.218 22.3029 49.467)">
					</image>
				</g>
			</mask>
			<g class="st12">
				<circle cx="26.9" cy="54.5" r="2.7"/>
			</g>
		</g>
	</g>
	<g id="Seasame_00000170994378535478269830000010530590542257071007_">
		<g>
			<g>
				
					<ellipse transform="matrix(0.5777 -0.8163 0.8163 0.5777 6.8878 38.7186)" class="st13" cx="40.9" cy="12.7" rx="0.7" ry="1.9"/>
			</g>
			<defs>
				
					<filter id="Adobe_OpacityMaskFilter_00000000207467096476416160000015813813594300771985_" filterUnits="userSpaceOnUse" x="39.3" y="11.5" width="3.2" height="2.5">
					<feColorMatrix  type="matrix" values="1 0 0 0 0  0 1 0 0 0  0 0 1 0 0  0 0 0 1 0"/>
				</filter>
			</defs>
			
				<mask maskUnits="userSpaceOnUse" x="39.3" y="11.5" width="3.2" height="2.5" id="SVGID_00000180353115115045438190000008733535988706006916_">
				<g style="filter:url(#Adobe_OpacityMaskFilter_00000000207467096476416160000015813813594300771985_);">
					
						<image style="overflow:visible;enable-background:new    ;" width="33" height="33" xlink:href="../Code/Style Guide/Styleguide/assets/FE1BE97F.jpg"  transform="matrix(0.2148 0 0 0.2148 37.3754 9.1754)">
					</image>
				</g>
			</mask>
			<g class="st15">
				<ellipse transform="matrix(0.5777 -0.8163 0.8163 0.5777 6.8878 38.7186)" cx="40.9" cy="12.7" rx="0.7" ry="1.9"/>
			</g>
		</g>
		<g>
			<g>
				
					<ellipse transform="matrix(0.8928 -0.4504 0.4504 0.8928 -4.7946 22.0377)" class="st13" cx="43.9" cy="21.1" rx="0.6" ry="1.3"/>
			</g>
			<defs>
				
					<filter id="Adobe_OpacityMaskFilter_00000049209350672994035480000004551801208692006564_" filterUnits="userSpaceOnUse" x="43.1" y="19.9" width="1.6" height="2.4">
					<feColorMatrix  type="matrix" values="1 0 0 0 0  0 1 0 0 0  0 0 1 0 0  0 0 0 1 0"/>
				</filter>
			</defs>
			
				<mask maskUnits="userSpaceOnUse" x="43.1" y="19.9" width="1.6" height="2.4" id="SVGID_00000038405424005367459440000018214306983199642247_">
				<g style="filter:url(#Adobe_OpacityMaskFilter_00000049209350672994035480000004551801208692006564_);">
					
						<image style="overflow:visible;enable-background:new    ;" width="25" height="33" xlink:href="../Code/Style Guide/Styleguide/assets/FE1BE97A.jpg"  transform="matrix(0.2138 0 0 0.2138 41.2477 17.5926)">
					</image>
				</g>
			</mask>
			<g class="st17">
				<ellipse transform="matrix(0.8928 -0.4504 0.4504 0.8928 -4.7946 22.0377)" cx="43.9" cy="21.1" rx="0.6" ry="1.3"/>
			</g>
		</g>
		<g>
			<g>
				
					<ellipse transform="matrix(0.7041 -0.7101 0.7101 0.7041 0.8348 26.4063)" class="st13" cx="32.1" cy="12.2" rx="1.8" ry="0.8"/>
			</g>
			<defs>
				
					<filter id="Adobe_OpacityMaskFilter_00000153701392845272031990000001447848238802306196_" filterUnits="userSpaceOnUse" x="30.7" y="10.8" width="2.8" height="2.8">
					<feColorMatrix  type="matrix" values="1 0 0 0 0  0 1 0 0 0  0 0 1 0 0  0 0 0 1 0"/>
				</filter>
			</defs>
			
				<mask maskUnits="userSpaceOnUse" x="30.7" y="10.8" width="2.8" height="2.8" id="SVGID_00000006665709288463082740000014264127562867330973_">
				<g style="filter:url(#Adobe_OpacityMaskFilter_00000153701392845272031990000001447848238802306196_);">
					
						<image style="overflow:visible;enable-background:new    ;" width="33" height="33" xlink:href="../Code/Style Guide/Styleguide/assets/FE1BE975.jpg"  transform="matrix(0.2146 0 0 0.2146 28.4995 8.6995)">
					</image>
				</g>
			</mask>
			<g class="st19">
				<ellipse transform="matrix(0.7041 -0.7101 0.7101 0.7041 0.8348 26.4063)" cx="32.1" cy="12.2" rx="1.8" ry="0.8"/>
			</g>
		</g>
		<g>
			<g>
				<ellipse transform="matrix(0.6195 -0.785 0.785 0.6195 -6.2487 32.6154)" class="st13" cx="30.5" cy="22.8" rx="1.9" ry="0.9"/>
			</g>
			<defs>
				
					<filter id="Adobe_OpacityMaskFilter_00000101824158421285065660000012680434032735909812_" filterUnits="userSpaceOnUse" x="29.1" y="21.2" width="2.7" height="3.2">
					<feColorMatrix  type="matrix" values="1 0 0 0 0  0 1 0 0 0  0 0 1 0 0  0 0 0 1 0"/>
				</filter>
			</defs>
			
				<mask maskUnits="userSpaceOnUse" x="29.1" y="21.2" width="2.7" height="3.2" id="SVGID_00000118398060303995428690000004564768737030086065_">
				<g style="filter:url(#Adobe_OpacityMaskFilter_00000101824158421285065660000012680434032735909812_);">
					
						<image style="overflow:visible;enable-background:new    ;" width="38" height="38" xlink:href="../Code/Style Guide/Styleguide/assets/FE1BE976.jpg"  transform="matrix(0.1927 0 0 0.1927 26.8195 19.0195)">
					</image>
				</g>
			</mask>
			<g class="st21">
				<ellipse transform="matrix(0.6195 -0.785 0.785 0.6195 -6.2487 32.6154)" cx="30.5" cy="22.8" rx="1.9" ry="0.9"/>
			</g>
		</g>
		<g>
			<g>
				
					<ellipse transform="matrix(0.4413 -0.8974 0.8974 0.4413 3.4539 28.3404)" class="st13" cx="24.5" cy="11.4" rx="1.4" ry="0.8"/>
			</g>
			<defs>
				
					<filter id="Adobe_OpacityMaskFilter_00000127003645238949300210000001445867712533351579_" filterUnits="userSpaceOnUse" x="23.5" y="10.1" width="1.9" height="2.6">
					<feColorMatrix  type="matrix" values="1 0 0 0 0  0 1 0 0 0  0 0 1 0 0  0 0 0 1 0"/>
				</filter>
			</defs>
			
				<mask maskUnits="userSpaceOnUse" x="23.5" y="10.1" width="1.9" height="2.6" id="SVGID_00000072270297783254291560000006545745350781887145_">
				<g style="filter:url(#Adobe_OpacityMaskFilter_00000127003645238949300210000001445867712533351579_);">
					
						<image style="overflow:visible;enable-background:new    ;" width="29" height="33" xlink:href="../Code/Style Guide/Styleguide/assets/FE1BE977.jpg"  transform="matrix(0.2128 0 0 0.2128 21.3947 7.8892)">
					</image>
				</g>
			</mask>
			<g class="st23">
				<ellipse transform="matrix(0.4413 -0.8974 0.8974 0.4413 3.4539 28.3404)" cx="24.5" cy="11.4" rx="1.4" ry="0.8"/>
			</g>
		</g>
		<g>
			<g>
				
					<ellipse transform="matrix(0.9343 -0.3565 0.3565 0.9343 -5.0885 7.0146)" class="st13" cx="16.5" cy="17.3" rx="0.7" ry="1.9"/>
			</g>
			<defs>
				
					<filter id="Adobe_OpacityMaskFilter_00000094611692060468964480000010187994387360609162_" filterUnits="userSpaceOnUse" x="15.5" y="15.5" width="1.9" height="3.6">
					<feColorMatrix  type="matrix" values="1 0 0 0 0  0 1 0 0 0  0 0 1 0 0  0 0 0 1 0"/>
				</filter>
			</defs>
			
				<mask maskUnits="userSpaceOnUse" x="15.5" y="15.5" width="1.9" height="3.6" id="SVGID_00000161619299638220848140000003298268553938116006_">
				<g style="filter:url(#Adobe_OpacityMaskFilter_00000094611692060468964480000010187994387360609162_);">
					
						<image style="overflow:visible;enable-background:new    ;" width="29" height="38" xlink:href="../Code/Style Guide/Styleguide/assets/FE1BE989.jpg"  transform="matrix(0.2109 0 0 0.2109 13.5015 13.3923)">
					</image>
				</g>
			</mask>
			<g class="st25">
				<ellipse transform="matrix(0.9343 -0.3565 0.3565 0.9343 -5.0885 7.0146)" cx="16.5" cy="17.3" rx="0.7" ry="1.9"/>
			</g>
		</g>
		<g>
			<g>
				
					<ellipse transform="matrix(5.417177e-02 -0.9985 0.9985 5.417177e-02 -17.4049 34.3184)" class="st13" cx="9.4" cy="26.3" rx="1.8" ry="0.8"/>
			</g>
			<defs>
				
					<filter id="Adobe_OpacityMaskFilter_00000090295537791831450640000017929870935566628269_" filterUnits="userSpaceOnUse" x="8.6" y="24.5" width="1.6" height="3.6">
					<feColorMatrix  type="matrix" values="1 0 0 0 0  0 1 0 0 0  0 0 1 0 0  0 0 0 1 0"/>
				</filter>
			</defs>
			
				<mask maskUnits="userSpaceOnUse" x="8.6" y="24.5" width="1.6" height="3.6" id="SVGID_00000044868879767745743110000012265388825915600052_">
				<g style="filter:url(#Adobe_OpacityMaskFilter_00000090295537791831450640000017929870935566628269_);">
					
						<image style="overflow:visible;enable-background:new    ;" width="29" height="38" xlink:href="../Code/Style Guide/Styleguide/assets/BA08BE82.jpg"  transform="matrix(0.2079 0 0 0.2079 6.466 22.3306)">
					</image>
				</g>
			</mask>
			<g class="st27">
				
					<ellipse transform="matrix(5.417177e-02 -0.9985 0.9985 5.417177e-02 -17.4049 34.3184)" cx="9.4" cy="26.3" rx="1.8" ry="0.8"/>
			</g>
		</g>
		<g>
			<g>
				
					<ellipse transform="matrix(0.6396 -0.7687 0.7687 0.6396 -5.3144 39.8859)" class="st13" cx="39.9" cy="25.6" rx="0.8" ry="1.7"/>
			</g>
			<defs>
				
					<filter id="Adobe_OpacityMaskFilter_00000179630768750434638420000009264611911974484911_" filterUnits="userSpaceOnUse" x="38.5" y="24.4" width="2.8" height="2.5">
					<feColorMatrix  type="matrix" values="1 0 0 0 0  0 1 0 0 0  0 0 1 0 0  0 0 0 1 0"/>
				</filter>
			</defs>
			
				<mask maskUnits="userSpaceOnUse" x="38.5" y="24.4" width="2.8" height="2.5" id="SVGID_00000171699795821360077340000012905463816097381539_">
				<g style="filter:url(#Adobe_OpacityMaskFilter_00000179630768750434638420000009264611911974484911_);">
					
						<image style="overflow:visible;enable-background:new    ;" width="33" height="33" xlink:href="../Code/Style Guide/Styleguide/assets/BA08BE85.jpg"  transform="matrix(0.2073 0 0 0.2073 36.5395 22.2595)">
					</image>
				</g>
			</mask>
			<g class="st29">
				<ellipse transform="matrix(0.6396 -0.7687 0.7687 0.6396 -5.3144 39.8859)" cx="39.9" cy="25.6" rx="0.8" ry="1.7"/>
			</g>
		</g>
		<g>
			<g>
				
					<ellipse transform="matrix(0.6082 -0.7938 0.7938 0.6082 -12.5043 26.2965)" class="st13" cx="20.4" cy="25.8" rx="1.3" ry="0.8"/>
			</g>
			<defs>
				
					<filter id="Adobe_OpacityMaskFilter_00000106113832234346295680000010109702913643779213_" filterUnits="userSpaceOnUse" x="19.4" y="24.7" width="2" height="2.3">
					<feColorMatrix  type="matrix" values="1 0 0 0 0  0 1 0 0 0  0 0 1 0 0  0 0 0 1 0"/>
				</filter>
			</defs>
			
				<mask maskUnits="userSpaceOnUse" x="19.4" y="24.7" width="2" height="2.3" id="SVGID_00000172433907080137819880000012109123079300574637_">
				<g style="filter:url(#Adobe_OpacityMaskFilter_00000106113832234346295680000010109702913643779213_);">
					
						<image style="overflow:visible;enable-background:new    ;" width="29" height="33" xlink:href="../Code/Style Guide/Styleguide/assets/BA08BE86.jpg"  transform="matrix(0.2048 0 0 0.2048 17.4308 22.4213)">
					</image>
				</g>
			</mask>
			<g class="st31">
				<ellipse transform="matrix(0.6082 -0.7938 0.7938 0.6082 -12.5043 26.2965)" cx="20.4" cy="25.8" rx="1.3" ry="0.8"/>
			</g>
		</g>
		<g>
			<g>
				<ellipse transform="matrix(0.5062 -0.8624 0.8624 0.5062 3.9486 58.159)" class="st13" cx="52.8" cy="25.6" rx="0.7" ry="1.4"/>
			</g>
			<defs>
				
					<filter id="Adobe_OpacityMaskFilter_00000103970611437024135150000006677978704490502065_" filterUnits="userSpaceOnUse" x="51.5" y="24.7" width="2.5" height="1.9">
					<feColorMatrix  type="matrix" values="1 0 0 0 0  0 1 0 0 0  0 0 1 0 0  0 0 0 1 0"/>
				</filter>
			</defs>
			
				<mask maskUnits="userSpaceOnUse" x="51.5" y="24.7" width="2.5" height="1.9" id="SVGID_00000147202907091586334870000013416502371482925452_">
				<g style="filter:url(#Adobe_OpacityMaskFilter_00000103970611437024135150000006677978704490502065_);">
					
						<image style="overflow:visible;enable-background:new    ;" width="33" height="29" xlink:href="../Code/Style Guide/Styleguide/assets/BA08BE84.jpg"  transform="matrix(0.2087 0 0 0.2087 49.3558 22.6532)">
					</image>
				</g>
			</mask>
			<g class="st33">
				<ellipse transform="matrix(0.5062 -0.8624 0.8624 0.5062 3.9486 58.159)" cx="52.8" cy="25.6" rx="0.7" ry="1.4"/>
			</g>
		</g>
		<g>
			<g>
				<ellipse transform="matrix(0.7282 -0.6853 0.6853 0.7282 1.4621 45.6581)" class="st13" cx="58.3" cy="21" rx="1.9" ry="0.7"/>
			</g>
			<defs>
				
					<filter id="Adobe_OpacityMaskFilter_00000132046036833655670290000016319440385881267603_" filterUnits="userSpaceOnUse" x="56.8" y="19.6" width="2.9" height="2.8">
					<feColorMatrix  type="matrix" values="1 0 0 0 0  0 1 0 0 0  0 0 1 0 0  0 0 0 1 0"/>
				</filter>
			</defs>
			
				<mask maskUnits="userSpaceOnUse" x="56.8" y="19.6" width="2.9" height="2.8" id="SVGID_00000072269256094207875400000015806806255140012929_">
				<g style="filter:url(#Adobe_OpacityMaskFilter_00000132046036833655670290000016319440385881267603_);">
					
						<image style="overflow:visible;enable-background:new    ;" width="33" height="33" xlink:href="../Code/Style Guide/Styleguide/assets/BA08BE83.jpg"  transform="matrix(0.2146 0 0 0.2146 54.7795 17.4595)">
					</image>
				</g>
			</mask>
			<g class="st35">
				<ellipse transform="matrix(0.7282 -0.6853 0.6853 0.7282 1.4621 45.6581)" cx="58.3" cy="21" rx="1.9" ry="0.7"/>
			</g>
		</g>
		<g>
			<g>
				
					<ellipse transform="matrix(0.8065 -0.5913 0.5913 0.8065 0.2781 33.0519)" class="st13" cx="50.6" cy="16.1" rx="0.7" ry="1.4"/>
			</g>
			<defs>
				
					<filter id="Adobe_OpacityMaskFilter_00000088848708326043134080000005240479598280569489_" filterUnits="userSpaceOnUse" x="49.6" y="14.9" width="2" height="2.4">
					<feColorMatrix  type="matrix" values="1 0 0 0 0  0 1 0 0 0  0 0 1 0 0  0 0 0 1 0"/>
				</filter>
			</defs>
			
				<mask maskUnits="userSpaceOnUse" x="49.6" y="14.9" width="2" height="2.4" id="SVGID_00000057835010504287907600000006161063987707956404_">
				<g style="filter:url(#Adobe_OpacityMaskFilter_00000088848708326043134080000005240479598280569489_);">
					
						<image style="overflow:visible;enable-background:new    ;" width="29" height="33" xlink:href="../Code/Style Guide/Styleguide/assets/BA08BE9D.jpg"  transform="matrix(0.2087 0 0 0.2087 47.6132 12.6358)">
					</image>
				</g>
			</mask>
			<g class="st37">
				<ellipse transform="matrix(0.8065 -0.5913 0.5913 0.8065 0.2781 33.0519)" cx="50.6" cy="16.1" rx="0.7" ry="1.4"/>
			</g>
		</g>
	</g>
	
		<linearGradient id="SVGID_00000023261995722187771960000003829854938068409004_" gradientUnits="userSpaceOnUse" x1="34.65" y1="2" x2="34.65" y2="13.4868" gradientTransform="matrix(1 0 0 -1 0 74)">
		<stop  offset="0" style="stop-color:#F5B16D"/>
		<stop  offset="0.3094" style="stop-color:#F4A759"/>
		<stop  offset="0.7256" style="stop-color:#F29B44"/>
		<stop  offset="1" style="stop-color:#F2973D"/>
	</linearGradient>
	<path style="fill:url(#SVGID_00000023261995722187771960000003829854938068409004_);" d="M64.7,60.5H49.4
		c-2.8,3.7-8.2,6.2-14.4,6.2s-11.6-2.5-14.4-6.2H4.5c-2.2,0-4,1.8-4,4v0.6c0,3.8,3.1,6.9,6.9,6.9h54.5c3.8,0,6.9-3.1,6.9-6.9v-0.6
		C68.7,62.3,66.9,60.5,64.7,60.5z"/>
	<g>
		<g>
			<path class="st39" d="M18.4,54.5c0-2.8,1.3-5.3,3.4-7.4H5.6c-2.1,0-3.9,1.7-3.9,3.9v3.3c0,2.1,1.7,3.9,3.9,3.9h13.6
				C18.7,57.1,18.4,55.8,18.4,54.5z"/>
		</g>
		<defs>
			
				<filter id="Adobe_OpacityMaskFilter_00000116227978310064388690000004934280343880888207_" filterUnits="userSpaceOnUse" x="1.7" y="47.1" width="20.1" height="11.1">
				<feColorMatrix  type="matrix" values="1 0 0 0 0  0 1 0 0 0  0 0 1 0 0  0 0 0 1 0"/>
			</filter>
		</defs>
		
			<mask maskUnits="userSpaceOnUse" x="1.7" y="47.1" width="20.1" height="11.1" id="SVGID_00000108277555683720557520000008416164547713224077_">
			<g style="filter:url(#Adobe_OpacityMaskFilter_00000116227978310064388690000004934280343880888207_);">
				
					<image style="overflow:visible;enable-background:new    ;" width="104" height="67" xlink:href="../Code/Style Guide/Styleguide/assets/BA08BE9E.jpg"  transform="matrix(0.2293 0 0 0.2293 -0.1629 44.9989)">
				</image>
			</g>
		</mask>
		<g class="st41">
			<path d="M18.4,54.5c0-2.8,1.3-5.3,3.4-7.4H5.6c-2.1,0-3.9,1.7-3.9,3.9v3.3c0,2.1,1.7,3.9,3.9,3.9h13.6
				C18.7,57.1,18.4,55.8,18.4,54.5z"/>
		</g>
	</g>
	<g>
		<g>
			<path class="st8" d="M63.5,47.2H48.1c2.1,2,3.4,4.6,3.4,7.4c0,1.3-0.3,2.5-0.8,3.7h12.8c2.1,0,3.9-1.7,3.9-3.9V51
				C67.4,48.9,65.6,47.2,63.5,47.2z"/>
		</g>
		<defs>
			
				<filter id="Adobe_OpacityMaskFilter_00000066483004997106845660000011268703942560936380_" filterUnits="userSpaceOnUse" x="48.1" y="47.2" width="19.3" height="11.1">
				<feColorMatrix  type="matrix" values="1 0 0 0 0  0 1 0 0 0  0 0 1 0 0  0 0 0 1 0"/>
			</filter>
		</defs>
		
			<mask maskUnits="userSpaceOnUse" x="48.1" y="47.2" width="19.3" height="11.1" id="SVGID_00000103966348830178277210000008347604016461065106_">
			<g style="filter:url(#Adobe_OpacityMaskFilter_00000066483004997106845660000011268703942560936380_);">
				
					<image style="overflow:visible;enable-background:new    ;" width="100" height="67" xlink:href="../Code/Style Guide/Styleguide/assets/BA08BE9C.jpg"  transform="matrix(0.2323 0 0 0.2323 46.2255 44.8983)">
				</image>
			</g>
		</mask>
		<g class="st43">
			<path d="M63.5,47.2H48.1c2.1,2,3.4,4.6,3.4,7.4c0,1.3-0.3,2.5-0.8,3.7h12.8c2.1,0,3.9-1.7,3.9-3.9V51
				C67.4,48.9,65.6,47.2,63.5,47.2z"/>
		</g>
	</g>
</g>
</svg>
