<svg xmlns="http://www.w3.org/2000/svg" viewBox="0 0 601.07 78.7"><defs><style>.cls-1{fill:#999;}.cls-2{fill:#ccc;}.cls-3{fill:#666;}.cls-4{fill:#3e3e3e;}.cls-5{fill:#b3b3b3;}</style></defs><g id="Layer_2" data-name="Layer 2"><g id="knife"><path class="cls-1" d="M338.14,78.35a10.12,10.12,0,0,1-2.24.35A6.41,6.41,0,0,0,338.14,78.35Z"/><path class="cls-1" d="M29.19,37.16A207.49,207.49,0,0,1,0,23.49S7.86,29.29,29.19,37.16Z"/><path class="cls-1" d="M345.21,15.13h-.31V8.37h.15L345,6c-.11-2.46-.17-4-.17-4S48-9.66,0,23.49c0,0,247.12,48.8,341.72,39.51l.74,9.4.24-14.59a6.39,6.39,0,0,1,.56-2.54,10.67,10.67,0,0,1,1.61-2.59,6.78,6.78,0,0,0,1.91-4.78,17,17,0,0,1-1-5.3Zm-9.5-4.32L88.22,9.22c37.54-9.39,248.24-1,248.24-1Z"/><path class="cls-2" d="M0,23.49A207.49,207.49,0,0,0,29.19,37.16C137,78.68,335.9,78.7,335.9,78.7a10.12,10.12,0,0,0,2.24-.35,5.84,5.84,0,0,0,4.32-5.95l-.74-9.4C247.12,72.29,0,23.49,0,23.49Z"/><path class="cls-2" d="M88.22,9.22l247.49,1.59.75-2.62S125.76-.17,88.22,9.22Z"/><path class="cls-3" d="M344.91,2,345,6l.05,2.42h72.41v6.76H345.21l.61,27.47a17,17,0,0,0,23.89,15.15c1.6-.74,3.31-1.62,5.12-2.66a25.43,25.43,0,0,0,5.16-4c3.84-3.76,12.41-14,37.94-9.42V29.58L417.65,3.3Z"/><path class="cls-4" d="M594.38,23.3a27,27,0,0,0-8.24-10.66C581.61,9.14,574.7,5,566.32,3.72a20.47,20.47,0,0,0-3-.19L417.65,3.12V3.3l.28,26.28.13,12.18s61.25,23,119.62,4.11c0,0,22.7-12.25,39.42,7.77a16.71,16.71,0,0,0,14.38,6.18C599.47,59,606.88,52.16,594.38,23.3ZM450.67,29.79a8,8,0,1,1,8-8A8,8,0,0,1,450.67,29.79Zm76.64,1.78a8,8,0,1,1,8-8A8,8,0,0,1,527.31,31.57Z"/><polygon class="cls-5" points="344.9 15.13 345.21 15.13 417.46 15.13 417.46 8.38 345.05 8.38 344.9 8.38 344.9 15.13"/><path class="cls-5" d="M450.67,13.74a8,8,0,1,0,8,8A8,8,0,0,0,450.67,13.74Z"/><circle class="cls-5" cx="527.31" cy="23.54" r="8.02"/></g></g></svg>