<?xml version="1.0" encoding="utf-8"?>
<!-- Generator: Adobe Illustrator 26.0.2, SVG Export Plug-In . SVG Version: 6.00 Build 0)  -->
<svg version="1.1" id="Layer_2" xmlns="http://www.w3.org/2000/svg" xmlns:xlink="http://www.w3.org/1999/xlink" x="0px" y="0px"
	 viewBox="0 0 111.5 117" style="enable-background:new 0 0 111.5 117;" xml:space="preserve">
<g>
	<g id="Colour_Logo_1_00000078035946992990886140000007217662550543091893_">
		<path d="M103.7,58.1H92.4c-0.2,6.7-3.7,11.9-8.1,11.9c-4.4,0-8-5.2-8.1-11.9H33.3c-0.2,6.7-3.7,11.9-8.1,11.9s-8-5.2-8.1-11.9H8.5
			c-3.2,0-5.7,2.6-5.7,5.7v3.5c0,3.2,2.6,5.7,5.7,5.7H40c4.6-2.7,10.4-4.3,16.7-4.3s12.1,1.6,16.7,4.3h30.3c3.2,0,5.7-2.6,5.7-5.7
			v-3.5C109.4,60.7,106.8,58.1,103.7,58.1z"/>
		<path d="M59.9,73.5c-0.1,0-0.2,0-0.3,0c-0.4,0-0.8-0.1-1.1-0.1c-0.1,0-0.2,0-0.4,0c-0.5,0-0.9,0-1.4,0c-0.5,0-1,0-1.4,0
			c-0.1,0-0.2,0-0.4,0c-0.4,0-0.8,0-1.1,0.1c-0.1,0-0.2,0-0.3,0c-11.5,1-20.4,7.4-20.4,15.1c0,8.4,10.6,15.2,23.6,15.2
			S80.3,97,80.3,88.6C80.3,80.9,71.4,74.5,59.9,73.5z M43.9,91.7c-2.4,0-4.4-2-4.4-4.4s2-4.4,4.4-4.4s4.4,2,4.4,4.4
			C48.3,89.7,46.3,91.7,43.9,91.7z M70,91.7c-2.4,0-4.4-2-4.4-4.4s2-4.4,4.4-4.4s4.4,2,4.4,4.4C74.4,89.7,72.4,91.7,70,91.7z"/>
		<path d="M110.1,41.7c-2-5-5.2-9.5-9.3-13.6c1.1-3.3,2.2-7.1,2.8-11.5c0.9-6.7,0.6-12.4,0-16.6c-2.7,1.9-6.4,5-9.7,9.5
			c-2.6,3.5-4.2,6.9-5.3,9.5c0.1,0.1,0.1,0.3,0.2,0.4c-9.4-5-20.9-8-33.4-8s-24,3-33.4,8c0.1-0.1,0.1-0.3,0.2-0.4
			c-1.1-2.7-2.7-6-5.3-9.5C13.5,5,9.8,1.9,7.1,0c-0.6,4.2-0.9,10,0,16.6c0.6,4.3,1.6,8.2,2.8,11.5c-4.2,4-7.3,8.6-9.3,13.6
			c-2.3,5.7,2.3,11.8,9.1,11.8h7.8c1.1-4.9,4.1-8.3,7.7-8.3s6.6,3.4,7.7,8.3h43.7c1.1-4.9,4.1-8.3,7.7-8.3s6.6,3.4,7.7,8.3h9.1
			C107.8,53.5,112.4,47.4,110.1,41.7z M16.6,42.9c-0.1,1.6-0.8,2.8-1.5,2.8c-0.8-0.1-1.3-1.4-1.2-3c0.1-1.6,0.8-2.8,1.5-2.8
			C16.2,39.9,16.7,41.3,16.6,42.9z M27.9,31.1c-0.5,0.3-1.5-0.8-2.1-2.4c-0.6-1.6-0.7-3.1-0.2-3.4c0.5-0.3,1.5,0.8,2.1,2.4
			C28.4,29.3,28.5,30.8,27.9,31.1z M33.9,42.8c-0.8,0.9-1.8,1.2-2.2,0.7s-0.2-1.6,0.5-2.5s1.8-1.2,2.2-0.7
			C34.9,40.8,34.7,42,33.9,42.8z M40.8,19.3c-0.6,1.1-1.6,1.7-2.2,1.2c-0.6-0.4-0.6-1.7,0-2.8c0.6-1.1,1.6-1.7,2.2-1.2
			S41.5,18.2,40.8,19.3z M50.5,38.1c-1.1,1.3-2.5,1.9-3.1,1.3s-0.1-2.2,1-3.5s2.5-1.9,3.1-1.3C52,35.2,51.6,36.7,50.5,38.1z
			 M52.9,20.9c-1.2,1.1-2.5,1.5-3,0.9s0.1-2,1.3-3.1c1.2-1.1,2.5-1.5,3-0.9C54.7,18.4,54.1,19.8,52.9,20.9z M67,43.4
			c-0.4,0.6-1.7,0.3-2.9-0.7c-1.2-1-1.9-2.2-1.5-2.8c0.4-0.6,1.7-0.3,2.9,0.7C66.7,41.5,67.3,42.8,67,43.4z M68.9,22.4
			c-0.3,0.5-1.7,0.2-3-0.8s-2.3-2.2-2-2.7c0.3-0.5,1.7-0.2,3,0.8C68.3,20.7,69.2,21.9,68.9,22.4z M72.2,36.1
			c-0.5,0.3-1.3-0.2-1.8-1.2s-0.6-2.1-0.1-2.4c0.5-0.3,1.3,0.2,1.8,1.2C72.7,34.7,72.7,35.7,72.2,36.1z M81.3,26.9
			c-0.8-1-1-2.1-0.6-2.6s1.5,0,2.3,0.9c0.8,1,1,2.1,0.6,2.6C83.1,28.3,82.1,27.9,81.3,26.9z M87.7,42.8c-0.2,0.6-1.3,0.5-2.4-0.1
			s-1.8-1.6-1.5-2.1c0.2-0.6,1.3-0.5,2.4,0.1C87.3,41.3,88,42.2,87.7,42.8z M95.3,35c-1.2,1.1-2.5,1.6-2.9,1.1
			c-0.4-0.5,0.3-1.8,1.6-2.9c1.2-1.1,2.5-1.6,2.9-1.1S96.5,33.9,95.3,35z"/>
		<path d="M105,98.3H80.1c-4.6,6.1-13.4,10.1-23.4,10.1s-18.8-4.1-23.4-10.1H7.2c-3.6,0-6.5,2.9-6.5,6.5v1c0,6.2,5,11.2,11.2,11.2
			h88.5c6.2,0,11.2-5,11.2-11.2v-1C111.5,101.2,108.6,98.3,105,98.3z"/>
		<path d="M29.8,88.6c0-4.5,2-8.6,5.4-11.9H9.1c-3.5,0-6.3,2.8-6.3,6.3v5.4c0,3.5,2.8,6.3,6.3,6.3h22C30.3,92.7,29.8,90.7,29.8,88.6
			z"/>
		<path d="M103.1,76.7h-25c3.4,3.3,5.4,7.5,5.4,11.9c0,2.1-0.4,4.1-1.3,6h20.8c3.5,0,6.3-2.8,6.3-6.3v-5.4
			C109.4,79.5,106.6,76.7,103.1,76.7z"/>
	</g>
</g>
</svg>
