<?xml version="1.0" encoding="utf-8"?>
<!-- Generator: Adobe Illustrator 26.0.2, SVG Export Plug-In . SVG Version: 6.00 Build 0)  -->
<svg version="1.1" id="Layer_1" xmlns="http://www.w3.org/2000/svg" xmlns:xlink="http://www.w3.org/1999/xlink" x="0px" y="0px"
	 viewBox="0 0 129.2 135.5" style="enable-background:new 0 0 129.2 135.5;" xml:space="preserve">
<style type="text/css">
	.st0{fill:#E3E3E3;}
	.st1{fill:#A2A2A2;}
	.st2{fill:#C4C4C4;}
	.st3{fill:#D0D0D0;}
	.st4{fill:#616161;}
	.st5{fill:#FFFFFF;}
</style>
<g id="Layer_2_00000096031029856651895570000018369623788009812115_">
	<g id="Colour_Logo_1">
		<path class="st0" d="M120,19.3c0.9-6.4,0.9-12.9,0-19.3c-7.8,5.5-13.9,13.2-17.4,22.1l0.2,0.5c5.1,2.7,9.8,6,13.9,10
			C118.3,28.2,119.4,23.8,120,19.3z"/>
		<path class="st0" d="M25.7,22.1c-1.6-3.9-3.6-7.6-6.1-11C16.4,6.8,12.6,3.1,8.3,0c-1.5,11-0.4,22.1,3.2,32.6c4.2-4,8.9-7.3,14-10
			L25.7,22.1z"/>
		<path class="st1" d="M127.6,48.3c-2.4-5.9-6.1-11.3-10.8-15.7c-4.2-4-8.8-7.3-13.9-10c-12-6.2-25.3-9.4-38.7-9.2
			c-13.5-0.1-26.8,3-38.7,9.2c-5.1,2.7-9.8,6-13.9,10C6.8,37,3.1,42.3,0.7,48.3C-2,54.9,3.4,62,11.2,62h9.1c1.3-5.7,4.7-9.7,8.9-9.7
			s7.7,4,8.9,9.7h50.6c1.3-5.7,4.7-9.7,8.9-9.7s7.7,4,8.9,9.7h10.5C124.9,62,130.2,54.9,127.6,48.3z"/>
		<path class="st2" d="M69.4,85.2h-0.3l-1.3-0.1h-0.4c-0.6,0-1.1,0-1.7,0s-1.1,0-1.7,0h-0.4l-1.3,0.1H62
			c-13.3,1.2-23.6,8.6-23.6,17.5c0,9.7,12.3,17.7,27.4,17.7s27.4-7.9,27.4-17.7C93.1,93.8,82.8,86.4,69.4,85.2z"/>
		<path class="st3" d="M120.1,67.4h-13.1c-0.2,7.8-4.3,13.8-9.4,13.8s-9.2-6-9.4-13.8H38.6c-0.2,7.8-4.3,13.8-9.4,13.8
			s-9.2-6-9.4-13.8H9.9c-3.7,0-6.6,3-6.6,6.6c0,0,0,0,0,0v4.1c0,3.7,3,6.6,6.6,6.6h36.5c5.9-3.4,12.6-5.1,19.4-5
			c6.8-0.1,13.5,1.6,19.4,5h35.1c3.7,0,6.6-3,6.6-6.6V74C126.8,70.3,123.8,67.4,120.1,67.4C120.1,67.4,120.1,67.4,120.1,67.4z"/>
		<circle class="st4" cx="81.1" cy="101.1" r="5.1"/>
		<circle class="st4" cx="50.9" cy="101.1" r="5.1"/>
		<g id="Seasame">
			<ellipse transform="matrix(0.5777 -0.8162 0.8162 0.5777 12.8962 72.8969)" class="st5" cx="76.9" cy="24" rx="1.2" ry="3.5"/>
			<ellipse transform="matrix(0.8928 -0.4504 0.4504 0.8928 -9.0209 41.444)" class="st5" cx="82.6" cy="39.7" rx="1.2" ry="2.4"/>
			<ellipse transform="matrix(0.7041 -0.7101 0.7101 0.7041 1.5583 49.6609)" class="st5" cx="60.4" cy="23" rx="3.4" ry="1.6"/>
			<ellipse transform="matrix(0.6195 -0.785 0.785 0.6195 -11.8327 61.2585)" class="st5" cx="57.3" cy="42.8" rx="3.7" ry="1.7"/>
			<ellipse transform="matrix(0.4413 -0.8973 0.8973 0.4413 6.4508 53.3154)" class="st5" cx="46" cy="21.5" rx="2.7" ry="1.5"/>
			<ellipse transform="matrix(0.9343 -0.3566 0.3566 0.9343 -9.6002 13.2146)" class="st5" cx="31" cy="32.6" rx="1.3" ry="3.6"/>
			
				<ellipse transform="matrix(5.425314e-02 -0.9985 0.9985 5.425314e-02 -32.7436 64.5166)" class="st5" cx="17.7" cy="49.5" rx="3.4" ry="1.6"/>
			<ellipse transform="matrix(0.6397 -0.7686 0.7686 0.6397 -10.0501 75.0692)" class="st5" cx="75" cy="48.3" rx="1.4" ry="3.2"/>
			<ellipse transform="matrix(0.6082 -0.7938 0.7938 0.6082 -23.5487 49.489)" class="st5" cx="38.4" cy="48.6" rx="2.5" ry="1.4"/>
			<ellipse transform="matrix(0.5062 -0.8624 0.8624 0.5062 7.4243 109.5194)" class="st5" cx="99.3" cy="48.3" rx="1.3" ry="2.6"/>
			<ellipse transform="matrix(0.7283 -0.6853 0.6853 0.7283 2.7212 85.8803)" class="st5" cx="109.6" cy="39.5" rx="3.5" ry="1.3"/>
			<ellipse transform="matrix(0.8064 -0.5913 0.5913 0.8064 0.5574 62.1516)" class="st5" cx="95.2" cy="30.2" rx="1.4" ry="2.6"/>
		</g>
		<path class="st1" d="M121.7,113.9H92.8c-5.3,7-15.5,11.8-27.1,11.8s-21.8-4.7-27.1-11.8H8.3c-4.2,0-7.5,3.4-7.6,7.5v1.1
			c0,7.2,5.8,13,13,13h102.5c7.2,0,13-5.8,13-13v-1.1C129.3,117.3,125.9,113.9,121.7,113.9C121.7,113.9,121.7,113.9,121.7,113.9z"/>
		<path class="st4" d="M34.6,102.7c0-5.2,2.4-10,6.3-13.8H10.5c-4,0-7.3,3.3-7.3,7.3l0,0v6.3c0,4,3.3,7.3,7.3,7.3c0,0,0,0,0,0H36
			C35.1,107.4,34.6,105.1,34.6,102.7z"/>
		<path class="st4" d="M119.5,88.8h-29c4,3.9,6.3,8.7,6.3,13.8c0,2.4-0.5,4.8-1.5,7h24.2c4,0,7.3-3.3,7.3-7.3l0,0v-6.3
			C126.8,92.1,123.5,88.8,119.5,88.8z"/>
	</g>
</g>
</svg>
