<?xml version="1.0" encoding="utf-8"?>
<!-- Generator: Adobe Illustrator 26.0.2, SVG Export Plug-In . SVG Version: 6.00 Build 0)  -->
<svg version="1.1" xmlns="http://www.w3.org/2000/svg" xmlns:xlink="http://www.w3.org/1999/xlink" x="0px" y="0px"
	 viewBox="0 0 111.5 117" style="enable-background:new 0 0 111.5 117;" xml:space="preserve">
<style type="text/css">
	.st0{fill:url(#SVGID_1_);}
	.st1{fill:url(#SVGID_00000049202687800415623470000016247938630407591583_);}
	.st2{fill:url(#SVGID_00000111162173458147835460000011375788908525833346_);}
	.st3{fill:#E3AFD0;}
	.st4{fill:#FFD832;}
	.st5{filter:url(#Adobe_OpacityMaskFilter);}
	.st6{opacity:0.22;mask:url(#SVGID_00000074401061652098542710000004102449952888890524_);}
	.st7{fill:#010101;}
	.st8{fill:#D93829;}
	.st9{filter:url(#Adobe_OpacityMaskFilter_00000158733940367519432630000016914035332919662269_);}
	.st10{opacity:0.5;mask:url(#SVGID_00000075846653838305960820000015991357329817422479_);}
	.st11{filter:url(#Adobe_OpacityMaskFilter_00000018951014473630170360000006877389328483332994_);}
	.st12{opacity:0.5;mask:url(#SVGID_00000067929167528772409230000015873504928036946821_);}
	.st13{fill:#FFF7E2;}
	.st14{filter:url(#Adobe_OpacityMaskFilter_00000110469931408587776070000006440939137932357822_);}
	.st15{opacity:0.75;mask:url(#SVGID_00000074432634631827221420000016325649850084607925_);}
	.st16{filter:url(#Adobe_OpacityMaskFilter_00000142898922815080479390000015899557188242287546_);}
	.st17{opacity:0.75;mask:url(#SVGID_00000008112350793431501660000006719448076192295842_);}
	.st18{filter:url(#Adobe_OpacityMaskFilter_00000067931413330896450790000018267395180692155533_);}
	.st19{opacity:0.75;mask:url(#SVGID_00000016056562054716764110000007927604579751914162_);}
	.st20{filter:url(#Adobe_OpacityMaskFilter_00000033336476807758584500000017300804578445345939_);}
	.st21{opacity:0.5;mask:url(#SVGID_00000084504135621912003440000002346681007796986034_);}
	.st22{filter:url(#Adobe_OpacityMaskFilter_00000109025417456393770400000013147982020375797648_);}
	.st23{opacity:0.75;mask:url(#SVGID_00000100350349108608076860000016903544320172333988_);}
	.st24{filter:url(#Adobe_OpacityMaskFilter_00000129890087525244341250000008917905945423273660_);}
	.st25{opacity:0.75;mask:url(#SVGID_00000108270681767180656800000014831722697763426958_);}
	.st26{filter:url(#Adobe_OpacityMaskFilter_00000035510760084592650000000008141932028928223648_);}
	.st27{opacity:0.75;mask:url(#SVGID_00000047754612910524756540000008847434514716188819_);}
	.st28{filter:url(#Adobe_OpacityMaskFilter_00000051341632076247915780000014380198659587001249_);}
	.st29{opacity:0.75;mask:url(#SVGID_00000062875885850798151110000016045135050328007809_);}
	.st30{filter:url(#Adobe_OpacityMaskFilter_00000064323062982571648680000007191353450646740386_);}
	.st31{opacity:0.75;mask:url(#SVGID_00000000913302754069332010000002128565975150540672_);}
	.st32{filter:url(#Adobe_OpacityMaskFilter_00000028325246938934919130000008554296605186875788_);}
	.st33{opacity:0.75;mask:url(#SVGID_00000144332871429597669000000018185188851166463672_);}
	.st34{filter:url(#Adobe_OpacityMaskFilter_00000003801841013871458500000006679541247466450355_);}
	.st35{opacity:0.75;mask:url(#SVGID_00000147915974980501631780000014825874961220575408_);}
	.st36{filter:url(#Adobe_OpacityMaskFilter_00000136399514199479204810000005754981844606132871_);}
	.st37{opacity:0.75;mask:url(#SVGID_00000108297446506376540420000014971508237689118105_);}
	.st38{fill:url(#SVGID_00000083779960307442078600000007200844716615557515_);}
	.st39{fill:#D83729;}
	.st40{filter:url(#Adobe_OpacityMaskFilter_00000067946284219983432590000017729356481819707071_);}
	.st41{opacity:0.35;mask:url(#SVGID_00000105409238562641734010000014662399599520920449_);}
	.st42{filter:url(#Adobe_OpacityMaskFilter_00000013167629153416578130000014453277830152408495_);}
	.st43{opacity:0.35;mask:url(#SVGID_00000121961467000403177660000000498416528861887161_);}
</style>
<g id="Layer_1">
</g>
<g id="Layer_3">
	<g id="Complex_Logo_1">
		<g>
			<linearGradient id="SVGID_1_" gradientUnits="userSpaceOnUse" x1="92.0019" y1="9.257" x2="106.0974" y2="15.8992">
				<stop  offset="0" style="stop-color:#E2D9C3"/>
				<stop  offset="0.2924" style="stop-color:#F2EDE4"/>
				<stop  offset="0.4611" style="stop-color:#FFFFFF"/>
				<stop  offset="0.5879" style="stop-color:#FAF8F4"/>
				<stop  offset="0.768" style="stop-color:#F0ECE2"/>
				<stop  offset="0.979" style="stop-color:#E4DBC6"/>
				<stop  offset="1" style="stop-color:#E2D9C3"/>
			</linearGradient>
			<path class="st0" d="M103.6,16.6c0.9-6.7,0.6-12.4,0-16.6c-2.7,1.9-6.4,5-9.7,9.5c-2.6,3.5-4.2,6.9-5.3,9.5
				c0.1,0.1,0.1,0.3,0.2,0.4c4.6,2.4,8.6,5.3,12,8.6C101.9,24.8,103,21,103.6,16.6z"/>
			
				<linearGradient id="SVGID_00000163068789838491460430000002405713819796944563_" gradientUnits="userSpaceOnUse" x1="17.086" y1="10.0301" x2="5.3357" y2="15.5464">
				<stop  offset="0" style="stop-color:#E2D9C3"/>
				<stop  offset="0.1446" style="stop-color:#EDE7DA"/>
				<stop  offset="0.3204" style="stop-color:#F8F6F2"/>
				<stop  offset="0.4276" style="stop-color:#FFFFFF"/>
				<stop  offset="0.5623" style="stop-color:#FAF8F4"/>
				<stop  offset="0.7536" style="stop-color:#F0ECE2"/>
				<stop  offset="0.9777" style="stop-color:#E4DBC6"/>
				<stop  offset="1" style="stop-color:#E2D9C3"/>
			</linearGradient>
			<path style="fill:url(#SVGID_00000163068789838491460430000002405713819796944563_);" d="M22.1,19.1c-1-2.7-2.7-6-5.3-9.5
				C13.5,5,9.8,1.9,7.1,0c-0.6,4.2-0.9,10,0,16.6c0.6,4.3,1.6,8.2,2.8,11.5c3.4-3.3,7.5-6.2,12-8.6C22,19.3,22.1,19.2,22.1,19.1z"/>
			
				<linearGradient id="SVGID_00000009564723894770656750000001487995407480366497_" gradientUnits="userSpaceOnUse" x1="55.5739" y1="11.4991" x2="55.2454" y2="59.7933">
				<stop  offset="0" style="stop-color:#F5AA62"/>
				<stop  offset="0.1612" style="stop-color:#F4A354"/>
				<stop  offset="0.3779" style="stop-color:#F39C47"/>
				<stop  offset="0.6303" style="stop-color:#F2983F"/>
				<stop  offset="1" style="stop-color:#F2973D"/>
			</linearGradient>
			<path style="fill:url(#SVGID_00000009564723894770656750000001487995407480366497_);" d="M110.1,41.7c-2-5-5.2-9.5-9.3-13.6
				c-3.4-3.3-7.5-6.2-12-8.6c-9.4-5-20.9-8-33.4-8s-24,3-33.4,8c-4.6,2.4-8.6,5.3-12,8.6c-4.1,4-7.3,8.6-9.3,13.6
				c-2.3,5.7,2.3,11.8,9.1,11.8h7.8c1.1-4.9,4.1-8.3,7.7-8.3s6.6,3.4,7.7,8.3h43.7c1.1-4.9,4.1-8.3,7.7-8.3c3.6,0,6.6,3.4,7.7,8.3
				h9.1C107.8,53.5,112.4,47.4,110.1,41.7z"/>
		</g>
		<g>
			<path class="st3" d="M59.9,73.5c-0.1,0-0.2,0-0.3,0c-0.4,0-0.8-0.1-1.1-0.1c-0.1,0-0.2,0-0.4,0c-0.5,0-1,0-1.4,0
				c-0.5,0-1,0-1.4,0c-0.1,0-0.2,0-0.4,0c-0.4,0-0.8,0-1.1,0.1c-0.1,0-0.2,0-0.3,0c-11.5,1-20.4,7.4-20.4,15.1
				c0,8.4,10.6,15.2,23.6,15.2c13,0,23.6-6.8,23.6-15.2C80.3,80.9,71.4,74.5,59.9,73.5z"/>
			<g>
				<g>
					<path class="st4" d="M103.7,58.1H92.4c-0.2,6.7-3.7,11.9-8.1,11.9c-4.5,0-8-5.2-8.1-11.9H33.3c-0.2,6.7-3.7,11.9-8.1,11.9
						s-8-5.2-8.1-11.9H8.5c-3.2,0-5.7,2.6-5.7,5.7v3.5c0,3.2,2.6,5.7,5.7,5.7H40c4.6-2.7,10.4-4.4,16.7-4.4c6.3,0,12.1,1.6,16.7,4.4
						h30.3c3.2,0,5.7-2.6,5.7-5.7v-3.5C109.4,60.7,106.8,58.1,103.7,58.1z"/>
				</g>
				<defs>
					<filter id="Adobe_OpacityMaskFilter" filterUnits="userSpaceOnUse" x="2.8" y="58.1" width="106.6" height="15">
						
							<feColorMatrix  type="matrix" values="-1 0 0 0 1  0 -1 0 0 1  0 0 -1 0 1  0 0 0 1 0" color-interpolation-filters="sRGB" result="source"/>
					</filter>
				</defs>
				
					<mask maskUnits="userSpaceOnUse" x="2.8" y="58.1" width="106.6" height="15" id="SVGID_00000112633898872542586270000017797518377970251423_">
					<g class="st5">
						
							<image style="overflow:visible;" width="461" height="80" xlink:href="5A0D3656.jpg"  transform="matrix(0.24 0 0 0.24 0.7908 56.0107)">
						</image>
					</g>
				</mask>
				<g style="opacity:0.22;mask:url(#SVGID_00000112633898872542586270000017797518377970251423_);">
					<path class="st7" d="M103.7,58.1H92.4c-0.2,6.7-3.7,11.9-8.1,11.9c-4.5,0-8-5.2-8.1-11.9H33.3c-0.2,6.7-3.7,11.9-8.1,11.9
						s-8-5.2-8.1-11.9H8.5c-3.2,0-5.7,2.6-5.7,5.7v3.5c0,3.2,2.6,5.7,5.7,5.7H40c4.6-2.7,10.4-4.4,16.7-4.4c6.3,0,12.1,1.6,16.7,4.4
						h30.3c3.2,0,5.7-2.6,5.7-5.7v-3.5C109.4,60.7,106.8,58.1,103.7,58.1z"/>
				</g>
			</g>
		</g>
		<g>
			<g>
				<g>
					<circle class="st8" cx="69.7" cy="88.6" r="4.4"/>
				</g>
				<defs>
					
						<filter id="Adobe_OpacityMaskFilter_00000137834782494101746740000012794429315240848309_" filterUnits="userSpaceOnUse" x="65.3" y="84.2" width="8.9" height="8.9">
						
							<feColorMatrix  type="matrix" values="-1 0 0 0 1  0 -1 0 0 1  0 0 -1 0 1  0 0 0 1 0" color-interpolation-filters="sRGB" result="source"/>
					</filter>
				</defs>
				
					<mask maskUnits="userSpaceOnUse" x="65.3" y="84.2" width="8.9" height="8.9" id="SVGID_00000080910889335450699830000011758973741695061141_">
					<g style="filter:url(#Adobe_OpacityMaskFilter_00000137834782494101746740000012794429315240848309_);">
						
							<image style="overflow:visible;" width="55" height="54" xlink:href="5A0D365A.jpg"  transform="matrix(0.24 0 0 0.24 63.1908 82.1707)">
						</image>
					</g>
				</mask>
				<g style="opacity:0.5;mask:url(#SVGID_00000080910889335450699830000011758973741695061141_);">
					<circle class="st7" cx="69.7" cy="88.6" r="4.4"/>
				</g>
			</g>
			<g>
				<g>
					<circle class="st8" cx="43.7" cy="88.6" r="4.4"/>
				</g>
				<defs>
					
						<filter id="Adobe_OpacityMaskFilter_00000034061726235306074400000015909277086571950759_" filterUnits="userSpaceOnUse" x="39.2" y="84.2" width="8.9" height="8.9">
						
							<feColorMatrix  type="matrix" values="-1 0 0 0 1  0 -1 0 0 1  0 0 -1 0 1  0 0 0 1 0" color-interpolation-filters="sRGB" result="source"/>
					</filter>
				</defs>
				
					<mask maskUnits="userSpaceOnUse" x="39.2" y="84.2" width="8.9" height="8.9" id="SVGID_00000154391773795713532270000010446357040105685414_">
					<g style="filter:url(#Adobe_OpacityMaskFilter_00000034061726235306074400000015909277086571950759_);">
						
							<image style="overflow:visible;" width="55" height="54" xlink:href="5A0D365D.jpg"  transform="matrix(0.24 0 0 0.24 37.0308 82.1707)">
						</image>
					</g>
				</mask>
				<g style="opacity:0.5;mask:url(#SVGID_00000154391773795713532270000010446357040105685414_);">
					<circle class="st7" cx="43.7" cy="88.6" r="4.4"/>
				</g>
			</g>
		</g>
		<g id="Seasame_00000170994378535478269830000010530590542257071007_">
			<g>
				<g>
					
						<ellipse transform="matrix(0.5777 -0.8163 0.8163 0.5777 11.1316 62.9142)" class="st13" cx="66.4" cy="20.7" rx="1.1" ry="3.1"/>
				</g>
				<defs>
					
						<filter id="Adobe_OpacityMaskFilter_00000051369982759324473340000002453217847584517515_" filterUnits="userSpaceOnUse" x="63.8" y="18.7" width="5.2" height="3.9">
						
							<feColorMatrix  type="matrix" values="-1 0 0 0 1  0 -1 0 0 1  0 0 -1 0 1  0 0 0 1 0" color-interpolation-filters="sRGB" result="source"/>
					</filter>
				</defs>
				
					<mask maskUnits="userSpaceOnUse" x="63.8" y="18.7" width="5.2" height="3.9" id="SVGID_00000138560476048893002030000000919427609838738838_">
					<g style="filter:url(#Adobe_OpacityMaskFilter_00000051369982759324473340000002453217847584517515_);">
						
							<image style="overflow:visible;" width="39" height="34" xlink:href="5A0D365E.jpg"  transform="matrix(0.24 0 0 0.24 61.7508 16.6507)">
						</image>
					</g>
				</mask>
				<g style="opacity:0.75;mask:url(#SVGID_00000138560476048893002030000000919427609838738838_);">
					
						<ellipse transform="matrix(0.5777 -0.8163 0.8163 0.5777 11.1316 62.9142)" class="st7" cx="66.4" cy="20.7" rx="1.1" ry="3.1"/>
				</g>
			</g>
			<g>
				<g>
					
						<ellipse transform="matrix(0.8928 -0.4504 0.4504 0.8928 -7.7863 35.7625)" class="st13" cx="71.3" cy="34.2" rx="1" ry="2.1"/>
				</g>
				<defs>
					
						<filter id="Adobe_OpacityMaskFilter_00000032631573783498903890000005079881675794117790_" filterUnits="userSpaceOnUse" x="70" y="32.4" width="2.6" height="3.8">
						
							<feColorMatrix  type="matrix" values="-1 0 0 0 1  0 -1 0 0 1  0 0 -1 0 1  0 0 0 1 0" color-interpolation-filters="sRGB" result="source"/>
					</filter>
				</defs>
				
					<mask maskUnits="userSpaceOnUse" x="70" y="32.4" width="2.6" height="3.8" id="SVGID_00000145767696705620092630000002610267670209067650_">
					<g style="filter:url(#Adobe_OpacityMaskFilter_00000032631573783498903890000005079881675794117790_);">
						
							<image style="overflow:visible;" width="29" height="33" xlink:href="5A0D365C.jpg"  transform="matrix(0.24 0 0 0.24 67.7508 30.3307)">
						</image>
					</g>
				</mask>
				<g style="opacity:0.75;mask:url(#SVGID_00000145767696705620092630000002610267670209067650_);">
					<ellipse transform="matrix(0.8928 -0.4504 0.4504 0.8928 -7.7863 35.7625)" class="st7" cx="71.3" cy="34.2" rx="1" ry="2.1"/>
				</g>
			</g>
			<g>
				<g>
					<ellipse transform="matrix(0.7041 -0.7101 0.7101 0.7041 1.3435 42.86)" class="st13" cx="52.1" cy="19.8" rx="2.9" ry="1.4"/>
				</g>
				<defs>
					
						<filter id="Adobe_OpacityMaskFilter_00000009592219685803040000000008907379907987440276_" filterUnits="userSpaceOnUse" x="49.8" y="17.5" width="4.6" height="4.6">
						
							<feColorMatrix  type="matrix" values="-1 0 0 0 1  0 -1 0 0 1  0 0 -1 0 1  0 0 0 1 0" color-interpolation-filters="sRGB" result="source"/>
					</filter>
				</defs>
				
					<mask maskUnits="userSpaceOnUse" x="49.8" y="17.5" width="4.6" height="4.6" id="SVGID_00000075866713832507961420000001712064461127606197_">
					<g style="filter:url(#Adobe_OpacityMaskFilter_00000009592219685803040000000008907379907987440276_);">
						
							<image style="overflow:visible;" width="37" height="37" xlink:href="5A0D365B.jpg"  transform="matrix(0.24 0 0 0.24 47.5908 15.4507)">
						</image>
					</g>
				</mask>
				<g style="opacity:0.75;mask:url(#SVGID_00000075866713832507961420000001712064461127606197_);">
					<ellipse transform="matrix(0.7041 -0.7101 0.7101 0.7041 1.3435 42.86)" class="st7" cx="52.1" cy="19.8" rx="2.9" ry="1.4"/>
				</g>
			</g>
			<g>
				<g>
					<ellipse transform="matrix(0.6195 -0.785 0.785 0.6195 -10.2144 52.873)" class="st13" cx="49.4" cy="37" rx="3.2" ry="1.5"/>
				</g>
				<defs>
					
						<filter id="Adobe_OpacityMaskFilter_00000139278998911961056790000010544075177083177099_" filterUnits="userSpaceOnUse" x="47.2" y="34.3" width="4.6" height="5.3">
						
							<feColorMatrix  type="matrix" values="-1 0 0 0 1  0 -1 0 0 1  0 0 -1 0 1  0 0 0 1 0" color-interpolation-filters="sRGB" result="source"/>
					</filter>
				</defs>
				
					<mask maskUnits="userSpaceOnUse" x="47.2" y="34.3" width="4.6" height="5.3" id="SVGID_00000096778728226638604940000008687893678826839464_">
					<g style="filter:url(#Adobe_OpacityMaskFilter_00000139278998911961056790000010544075177083177099_);">
						
							<image style="overflow:visible;" width="37" height="40" xlink:href="5A0D3655.jpg"  transform="matrix(0.24 0 0 0.24 44.9508 32.2507)">
						</image>
					</g>
				</mask>
				<g style="opacity:0.5;mask:url(#SVGID_00000096778728226638604940000008687893678826839464_);">
					<ellipse transform="matrix(0.6195 -0.785 0.785 0.6195 -10.2144 52.873)" class="st7" cx="49.4" cy="37" rx="3.2" ry="1.5"/>
				</g>
			</g>
			<g>
				<g>
					
						<ellipse transform="matrix(0.4413 -0.8974 0.8974 0.4413 5.5626 46.0113)" class="st13" cx="39.7" cy="18.5" rx="2.3" ry="1.3"/>
				</g>
				<defs>
					
						<filter id="Adobe_OpacityMaskFilter_00000098201228378080173240000016433999456781055648_" filterUnits="userSpaceOnUse" x="38.2" y="16.4" width="3.1" height="4.3">
						
							<feColorMatrix  type="matrix" values="-1 0 0 0 1  0 -1 0 0 1  0 0 -1 0 1  0 0 0 1 0" color-interpolation-filters="sRGB" result="source"/>
					</filter>
				</defs>
				
					<mask maskUnits="userSpaceOnUse" x="38.2" y="16.4" width="3.1" height="4.3" id="SVGID_00000010290703618261821950000014255183660676318600_">
					<g style="filter:url(#Adobe_OpacityMaskFilter_00000098201228378080173240000016433999456781055648_);">
						
							<image style="overflow:visible;" width="31" height="36" xlink:href="5A0D3657.jpg"  transform="matrix(0.24 0 0 0.24 36.0708 14.2507)">
						</image>
					</g>
				</mask>
				<g style="opacity:0.75;mask:url(#SVGID_00000010290703618261821950000014255183660676318600_);">
					
						<ellipse transform="matrix(0.4413 -0.8974 0.8974 0.4413 5.5626 46.0113)" class="st7" cx="39.7" cy="18.5" rx="2.3" ry="1.3"/>
				</g>
			</g>
			<g>
				<g>
					
						<ellipse transform="matrix(0.9343 -0.3565 0.3565 0.9343 -8.286 11.4022)" class="st13" cx="26.8" cy="28.2" rx="1.1" ry="3.1"/>
				</g>
				<defs>
					
						<filter id="Adobe_OpacityMaskFilter_00000012465680564670322700000010012465944106786447_" filterUnits="userSpaceOnUse" x="25.3" y="25.2" width="3" height="5.9">
						
							<feColorMatrix  type="matrix" values="-1 0 0 0 1  0 -1 0 0 1  0 0 -1 0 1  0 0 0 1 0" color-interpolation-filters="sRGB" result="source"/>
					</filter>
				</defs>
				
					<mask maskUnits="userSpaceOnUse" x="25.3" y="25.2" width="3" height="5.9" id="SVGID_00000180327628209624134780000009300993431909998013_">
					<g style="filter:url(#Adobe_OpacityMaskFilter_00000012465680564670322700000010012465944106786447_);">
						
							<image style="overflow:visible;" width="30" height="42" xlink:href="5A0D3654.jpg"  transform="matrix(0.24 0 0 0.24 23.1108 23.1307)">
						</image>
					</g>
				</mask>
				<g style="opacity:0.75;mask:url(#SVGID_00000180327628209624134780000009300993431909998013_);">
					
						<ellipse transform="matrix(0.9343 -0.3565 0.3565 0.9343 -8.286 11.4022)" class="st7" cx="26.8" cy="28.2" rx="1.1" ry="3.1"/>
				</g>
			</g>
			<g>
				<g>
					
						<ellipse transform="matrix(5.417005e-02 -0.9985 0.9985 5.417005e-02 -28.2548 55.6818)" class="st13" cx="15.3" cy="42.8" rx="2.9" ry="1.4"/>
				</g>
				<defs>
					
						<filter id="Adobe_OpacityMaskFilter_00000029725135488591868750000003145964346730132154_" filterUnits="userSpaceOnUse" x="13.9" y="39.9" width="2.7" height="5.8">
						
							<feColorMatrix  type="matrix" values="-1 0 0 0 1  0 -1 0 0 1  0 0 -1 0 1  0 0 0 1 0" color-interpolation-filters="sRGB" result="source"/>
					</filter>
				</defs>
				
					<mask maskUnits="userSpaceOnUse" x="13.9" y="39.9" width="2.7" height="5.8" id="SVGID_00000172433430556945892120000015933440127422596494_">
					<g style="filter:url(#Adobe_OpacityMaskFilter_00000029725135488591868750000003145964346730132154_);">
						
							<image style="overflow:visible;" width="29" height="42" xlink:href="3E8DAC9.jpg"  transform="matrix(0.24 0 0 0.24 11.8308 37.7707)">
						</image>
					</g>
				</mask>
				<g style="opacity:0.75;mask:url(#SVGID_00000172433430556945892120000015933440127422596494_);">
					
						<ellipse transform="matrix(5.417005e-02 -0.9985 0.9985 5.417005e-02 -28.2548 55.6818)" class="st7" cx="15.3" cy="42.8" rx="2.9" ry="1.4"/>
				</g>
			</g>
			<g>
				<g>
					
						<ellipse transform="matrix(0.6396 -0.7687 0.7687 0.6396 -8.6624 64.7938)" class="st13" cx="64.8" cy="41.6" rx="1.2" ry="2.8"/>
				</g>
				<defs>
					
						<filter id="Adobe_OpacityMaskFilter_00000100354829643890703480000004445098097061783989_" filterUnits="userSpaceOnUse" x="62.5" y="39.6" width="4.6" height="4.1">
						
							<feColorMatrix  type="matrix" values="-1 0 0 0 1  0 -1 0 0 1  0 0 -1 0 1  0 0 0 1 0" color-interpolation-filters="sRGB" result="source"/>
					</filter>
				</defs>
				
					<mask maskUnits="userSpaceOnUse" x="62.5" y="39.6" width="4.6" height="4.1" id="SVGID_00000078006164630461563440000015257376615380791444_">
					<g style="filter:url(#Adobe_OpacityMaskFilter_00000100354829643890703480000004445098097061783989_);">
						
							<image style="overflow:visible;" width="37" height="34" xlink:href="3E8DACF.jpg"  transform="matrix(0.24 0 0 0.24 60.3108 37.5307)">
						</image>
					</g>
				</mask>
				<g style="opacity:0.75;mask:url(#SVGID_00000078006164630461563440000015257376615380791444_);">
					
						<ellipse transform="matrix(0.6396 -0.7687 0.7687 0.6396 -8.6624 64.7938)" class="st7" cx="64.8" cy="41.6" rx="1.2" ry="2.8"/>
				</g>
			</g>
			<g>
				<g>
					
						<ellipse transform="matrix(0.6082 -0.7937 0.7937 0.6082 -20.3266 42.709)" class="st13" cx="33.1" cy="41.9" rx="2.1" ry="1.2"/>
				</g>
				<defs>
					
						<filter id="Adobe_OpacityMaskFilter_00000142146228630325568360000002621544410828058242_" filterUnits="userSpaceOnUse" x="31.5" y="40.1" width="3.2" height="3.7">
						
							<feColorMatrix  type="matrix" values="-1 0 0 0 1  0 -1 0 0 1  0 0 -1 0 1  0 0 0 1 0" color-interpolation-filters="sRGB" result="source"/>
					</filter>
				</defs>
				
					<mask maskUnits="userSpaceOnUse" x="31.5" y="40.1" width="3.2" height="3.7" id="SVGID_00000119814389764067683370000008302042079862875048_">
					<g style="filter:url(#Adobe_OpacityMaskFilter_00000142146228630325568360000002621544410828058242_);">
						
							<image style="overflow:visible;" width="31" height="33" xlink:href="3E8DAC8.jpg"  transform="matrix(0.24 0 0 0.24 29.3508 38.0107)">
						</image>
					</g>
				</mask>
				<g style="opacity:0.75;mask:url(#SVGID_00000119814389764067683370000008302042079862875048_);">
					
						<ellipse transform="matrix(0.6082 -0.7937 0.7937 0.6082 -20.3266 42.709)" class="st7" cx="33.1" cy="41.9" rx="2.1" ry="1.2"/>
				</g>
			</g>
			<g>
				<g>
					
						<ellipse transform="matrix(0.5062 -0.8624 0.8624 0.5062 6.4003 94.5194)" class="st13" cx="85.7" cy="41.7" rx="1.1" ry="2.3"/>
				</g>
				<defs>
					
						<filter id="Adobe_OpacityMaskFilter_00000061446147545092608590000008060524462338032027_" filterUnits="userSpaceOnUse" x="83.7" y="40.2" width="4.1" height="3">
						
							<feColorMatrix  type="matrix" values="-1 0 0 0 1  0 -1 0 0 1  0 0 -1 0 1  0 0 0 1 0" color-interpolation-filters="sRGB" result="source"/>
					</filter>
				</defs>
				
					<mask maskUnits="userSpaceOnUse" x="83.7" y="40.2" width="4.1" height="3" id="SVGID_00000138570580854480968190000014662643307790410880_">
					<g style="filter:url(#Adobe_OpacityMaskFilter_00000061446147545092608590000008060524462338032027_);">
						
							<image style="overflow:visible;" width="34" height="30" xlink:href="3E8DACB.jpg"  transform="matrix(0.24 0 0 0.24 81.6708 38.0107)">
						</image>
					</g>
				</mask>
				<g style="opacity:0.75;mask:url(#SVGID_00000138570580854480968190000014662643307790410880_);">
					
						<ellipse transform="matrix(0.5062 -0.8624 0.8624 0.5062 6.4003 94.5194)" class="st7" cx="85.7" cy="41.7" rx="1.1" ry="2.3"/>
				</g>
			</g>
			<g>
				<g>
					<ellipse transform="matrix(0.7282 -0.6853 0.6853 0.7282 2.3479 74.1217)" class="st13" cx="94.6" cy="34.1" rx="3" ry="1.1"/>
				</g>
				<defs>
					
						<filter id="Adobe_OpacityMaskFilter_00000140698558185076871110000014258512385821332661_" filterUnits="userSpaceOnUse" x="92.3" y="31.9" width="4.7" height="4.5">
						
							<feColorMatrix  type="matrix" values="-1 0 0 0 1  0 -1 0 0 1  0 0 -1 0 1  0 0 0 1 0" color-interpolation-filters="sRGB" result="source"/>
					</filter>
				</defs>
				
					<mask maskUnits="userSpaceOnUse" x="92.3" y="31.9" width="4.7" height="4.5" id="SVGID_00000037681913390247826340000016127621299804647599_">
					<g style="filter:url(#Adobe_OpacityMaskFilter_00000140698558185076871110000014258512385821332661_);">
						
							<image style="overflow:visible;" width="38" height="36" xlink:href="3E8DAD7.jpg"  transform="matrix(0.24 0 0 0.24 90.0708 29.8507)">
						</image>
					</g>
				</mask>
				<g style="opacity:0.75;mask:url(#SVGID_00000037681913390247826340000016127621299804647599_);">
					<ellipse transform="matrix(0.7282 -0.6853 0.6853 0.7282 2.3479 74.1217)" class="st7" cx="94.6" cy="34.1" rx="3" ry="1.1"/>
				</g>
			</g>
			<g>
				<g>
					
						<ellipse transform="matrix(0.8065 -0.5913 0.5913 0.8065 0.4767 53.6397)" class="st13" cx="82.2" cy="26.1" rx="1.2" ry="2.3"/>
				</g>
				<defs>
					
						<filter id="Adobe_OpacityMaskFilter_00000035521860921823591030000005794361347288138676_" filterUnits="userSpaceOnUse" x="80.5" y="24.1" width="3.3" height="3.9">
						
							<feColorMatrix  type="matrix" values="-1 0 0 0 1  0 -1 0 0 1  0 0 -1 0 1  0 0 0 1 0" color-interpolation-filters="sRGB" result="source"/>
					</filter>
				</defs>
				
					<mask maskUnits="userSpaceOnUse" x="80.5" y="24.1" width="3.3" height="3.9" id="SVGID_00000065036187614928425870000013251362118771449227_">
					<g style="filter:url(#Adobe_OpacityMaskFilter_00000035521860921823591030000005794361347288138676_);">
						
							<image style="overflow:visible;" width="32" height="34" xlink:href="3E8DAC7.jpg"  transform="matrix(0.24 0 0 0.24 78.3108 21.9307)">
						</image>
					</g>
				</mask>
				<g style="opacity:0.75;mask:url(#SVGID_00000065036187614928425870000013251362118771449227_);">
					
						<ellipse transform="matrix(0.8065 -0.5913 0.5913 0.8065 0.4767 53.6397)" class="st7" cx="82.2" cy="26.1" rx="1.2" ry="2.3"/>
				</g>
			</g>
		</g>
		
			<linearGradient id="SVGID_00000026885859696688120970000006273328134229928372_" gradientUnits="userSpaceOnUse" x1="56.1095" y1="116.9784" x2="56.1095" y2="98.3158">
			<stop  offset="0" style="stop-color:#F6AF6B"/>
			<stop  offset="0.3664" style="stop-color:#F4A355"/>
			<stop  offset="0.7483" style="stop-color:#F39A43"/>
			<stop  offset="1" style="stop-color:#F2973D"/>
		</linearGradient>
		<path style="fill:url(#SVGID_00000026885859696688120970000006273328134229928372_);" d="M105,98.3H80.1
			c-4.6,6-13.4,10.1-23.4,10.1c-10,0-18.8-4.1-23.4-10.1H7.2c-3.6,0-6.5,2.9-6.5,6.5v1c0,6.2,5,11.2,11.2,11.2h88.5
			c6.2,0,11.2-5,11.2-11.2v-1C111.5,101.2,108.6,98.3,105,98.3z"/>
		<g>
			<g>
				<path class="st39" d="M29.8,88.6c0-4.5,2-8.6,5.4-11.9H9.1c-3.5,0-6.3,2.8-6.3,6.3v5.4c0,3.5,2.8,6.3,6.3,6.3h22
					C30.3,92.7,29.8,90.7,29.8,88.6z"/>
			</g>
			<defs>
				
					<filter id="Adobe_OpacityMaskFilter_00000119800641320266279340000015197072908071978136_" filterUnits="userSpaceOnUse" x="2.8" y="76.7" width="32.5" height="17.9">
					
						<feColorMatrix  type="matrix" values="-1 0 0 0 1  0 -1 0 0 1  0 0 -1 0 1  0 0 0 1 0" color-interpolation-filters="sRGB" result="source"/>
				</filter>
			</defs>
			
				<mask maskUnits="userSpaceOnUse" x="2.8" y="76.7" width="32.5" height="17.9" id="SVGID_00000119811615404535622220000013050942482600350640_">
				<g style="filter:url(#Adobe_OpacityMaskFilter_00000119800641320266279340000015197072908071978136_);">
					
						<image style="overflow:visible;" width="153" height="93" xlink:href="3E8DAD9.jpg"  transform="matrix(0.24 0 0 0.24 0.7908 74.4907)">
					</image>
				</g>
			</mask>
			<g style="opacity:0.35;mask:url(#SVGID_00000119811615404535622220000013050942482600350640_);">
				<path class="st7" d="M29.8,88.6c0-4.5,2-8.6,5.4-11.9H9.1c-3.5,0-6.3,2.8-6.3,6.3v5.4c0,3.5,2.8,6.3,6.3,6.3h22
					C30.3,92.7,29.8,90.7,29.8,88.6z"/>
			</g>
		</g>
		<g>
			<g>
				<path class="st8" d="M103.1,76.7h-25c3.4,3.3,5.4,7.5,5.4,11.9c0,2.1-0.5,4.1-1.3,6h20.8c3.5,0,6.3-2.8,6.3-6.3v-5.4
					C109.4,79.5,106.6,76.7,103.1,76.7z"/>
			</g>
			<defs>
				
					<filter id="Adobe_OpacityMaskFilter_00000052067566482304748900000010487321376843914650_" filterUnits="userSpaceOnUse" x="78.1" y="76.7" width="31.3" height="17.9">
					
						<feColorMatrix  type="matrix" values="-1 0 0 0 1  0 -1 0 0 1  0 0 -1 0 1  0 0 0 1 0" color-interpolation-filters="sRGB" result="source"/>
				</filter>
			</defs>
			
				<mask maskUnits="userSpaceOnUse" x="78.1" y="76.7" width="31.3" height="17.9" id="SVGID_00000009553517052247165270000004286290380127252625_">
				<g style="filter:url(#Adobe_OpacityMaskFilter_00000052067566482304748900000010487321376843914650_);">
					
						<image style="overflow:visible;" width="148" height="93" xlink:href="3E8DADB.jpg"  transform="matrix(0.24 0 0 0.24 75.9108 74.4907)">
					</image>
				</g>
			</mask>
			<g style="opacity:0.35;mask:url(#SVGID_00000009553517052247165270000004286290380127252625_);">
				<path class="st7" d="M103.1,76.7h-25c3.4,3.3,5.4,7.5,5.4,11.9c0,2.1-0.5,4.1-1.3,6h20.8c3.5,0,6.3-2.8,6.3-6.3v-5.4
					C109.4,79.5,106.6,76.7,103.1,76.7z"/>
			</g>
		</g>
	</g>
</g>
</svg>
