<?xml version="1.0" encoding="utf-8"?>
<!-- Generator: Adobe Illustrator 26.0.2, SVG Export Plug-In . SVG Version: 6.00 Build 0)  -->
<svg version="1.1" id="Layer_1" xmlns="http://www.w3.org/2000/svg" xmlns:xlink="http://www.w3.org/1999/xlink" x="0px" y="0px"
	 viewBox="0 0 360 360" style="enable-background:new 0 0 360 360;" xml:space="preserve">
<style type="text/css">
	.st0{fill:#333333;}
	.st1{fill:#D3661C;}
	.st2{fill:#A04D15;}
	.st3{fill:#C5D7E1;}
	.st4{fill:#758893;}
	.st5{fill:#FE952F;}
	.st6{fill:#EDF3F7;}
</style>
<g id="Layer_1_00000158736120562603992260000017850994870174533540_">
</g>
<g>
	<rect y="0.1" class="st0" width="139.9" height="210.3"/>
	<g>
		<path class="st1" d="M97.9,44.8c-0.3,0.3-0.9,0.2-1.1-0.2l0,0c-0.4-0.2-0.6-0.6-0.8-0.9c-0.2-0.4-0.5-0.6-0.8-0.9l-0.1-0.1
			c-0.1-0.2-0.2-0.4-0.4-0.6c-0.3-0.2-0.6-0.3-0.6-0.8c-0.3-1.3,0.4-2.2,1.3-2.8c2.8-2.2,3.9-5.3,4.7-8.5c0.7-2.8,1.5-5.7,2.7-8.4
			c2-4.4,4.9-7.5,9.9-8.4c0.1,0,0.1,0,0.2-0.1s0.3-0.2,0.5-0.2h1c0.2,0,0.4,0.1,0.5,0.2c0.1,0.1,0.2,0.2,0.3,0.2
			c4.2,1.6,6.1,7,5,11.4c-1.5,6.1-5.7,10-11.3,12.4c-1.6,0.7-3.4,1.2-5.1,1.8c-1.9,0.7-3.5,1.7-4.4,3.6
			C98.8,43.4,98.5,44.2,97.9,44.8z"/>
		<path class="st2" d="M97.5,45L97.5,45c0.2-0.6,0.5-1.2,0.7-1.8c0.8-2.3,2.2-3.9,4.5-4.6c1.9-0.7,3.8-1.3,5.7-2.1
			c4.5-1.8,8-4.8,10.1-9.3c2.1-4.6,1.3-9-2.3-12.6c-0.5-0.5-1.1-0.8-1.5-1.4c0.2-0.1,0.1-0.1,0.3-0.2c0.4,0.5,1.1,0.4,1.6,0.5
			c5.8,1.6,8.5,6.4,6.7,12.1c-1.8,5.4-5.3,9.5-10.6,11.8c-1.9,0.8-3.9,1.5-5.8,2.1c-2.9,0.9-5.5,2.2-7.6,4.5
			C98.7,44.5,98.3,45,97.5,45z"/>
		<path class="st3" d="M94.1,41.3c0.6,0.2,1.1-1,1.8-0.2c-0.8,0.9-1.3,1.9-2.2,2.7c-1.2,1.1-2.4,1.9-4,2.3c1.5-0.4,2.8-1.1,3.9-2.3
			c0.5-0.5,0.9-1.4,1.9-1.4c0.4,0.3,0.7,0.5,1.1,0.8c-0.4,1.5-1.7,2.3-2.8,3.2c-1.1,0.9-2,1.9-2.1,3.4c-0.1,1.2-0.9,1.4-1.9,1.1
			c-1.1-0.2-1.7-0.6-1.5-1.8c0.2-0.8-0.2-1.3-0.9-1.8c-0.6-0.4-1.2-0.9-0.8-1.8c0.4-0.8,1.1-1.7,1.9-1.5c2.3,0.8,3.3-0.8,4.5-2
			C93.5,41.9,93.8,41.6,94.1,41.3z"/>
		<path class="st4" d="M90,51c1.1-0.1,1.5-0.7,1.3-1.8c-0.2-1.2,0.3-1.9,1.4-2.4c1.7-0.7,2.8-2.2,4-3.5c0.3,0.4,0.1,0.8,0.1,1.3
			c-1.9,1.6-3.9,3.2-4.5,5.9C91.9,52,90.9,51.4,90,51z"/>
		<path class="st5" d="M105.7,20.1c0-2.6,2.9-5,5.4-4.5c0.7,0.1,1.4,0.4,1.6,1.2c0.2,0.8-0.4,1.2-0.9,1.6c-1.2,1-2.5,1.9-3.8,2.8
			c-0.5,0.4-1,1-1.7,0.7C105.5,21.6,105.8,20.7,105.7,20.1z"/>
		<path class="st6" d="M95.6,42.5c-0.8,1.5-2.1,2.6-3.5,3.5c-0.5,0.3-0.9,0.6-1.4,0.9c-0.4,0.3-0.4,1.2-1.2,0.9
			c-0.8-0.3-1.2-1.1-1.5-1.8c-0.3-0.5,0.2-0.9,0.7-0.8c2.8,0.3,4.4-1.6,6-3.3c0.3-0.3,0.7-0.6,1.1-0.6C95.9,41.6,95.3,42,95.6,42.5z
			"/>
	</g>
	<g>
		<path class="st1" d="M97.9,119c-0.3,0.3-0.9,0.2-1.1-0.2l0,0c-0.4-0.2-0.6-0.6-0.8-0.9c-0.2-0.4-0.5-0.6-0.8-0.9l-0.1-0.1
			c-0.1-0.2-0.2-0.4-0.4-0.6c-0.3-0.2-0.6-0.3-0.6-0.8c-0.3-1.3,0.4-2.2,1.3-2.8c2.8-2.2,3.9-5.3,4.7-8.5c0.7-2.8,1.5-5.7,2.7-8.4
			c2-4.4,4.9-7.5,9.9-8.4c0.1,0,0.1,0,0.2-0.1s0.3-0.2,0.5-0.2h1c0.2,0,0.4,0.1,0.5,0.2s0.2,0.2,0.3,0.2c4.2,1.6,6.1,7,5,11.4
			c-1.5,6.1-5.7,10-11.3,12.4c-1.6,0.7-3.4,1.2-5.1,1.8c-1.9,0.7-3.5,1.7-4.4,3.6C98.8,117.6,98.5,118.4,97.9,119z"/>
		<path class="st2" d="M97.5,119.2L97.5,119.2c0.2-0.6,0.5-1.2,0.7-1.8c0.8-2.3,2.2-3.9,4.5-4.6c1.9-0.7,3.8-1.3,5.7-2.1
			c4.5-1.8,8-4.8,10.1-9.3c2.1-4.6,1.3-9-2.3-12.6c-0.5-0.5-1.1-0.8-1.5-1.4c0.2-0.1,0.1-0.1,0.3-0.2c0.4,0.5,1.1,0.4,1.6,0.5
			c5.8,1.6,8.5,6.4,6.7,12.1c-1.8,5.4-5.3,9.5-10.6,11.8c-1.9,0.8-3.9,1.5-5.8,2.1c-2.9,0.9-5.5,2.2-7.6,4.5
			C98.7,118.7,98.3,119.2,97.5,119.2z"/>
		<path class="st3" d="M94.1,115.5c0.6,0.2,1.1-1,1.8-0.2c-0.8,0.8-1.3,1.9-2.1,2.7c-1.2,1.1-2.4,1.9-4,2.3c1.5-0.4,2.8-1.1,3.9-2.3
			c0.5-0.5,0.9-1.4,1.9-1.4c0.4,0.3,0.7,0.5,1.1,0.8c-0.4,1.5-1.7,2.3-2.8,3.2c-1.1,0.9-2,1.9-2.1,3.4c-0.1,1.2-0.9,1.4-1.9,1.1
			c-1.1-0.2-1.7-0.6-1.5-1.8c0.2-0.8-0.2-1.3-0.9-1.8c-0.6-0.4-1.2-0.9-0.8-1.8c0.4-0.8,1.1-1.7,1.9-1.5c2.3,0.8,3.3-0.8,4.5-2
			C93.5,116.1,93.8,115.8,94.1,115.5z"/>
		<path class="st4" d="M90,125.2c1.1-0.1,1.5-0.7,1.3-1.8c-0.2-1.2,0.3-1.9,1.4-2.4c1.7-0.7,2.8-2.2,4-3.5c0.3,0.4,0.1,0.8,0.1,1.3
			c-1.9,1.6-3.9,3.2-4.5,5.9C91.9,126.2,90.9,125.6,90,125.2z"/>
		<path class="st5" d="M105.7,94.3c0-2.6,2.9-5,5.4-4.5c0.7,0.1,1.4,0.4,1.6,1.2c0.2,0.8-0.4,1.2-0.9,1.6c-1.2,1-2.5,1.9-3.8,2.8
			c-0.5,0.4-1,1-1.7,0.7C105.5,95.8,105.8,94.9,105.7,94.3z"/>
		<path class="st6" d="M95.6,116.7c-0.8,1.5-2.1,2.6-3.5,3.5c-0.5,0.3-0.9,0.6-1.4,0.9c-0.4,0.3-0.4,1.2-1.2,0.9
			c-0.8-0.3-1.2-1.1-1.5-1.8c-0.3-0.5,0.2-0.9,0.7-0.8c2.8,0.3,4.4-1.6,6-3.3c0.3-0.3,0.7-0.6,1.1-0.6
			C95.9,115.8,95.3,116.2,95.6,116.7z"/>
	</g>
	<g>
		<path class="st1" d="M28.5,90.8c-0.3,0.3-0.9,0.2-1.1-0.2l0,0c-0.4-0.2-0.6-0.6-0.8-0.9c-0.2-0.4-0.5-0.6-0.8-0.9l-0.1-0.1
			c-0.1-0.2-0.2-0.4-0.4-0.6c-0.3-0.2-0.6-0.3-0.6-0.8c-0.3-1.3,0.4-2.2,1.3-2.8c2.8-2.2,3.9-5.3,4.7-8.5c0.7-2.8,1.5-5.7,2.7-8.4
			c2-4.4,4.9-7.5,9.9-8.4c0.1,0,0.1,0,0.2-0.1c0.1-0.1,0.3-0.2,0.5-0.2h1c0.2,0,0.4,0.1,0.5,0.2c0.1,0.1,0.2,0.2,0.3,0.2
			c4.2,1.6,6.1,7,5,11.4c-1.5,6.1-5.7,10-11.3,12.4c-1.6,0.7-3.4,1.2-5.1,1.8c-1.9,0.7-3.5,1.7-4.4,3.6
			C29.5,89.5,29.1,90.3,28.5,90.8z"/>
		<path class="st2" d="M28.2,91.1C28.2,91.1,28.1,91.1,28.2,91.1c0.2-0.6,0.5-1.2,0.7-1.8c0.8-2.3,2.2-3.9,4.5-4.6
			c1.9-0.7,3.8-1.3,5.7-2.1c4.5-1.8,8-4.8,10.1-9.3c2.1-4.6,1.3-9-2.3-12.6c-0.5-0.5-1.1-0.8-1.5-1.4c0.2-0.1,0.1-0.1,0.3-0.2
			c0.4,0.5,1.1,0.4,1.6,0.5c5.8,1.6,8.5,6.4,6.7,12.1c-1.8,5.4-5.3,9.5-10.6,11.8c-1.9,0.8-3.9,1.5-5.8,2.1
			c-2.9,0.9-5.5,2.2-7.6,4.5C29.3,90.6,28.9,91.1,28.2,91.1z"/>
		<path class="st3" d="M24.7,87.4c0.6,0.2,1.1-1,1.8-0.2c-0.8,0.8-1.3,1.9-2.1,2.7c-1.2,1.1-2.4,1.9-4,2.3c1.5-0.4,2.8-1.1,3.9-2.3
			c0.5-0.5,0.9-1.4,1.9-1.4c0.4,0.3,0.7,0.5,1.1,0.8c-0.4,1.5-1.7,2.3-2.8,3.2c-1.1,0.9-2,1.9-2.1,3.4c0,1.2-0.8,1.4-1.8,1.1
			c-1.1-0.2-1.7-0.6-1.5-1.8c0.2-0.8-0.2-1.3-0.9-1.8c-0.6-0.4-1.2-0.9-0.8-1.8c0.4-0.8,1.1-1.7,1.9-1.5c2.3,0.8,3.3-0.8,4.5-2
			C24.2,87.9,24.4,87.6,24.7,87.4z"/>
		<path class="st4" d="M20.6,97c1.1-0.1,1.5-0.7,1.3-1.8c-0.2-1.2,0.3-1.9,1.4-2.4c1.7-0.7,2.8-2.2,4-3.5c0.3,0.4,0.1,0.8,0.1,1.3
			c-1.9,1.6-3.9,3.2-4.5,5.9C22.5,98,21.5,97.5,20.6,97z"/>
		<path class="st5" d="M36.3,66.2c0-2.6,2.9-5,5.4-4.5c0.7,0.1,1.4,0.4,1.6,1.2c0.2,0.8-0.4,1.2-0.9,1.6c-1.2,1-2.5,1.9-3.8,2.8
			c-0.5,0.4-1,1-1.7,0.7C36.1,67.6,36.4,66.8,36.3,66.2z"/>
		<path class="st6" d="M26.2,88.5c-0.8,1.5-2.1,2.6-3.5,3.5c-0.5,0.3-0.9,0.6-1.4,0.9c-0.4,0.3-0.4,1.2-1.2,0.9
			c-0.8-0.3-1.2-1.1-1.5-1.8c-0.3-0.5,0.2-0.9,0.7-0.8c2.8,0.3,4.4-1.6,6-3.3c0.3-0.3,0.7-0.6,1.1-0.6C26.6,87.7,26,88,26.2,88.5z"
			/>
	</g>
	<g>
		<path class="st1" d="M27.1,165c-0.3,0.3-0.9,0.2-1.1-0.2l0,0c-0.4-0.2-0.6-0.6-0.8-0.9c-0.2-0.4-0.5-0.6-0.8-0.9l-0.1-0.1
			c-0.1-0.2-0.2-0.4-0.4-0.6c-0.3-0.2-0.6-0.3-0.6-0.8c-0.3-1.3,0.4-2.2,1.3-2.8c2.8-2.2,3.9-5.3,4.7-8.5c0.7-2.8,1.5-5.7,2.7-8.4
			c2-4.4,4.9-7.5,9.9-8.4c0.1,0,0.1,0,0.2-0.1c0.1-0.1,0.3-0.2,0.5-0.2h1c0.2,0,0.4,0.1,0.5,0.2c0.1,0.1,0.2,0.2,0.3,0.2
			c4.2,1.6,6.1,7,5,11.4c-1.5,6.1-5.7,10-11.3,12.4c-1.6,0.7-3.4,1.2-5.1,1.8c-1.9,0.7-3.5,1.7-4.4,3.6
			C28.1,163.7,27.7,164.5,27.1,165z"/>
		<path class="st2" d="M26.7,165.3L26.7,165.3c0.2-0.6,0.5-1.2,0.7-1.8c0.8-2.3,2.2-3.9,4.5-4.6c1.9-0.7,3.8-1.3,5.7-2.1
			c4.5-1.8,8-4.8,10.1-9.3c2.1-4.6,1.3-9-2.3-12.6c-0.5-0.5-1.1-0.8-1.5-1.4c0.2-0.1,0.1-0.1,0.3-0.2c0.4,0.5,1.1,0.4,1.6,0.5
			c5.8,1.6,8.5,6.4,6.7,12.1c-1.8,5.4-5.3,9.5-10.6,11.8c-1.9,0.8-3.9,1.5-5.8,2.1c-2.9,0.9-5.5,2.2-7.6,4.5
			C27.9,164.8,27.5,165.3,26.7,165.3z"/>
		<path class="st3" d="M23.3,161.6c0.6,0.2,1.1-1,1.8-0.2c-0.8,0.8-1.3,1.9-2.1,2.7c-1.2,1.1-2.4,1.9-4,2.3c1.5-0.4,2.8-1.1,3.9-2.3
			c0.5-0.5,0.9-1.4,1.9-1.4c0.4,0.3,0.7,0.5,1.1,0.8c-0.4,1.5-1.7,2.3-2.8,3.2c-1.1,0.9-2,1.9-2.1,3.4c-0.1,1.2-0.9,1.4-1.9,1.1
			c-1.1-0.2-1.7-0.6-1.5-1.8c0.2-0.8-0.2-1.3-0.9-1.8c-0.6-0.4-1.2-0.9-0.8-1.8c0.4-0.8,1.1-1.7,1.9-1.5c2.3,0.8,3.3-0.8,4.5-2
			C22.7,162.1,23,161.8,23.3,161.6z"/>
		<path class="st4" d="M19.2,171.2c1.1-0.1,1.5-0.7,1.3-1.8c-0.2-1.2,0.3-1.9,1.4-2.4c1.7-0.7,2.8-2.2,4-3.5
			c0.3,0.4,0.1,0.8,0.1,1.3c-1.9,1.6-3.9,3.2-4.5,5.9C21.1,172.2,20.1,171.7,19.2,171.2z"/>
		<path class="st5" d="M34.9,140.4c0-2.6,2.9-5,5.4-4.5c0.7,0.1,1.4,0.4,1.6,1.2c0.2,0.8-0.4,1.2-0.9,1.6c-1.2,1-2.5,1.9-3.8,2.8
			c-0.5,0.4-1,1-1.7,0.7C34.7,141.8,35,141,34.9,140.4z"/>
		<path class="st6" d="M24.8,162.7c-0.8,1.5-2.1,2.6-3.5,3.5c-0.5,0.3-0.9,0.6-1.4,0.9c-0.4,0.3-0.4,1.2-1.2,0.9
			c-0.8-0.3-1.2-1.1-1.5-1.8c-0.3-0.5,0.2-0.9,0.7-0.8c2.8,0.3,4.4-1.6,6-3.3c0.3-0.3,0.7-0.6,1.1-0.6
			C25.1,161.9,24.5,162.2,24.8,162.7z"/>
	</g>
	<g>
		<path class="st1" d="M97.9,194c-0.3,0.3-0.9,0.2-1.1-0.2l0,0c-0.4-0.2-0.6-0.6-0.8-0.9c-0.2-0.4-0.5-0.6-0.8-0.9l-0.1-0.1
			c-0.1-0.2-0.2-0.4-0.4-0.6c-0.3-0.2-0.6-0.3-0.6-0.8c-0.3-1.3,0.4-2.2,1.3-2.8c2.8-2.2,3.9-5.3,4.7-8.5c0.7-2.8,1.5-5.7,2.7-8.4
			c2-4.4,4.9-7.5,9.9-8.4c0.1,0,0.1,0,0.2-0.1s0.3-0.2,0.5-0.2h1c0.2,0,0.4,0.1,0.5,0.2c0.1,0.1,0.2,0.2,0.3,0.2
			c4.2,1.6,6.1,7,5,11.4c-1.5,6.1-5.7,10-11.3,12.4c-1.6,0.7-3.4,1.2-5.1,1.8c-1.9,0.7-3.5,1.7-4.4,3.6
			C98.8,192.7,98.5,193.5,97.9,194z"/>
		<path class="st2" d="M97.5,194.3C97.5,194.3,97.5,194.2,97.5,194.3c0.2-0.6,0.5-1.2,0.7-1.8c0.8-2.3,2.2-3.9,4.5-4.6
			c1.9-0.7,3.8-1.3,5.7-2.1c4.5-1.8,8-4.8,10.1-9.3c2.1-4.6,1.3-9-2.3-12.6c-0.5-0.5-1.1-0.8-1.5-1.4c0.2-0.1,0.1-0.1,0.3-0.2
			c0.4,0.5,1.1,0.4,1.6,0.5c5.8,1.6,8.5,6.4,6.7,12.1c-1.8,5.4-5.3,9.5-10.6,11.8c-1.9,0.8-3.9,1.5-5.8,2.1
			c-2.9,0.9-5.5,2.2-7.6,4.5C98.7,193.8,98.3,194.3,97.5,194.3z"/>
		<path class="st3" d="M94.1,190.6c0.6,0.2,1.1-1,1.8-0.2c-0.8,0.8-1.3,1.9-2.1,2.7c-1.2,1.1-2.4,1.9-4,2.3c1.5-0.4,2.8-1.1,3.9-2.3
			c0.5-0.5,0.9-1.4,1.9-1.4c0.4,0.3,0.7,0.5,1.1,0.8c-0.4,1.5-1.7,2.3-2.8,3.2c-1.1,0.9-2,1.9-2.1,3.4c-0.1,1.2-0.9,1.4-1.9,1.1
			c-1.1-0.2-1.7-0.6-1.5-1.8c0.2-0.8-0.2-1.3-0.9-1.8c-0.6-0.4-1.2-0.9-0.8-1.8c0.4-0.8,1.1-1.7,1.9-1.5c2.3,0.8,3.3-0.8,4.5-2
			C93.5,191.1,93.8,190.8,94.1,190.6z"/>
		<path class="st4" d="M90,200.2c1.1-0.1,1.5-0.7,1.3-1.8c-0.2-1.2,0.3-1.9,1.4-2.4c1.7-0.7,2.8-2.2,4-3.5c0.3,0.4,0.1,0.8,0.1,1.3
			c-1.9,1.6-3.9,3.2-4.5,5.9C91.9,201.2,90.9,200.7,90,200.2z"/>
		<path class="st5" d="M105.7,169.4c0-2.6,2.9-5,5.4-4.5c0.7,0.1,1.4,0.4,1.6,1.2s-0.4,1.2-0.9,1.6c-1.2,1-2.5,1.9-3.8,2.8
			c-0.5,0.4-1,1-1.7,0.7C105.5,170.8,105.8,170,105.7,169.4z"/>
		<path class="st6" d="M95.6,191.7c-0.8,1.5-2.1,2.6-3.5,3.5c-0.5,0.3-0.9,0.6-1.4,0.9c-0.4,0.3-0.4,1.2-1.2,0.9
			c-0.8-0.3-1.2-1.1-1.5-1.8c-0.3-0.5,0.2-0.9,0.7-0.8c2.8,0.3,4.4-1.6,6-3.3c0.3-0.3,0.7-0.6,1.1-0.6
			C95.9,190.9,95.3,191.2,95.6,191.7z"/>
	</g>
</g>
<g>
	<rect x="137.7" y="0.1" class="st0" width="139.9" height="210.3"/>
	<g>
		<path class="st1" d="M235.5,44.8c-0.3,0.3-0.9,0.2-1.1-0.2l0,0c-0.4-0.2-0.6-0.6-0.8-0.9c-0.2-0.4-0.5-0.6-0.8-0.9l-0.1-0.1
			c-0.1-0.2-0.2-0.4-0.4-0.6c-0.3-0.2-0.6-0.3-0.6-0.8c-0.3-1.3,0.4-2.2,1.3-2.8c2.8-2.2,3.9-5.3,4.7-8.5c0.7-2.8,1.5-5.7,2.7-8.4
			c2-4.4,4.9-7.5,9.9-8.4c0.1,0,0.1,0,0.2-0.1c0.1-0.1,0.3-0.2,0.5-0.2h1c0.2,0,0.4,0.1,0.5,0.2c0.1,0.1,0.2,0.2,0.3,0.2
			c4.2,1.6,6.1,7,5,11.4c-1.5,6.1-5.7,10-11.3,12.4c-1.6,0.7-3.4,1.2-5.1,1.8c-1.9,0.7-3.5,1.7-4.4,3.6
			C236.5,43.4,236.2,44.2,235.5,44.8z"/>
		<path class="st2" d="M235.2,45L235.2,45c0.2-0.6,0.5-1.2,0.7-1.8c0.8-2.3,2.2-3.9,4.5-4.6c1.9-0.7,3.8-1.3,5.7-2.1
			c4.5-1.8,8-4.8,10.1-9.3c2.1-4.6,1.3-9-2.3-12.6c-0.5-0.5-1.1-0.8-1.5-1.4c0.2-0.1,0.1-0.1,0.3-0.2c0.4,0.5,1.1,0.4,1.6,0.5
			c5.8,1.6,8.5,6.4,6.7,12.1c-1.8,5.4-5.3,9.5-10.6,11.8c-1.9,0.8-3.9,1.5-5.8,2.1c-2.9,0.9-5.5,2.2-7.6,4.5
			C236.4,44.5,235.9,45,235.2,45z"/>
		<path class="st3" d="M231.7,41.3c0.6,0.2,1.1-1,1.8-0.2c-0.8,0.8-1.3,1.9-2.1,2.7c-1.2,1.1-2.4,1.9-4,2.3c1.5-0.4,2.8-1.1,3.9-2.3
			c0.5-0.5,0.9-1.4,1.9-1.4c0.4,0.3,0.7,0.5,1.1,0.8c-0.4,1.5-1.7,2.3-2.8,3.2s-2,1.9-2.1,3.4c-0.1,1.2-0.9,1.4-1.9,1.1
			c-1.1-0.2-1.7-0.6-1.5-1.8c0.2-0.8-0.2-1.3-0.9-1.8c-0.6-0.4-1.2-0.9-0.8-1.8c0.4-0.8,1.1-1.7,1.9-1.5c2.3,0.8,3.3-0.8,4.5-2
			C231.2,41.9,231.5,41.6,231.7,41.3z"/>
		<path class="st4" d="M227.6,51c1.1-0.1,1.5-0.7,1.3-1.8c-0.2-1.2,0.3-1.9,1.4-2.4c1.7-0.7,2.8-2.2,4-3.5c0.3,0.4,0.1,0.8,0.1,1.3
			c-1.9,1.6-3.9,3.2-4.5,5.9C229.6,52,228.6,51.4,227.6,51z"/>
		<path class="st5" d="M243.4,20.1c0-2.6,2.9-5,5.4-4.5c0.7,0.1,1.4,0.4,1.6,1.2c0.2,0.8-0.4,1.2-0.9,1.6c-1.2,1-2.5,1.9-3.8,2.8
			c-0.5,0.4-1,1-1.7,0.7C243.2,21.6,243.4,20.7,243.4,20.1z"/>
		<path class="st6" d="M233.3,42.5c-0.8,1.5-2.1,2.6-3.5,3.5c-0.5,0.3-0.9,0.6-1.4,0.9c-0.4,0.3-0.4,1.2-1.2,0.9s-1.2-1.1-1.5-1.8
			c-0.3-0.5,0.2-0.9,0.7-0.8c2.8,0.3,4.4-1.6,6-3.3c0.3-0.3,0.7-0.6,1.1-0.6C233.6,41.6,233,42,233.3,42.5z"/>
	</g>
	<g>
		<path class="st1" d="M235.5,119c-0.3,0.3-0.9,0.2-1.1-0.2l0,0c-0.4-0.2-0.6-0.6-0.8-0.9c-0.2-0.4-0.5-0.6-0.8-0.9l-0.1-0.1
			c-0.1-0.2-0.2-0.4-0.4-0.6c-0.3-0.2-0.6-0.3-0.6-0.8c-0.3-1.3,0.4-2.2,1.3-2.8c2.8-2.2,3.9-5.3,4.7-8.5c0.7-2.8,1.5-5.7,2.7-8.4
			c2-4.4,4.9-7.5,9.9-8.4c0.1,0,0.1,0,0.2-0.1c0.1-0.1,0.3-0.2,0.5-0.2h1c0.2,0,0.4,0.1,0.5,0.2s0.2,0.2,0.3,0.2
			c4.2,1.6,6.1,7,5,11.4c-1.5,6.1-5.7,10-11.3,12.4c-1.6,0.7-3.4,1.2-5.1,1.8c-1.9,0.7-3.5,1.7-4.4,3.6
			C236.5,117.6,236.2,118.4,235.5,119z"/>
		<path class="st2" d="M235.2,119.2L235.2,119.2c0.2-0.6,0.5-1.2,0.7-1.8c0.8-2.3,2.2-3.9,4.5-4.6c1.9-0.7,3.8-1.3,5.7-2.1
			c4.5-1.8,8-4.8,10.1-9.3c2.1-4.6,1.3-9-2.3-12.6c-0.5-0.5-1.1-0.8-1.5-1.4c0.2-0.1,0.1-0.1,0.3-0.2c0.4,0.5,1.1,0.4,1.6,0.5
			c5.8,1.6,8.5,6.4,6.7,12.1c-1.8,5.4-5.3,9.5-10.6,11.8c-1.9,0.8-3.9,1.5-5.8,2.1c-2.9,0.9-5.5,2.2-7.6,4.5
			C236.4,118.7,235.9,119.2,235.2,119.2z"/>
		<path class="st3" d="M231.7,115.5c0.6,0.2,1.1-1,1.8-0.2c-0.8,0.8-1.3,1.9-2.1,2.7c-1.2,1.1-2.4,1.9-4,2.3
			c1.5-0.4,2.8-1.1,3.9-2.3c0.5-0.5,0.9-1.4,1.9-1.4c0.4,0.3,0.7,0.5,1.1,0.8c-0.4,1.5-1.7,2.3-2.8,3.2c-1.1,0.9-2,1.9-2.1,3.4
			c-0.1,1.2-0.9,1.4-1.9,1.1c-1.1-0.2-1.7-0.6-1.5-1.8c0.2-0.8-0.2-1.3-0.9-1.8c-0.6-0.4-1.2-0.9-0.8-1.8c0.4-0.8,1.1-1.7,1.9-1.5
			c2.3,0.8,3.3-0.8,4.5-2C231.2,116.1,231.5,115.8,231.7,115.5z"/>
		<path class="st4" d="M227.6,125.2c1.1-0.1,1.5-0.7,1.3-1.8c-0.2-1.2,0.3-1.9,1.4-2.4c1.7-0.7,2.8-2.2,4-3.5
			c0.3,0.4,0.1,0.8,0.1,1.3c-1.9,1.6-3.9,3.2-4.5,5.9C229.6,126.2,228.6,125.6,227.6,125.2z"/>
		<path class="st5" d="M243.4,94.3c0-2.6,2.9-5,5.4-4.5c0.7,0.1,1.4,0.4,1.6,1.2c0.2,0.8-0.4,1.2-0.9,1.6c-1.2,1-2.5,1.9-3.8,2.8
			c-0.5,0.4-1,1-1.7,0.7C243.2,95.8,243.4,94.9,243.4,94.3z"/>
		<path class="st6" d="M233.3,116.7c-0.8,1.5-2.1,2.6-3.5,3.5c-0.5,0.3-0.9,0.6-1.4,0.9c-0.4,0.3-0.4,1.2-1.2,0.9
			c-0.8-0.3-1.2-1.1-1.5-1.8c-0.3-0.5,0.2-0.9,0.7-0.8c2.8,0.3,4.4-1.6,6-3.3c0.3-0.3,0.7-0.6,1.1-0.6
			C233.6,115.8,233,116.2,233.3,116.7z"/>
	</g>
	<g>
		<path class="st1" d="M166.2,90.8c-0.3,0.3-0.9,0.2-1.1-0.2l0,0c-0.4-0.2-0.6-0.6-0.8-0.9c-0.2-0.4-0.5-0.6-0.8-0.9l-0.1-0.1
			c-0.1-0.2-0.2-0.4-0.4-0.6c-0.3-0.2-0.6-0.3-0.6-0.8c-0.3-1.3,0.4-2.2,1.3-2.8c2.8-2.2,3.9-5.3,4.7-8.5c0.7-2.8,1.5-5.7,2.7-8.4
			c2-4.4,4.9-7.5,9.9-8.4c0.1,0,0.1,0,0.2-0.1c0.1-0.1,0.3-0.2,0.5-0.2h1c0.2,0,0.4,0.1,0.5,0.2c0.1,0.1,0.2,0.2,0.3,0.2
			c4.2,1.6,6.1,7,5,11.4c-1.5,6.1-5.7,10-11.3,12.4c-1.6,0.7-3.4,1.2-5.1,1.8c-1.9,0.7-3.5,1.7-4.4,3.6
			C167.2,89.5,166.8,90.3,166.2,90.8z"/>
		<path class="st2" d="M165.8,91.1L165.8,91.1c0.2-0.6,0.5-1.2,0.7-1.8c0.8-2.3,2.2-3.9,4.5-4.6c1.9-0.7,3.8-1.3,5.7-2.1
			c4.5-1.8,8-4.8,10.1-9.3c2.1-4.6,1.3-9-2.3-12.6c-0.5-0.5-1.1-0.8-1.5-1.4c0.2-0.1,0.1-0.1,0.3-0.2c0.4,0.5,1.1,0.4,1.6,0.5
			c5.8,1.6,8.5,6.4,6.7,12.1c-1.8,5.4-5.3,9.5-10.6,11.8c-1.9,0.8-3.9,1.5-5.8,2.1c-2.9,0.9-5.5,2.2-7.6,4.5
			C167,90.6,166.6,91.1,165.8,91.1z"/>
		<path class="st3" d="M162.4,87.4c0.6,0.2,1.1-1,1.8-0.2c-0.8,0.8-1.3,1.9-2.1,2.7c-1.2,1.1-2.4,1.9-4,2.3c1.5-0.4,2.8-1.1,3.9-2.3
			c0.5-0.5,0.9-1.4,1.9-1.4c0.4,0.3,0.7,0.5,1.1,0.8c-0.4,1.5-1.7,2.3-2.8,3.2c-1.1,0.9-2,1.9-2.1,3.4c-0.1,1.2-0.9,1.4-1.9,1.1
			c-1.1-0.2-1.7-0.6-1.5-1.8c0.2-0.8-0.2-1.3-0.9-1.8c-0.6-0.4-1.2-0.9-0.8-1.8c0.4-0.8,1.1-1.7,1.9-1.5c2.3,0.8,3.3-0.8,4.5-2
			C161.8,87.9,162.1,87.6,162.4,87.4z"/>
		<path class="st4" d="M158.3,97c1.1-0.1,1.5-0.7,1.3-1.8c-0.2-1.2,0.3-1.9,1.4-2.4c1.7-0.7,2.8-2.2,4-3.5c0.3,0.4,0.1,0.8,0.1,1.3
			c-1.9,1.6-3.9,3.2-4.5,5.9C160.2,98,159.2,97.5,158.3,97z"/>
		<path class="st5" d="M174,66.2c0-2.6,2.9-5,5.4-4.5c0.7,0.1,1.4,0.4,1.6,1.2c0.2,0.8-0.4,1.2-0.9,1.6c-1.2,1-2.5,1.9-3.8,2.8
			c-0.5,0.4-1,1-1.7,0.7C173.8,67.6,174.1,66.8,174,66.2z"/>
		<path class="st6" d="M163.9,88.5c-0.8,1.5-2.1,2.6-3.5,3.5c-0.5,0.3-0.9,0.6-1.4,0.9c-0.4,0.3-0.4,1.2-1.2,0.9
			c-0.8-0.3-1.2-1.1-1.5-1.8c-0.3-0.5,0.2-0.9,0.7-0.8c2.8,0.3,4.4-1.6,6-3.3c0.3-0.3,0.7-0.6,1.1-0.6
			C164.2,87.7,163.7,88,163.9,88.5z"/>
	</g>
	<g>
		<path class="st1" d="M164.7,165c-0.3,0.3-0.9,0.2-1.1-0.2l0,0c-0.4-0.2-0.6-0.6-0.8-0.9c-0.2-0.4-0.5-0.6-0.8-0.9l-0.1-0.1
			c-0.1-0.2-0.2-0.4-0.4-0.6c-0.3-0.2-0.6-0.3-0.6-0.8c-0.3-1.3,0.4-2.2,1.3-2.8c2.8-2.2,3.9-5.3,4.7-8.5c0.7-2.8,1.5-5.7,2.7-8.4
			c2-4.4,4.9-7.5,9.9-8.4c0.1,0,0.1,0,0.2-0.1c0.1-0.1,0.3-0.2,0.5-0.2h1c0.2,0,0.4,0.1,0.5,0.2c0.1,0.1,0.2,0.2,0.3,0.2
			c4.2,1.6,6.1,7,5,11.4c-1.5,6.1-5.7,10-11.3,12.4c-1.6,0.7-3.4,1.2-5.1,1.8c-1.9,0.7-3.5,1.7-4.4,3.6
			C165.7,163.7,165.4,164.5,164.7,165z"/>
		<path class="st2" d="M164.4,165.3L164.4,165.3c0.2-0.6,0.5-1.2,0.7-1.8c0.8-2.3,2.2-3.9,4.5-4.6c1.9-0.7,3.8-1.3,5.7-2.1
			c4.5-1.8,8-4.8,10.1-9.3c2.1-4.6,1.3-9-2.3-12.6c-0.5-0.5-1.1-0.8-1.5-1.4c0.2-0.1,0.1-0.1,0.3-0.2c0.4,0.5,1.1,0.4,1.6,0.5
			c5.8,1.6,8.5,6.4,6.7,12.1c-1.8,5.4-5.3,9.5-10.6,11.8c-1.9,0.8-3.9,1.5-5.8,2.1c-2.9,0.9-5.5,2.2-7.6,4.5
			C165.6,164.8,165.2,165.3,164.4,165.3z"/>
		<path class="st3" d="M160.9,161.6c0.6,0.2,1.1-1,1.8-0.2c-0.8,0.8-1.3,1.9-2.1,2.7c-1.2,1.1-2.4,1.9-4,2.3
			c1.5-0.4,2.8-1.1,3.9-2.3c0.5-0.5,0.9-1.4,1.9-1.4c0.4,0.3,0.7,0.5,1.1,0.8c-0.4,1.5-1.7,2.3-2.8,3.2s-2,1.9-2.1,3.4
			c-0.1,1.2-0.9,1.4-1.9,1.1c-1.1-0.2-1.7-0.6-1.5-1.8c0.2-0.8-0.2-1.3-0.9-1.8c-0.6-0.4-1.2-0.9-0.8-1.8c0.4-0.8,1.1-1.7,1.9-1.5
			c2.3,0.8,3.3-0.8,4.5-2C160.4,162.1,160.7,161.8,160.9,161.6z"/>
		<path class="st4" d="M156.9,171.2c1.1-0.1,1.5-0.7,1.3-1.8c-0.2-1.2,0.3-1.9,1.4-2.4c1.7-0.7,2.8-2.2,4-3.5
			c0.3,0.4,0.1,0.8,0.1,1.3c-1.9,1.6-3.9,3.2-4.5,5.9C158.8,172.2,157.8,171.7,156.9,171.2z"/>
		<path class="st5" d="M172.6,140.4c0-2.6,2.9-5,5.4-4.5c0.7,0.1,1.4,0.4,1.6,1.2c0.2,0.8-0.4,1.2-0.9,1.6c-1.2,1-2.5,1.9-3.8,2.8
			c-0.5,0.4-1,1-1.7,0.7C172.4,141.8,172.7,141,172.6,140.4z"/>
		<path class="st6" d="M162.5,162.7c-0.8,1.5-2.1,2.6-3.5,3.5c-0.5,0.3-0.9,0.6-1.4,0.9c-0.4,0.3-0.4,1.2-1.2,0.9s-1.2-1.1-1.5-1.8
			c-0.3-0.5,0.2-0.9,0.7-0.8c2.8,0.3,4.4-1.6,6-3.3c0.3-0.3,0.7-0.6,1.1-0.6C162.8,161.9,162.2,162.2,162.5,162.7z"/>
	</g>
	<g>
		<path class="st1" d="M235.5,194c-0.3,0.3-0.9,0.2-1.1-0.2l0,0c-0.4-0.2-0.6-0.6-0.8-0.9c-0.2-0.4-0.5-0.6-0.8-0.9l-0.1-0.1
			c-0.1-0.2-0.2-0.4-0.4-0.6c-0.3-0.2-0.6-0.3-0.6-0.8c-0.3-1.3,0.4-2.2,1.3-2.8c2.8-2.2,3.9-5.3,4.7-8.5c0.7-2.8,1.5-5.7,2.7-8.4
			c2-4.4,4.9-7.5,9.9-8.4c0.1,0,0.1,0,0.2-0.1c0.1-0.1,0.3-0.2,0.5-0.2h1c0.2,0,0.4,0.1,0.5,0.2c0.1,0.1,0.2,0.2,0.3,0.2
			c4.2,1.6,6.1,7,5,11.4c-1.5,6.1-5.7,10-11.3,12.4c-1.6,0.7-3.4,1.2-5.1,1.8c-1.9,0.7-3.5,1.7-4.4,3.6
			C236.5,192.7,236.2,193.5,235.5,194z"/>
		<path class="st2" d="M235.2,194.3C235.2,194.3,235.2,194.2,235.2,194.3c0.2-0.6,0.5-1.2,0.7-1.8c0.8-2.3,2.2-3.9,4.5-4.6
			c1.9-0.7,3.8-1.3,5.7-2.1c4.5-1.8,8-4.8,10.1-9.3c2.1-4.6,1.3-9-2.3-12.6c-0.5-0.5-1.1-0.8-1.5-1.4c0.2-0.1,0.1-0.1,0.3-0.2
			c0.4,0.5,1.1,0.4,1.6,0.5c5.8,1.6,8.5,6.4,6.7,12.1c-1.8,5.4-5.3,9.5-10.6,11.8c-1.9,0.8-3.9,1.5-5.8,2.1
			c-2.9,0.9-5.5,2.2-7.6,4.5C236.4,193.8,235.9,194.3,235.2,194.3z"/>
		<path class="st3" d="M231.7,190.6c0.6,0.2,1.1-1,1.8-0.2c-0.8,0.8-1.3,1.9-2.1,2.7c-1.2,1.1-2.4,1.9-4,2.3
			c1.5-0.4,2.8-1.1,3.9-2.3c0.5-0.5,0.9-1.4,1.9-1.4c0.4,0.3,0.7,0.5,1.1,0.8c-0.4,1.5-1.7,2.3-2.8,3.2s-2,1.9-2.1,3.4
			c-0.1,1.2-0.9,1.4-1.9,1.1c-1.1-0.2-1.7-0.6-1.5-1.8c0.2-0.8-0.2-1.3-0.9-1.8c-0.6-0.4-1.2-0.9-0.8-1.8c0.4-0.8,1.1-1.7,1.9-1.5
			c2.3,0.8,3.3-0.8,4.5-2C231.2,191.1,231.5,190.8,231.7,190.6z"/>
		<path class="st4" d="M227.6,200.2c1.1-0.1,1.5-0.7,1.3-1.8c-0.2-1.2,0.3-1.9,1.4-2.4c1.7-0.7,2.8-2.2,4-3.5
			c0.3,0.4,0.1,0.8,0.1,1.3c-1.9,1.6-3.9,3.2-4.5,5.9C229.6,201.2,228.6,200.7,227.6,200.2z"/>
		<path class="st5" d="M243.4,169.4c0-2.6,2.9-5,5.4-4.5c0.7,0.1,1.4,0.4,1.6,1.2c0.2,0.8-0.4,1.2-0.9,1.6c-1.2,1-2.5,1.9-3.8,2.8
			c-0.5,0.4-1,1-1.7,0.7C243.2,170.8,243.4,170,243.4,169.4z"/>
		<path class="st6" d="M233.3,191.7c-0.8,1.5-2.1,2.6-3.5,3.5c-0.5,0.3-0.9,0.6-1.4,0.9c-0.4,0.3-0.4,1.2-1.2,0.9s-1.2-1.1-1.5-1.8
			c-0.3-0.5,0.2-0.9,0.7-0.8c2.8,0.3,4.4-1.6,6-3.3c0.3-0.3,0.7-0.6,1.1-0.6C233.6,190.9,233,191.2,233.3,191.7z"/>
	</g>
</g>
<g>
	<rect x="277" y="0.1" class="st0" width="139.9" height="210.3"/>
	<g>
		<path class="st1" d="M374.8,44.8c-0.3,0.3-0.9,0.2-1.1-0.2l0,0c-0.4-0.2-0.6-0.6-0.8-0.9c-0.2-0.4-0.5-0.6-0.8-0.9l-0.1-0.1
			c-0.1-0.2-0.2-0.4-0.4-0.6c-0.3-0.2-0.6-0.3-0.6-0.8c-0.3-1.3,0.4-2.2,1.3-2.8c2.8-2.2,3.9-5.3,4.7-8.5c0.7-2.8,1.5-5.7,2.7-8.4
			c2-4.4,4.9-7.5,9.9-8.4c0.1,0,0.1,0,0.2-0.1s0.3-0.2,0.5-0.2h1c0.2,0,0.4,0.1,0.5,0.2c0.1,0.1,0.2,0.2,0.3,0.2
			c4.2,1.6,6.1,7,5,11.4c-1.5,6.1-5.7,10-11.3,12.4c-1.6,0.7-3.4,1.2-5.1,1.8c-1.9,0.7-3.5,1.7-4.4,3.6
			C375.8,43.4,375.4,44.2,374.8,44.8z"/>
		<path class="st2" d="M374.5,45C374.4,45,374.4,45,374.5,45c0.2-0.6,0.5-1.2,0.7-1.8c0.8-2.3,2.2-3.9,4.5-4.6
			c1.9-0.7,3.8-1.3,5.7-2.1c4.5-1.8,8-4.8,10.1-9.3c2.1-4.6,1.3-9-2.3-12.6c-0.5-0.5-1.1-0.8-1.5-1.4c0.2-0.1,0.1-0.1,0.3-0.2
			c0.4,0.5,1.1,0.4,1.6,0.5c5.8,1.6,8.5,6.4,6.7,12.1c-1.8,5.4-5.3,9.5-10.6,11.8c-1.9,0.8-3.9,1.5-5.8,2.1
			c-2.9,0.9-5.5,2.2-7.6,4.5C375.6,44.5,375.2,45,374.5,45z"/>
		<path class="st3" d="M371,41.3c0.6,0.2,1.1-1,1.8-0.2c-0.8,0.8-1.3,1.9-2.1,2.7c-1.2,1.1-2.4,1.9-4,2.3c1.5-0.4,2.8-1.1,3.9-2.3
			c0.5-0.5,0.9-1.4,1.9-1.4c0.4,0.3,0.7,0.5,1.1,0.8c-0.4,1.5-1.7,2.3-2.8,3.2c-1.1,0.9-2,1.9-2.1,3.4c-0.1,1.2-0.9,1.4-1.9,1.1
			c-1.1-0.2-1.7-0.6-1.5-1.8c0.2-0.8-0.2-1.3-0.9-1.8c-0.6-0.4-1.2-0.9-0.8-1.8c0.4-0.8,1.1-1.7,1.9-1.5c2.3,0.8,3.3-0.8,4.5-2
			C370.4,41.9,370.7,41.6,371,41.3z"/>
		<path class="st4" d="M366.9,51c1.1-0.1,1.5-0.7,1.3-1.8c-0.2-1.2,0.3-1.9,1.4-2.4c1.7-0.7,2.8-2.2,4-3.5c0.3,0.4,0.1,0.8,0.1,1.3
			c-1.9,1.6-3.9,3.2-4.5,5.9C368.8,52,367.8,51.4,366.9,51z"/>
		<path class="st5" d="M382.6,20.1c0-2.6,2.9-5,5.4-4.5c0.7,0.1,1.4,0.4,1.6,1.2c0.2,0.8-0.4,1.2-0.9,1.6c-1.2,1-2.5,1.9-3.8,2.8
			c-0.5,0.4-1,1-1.7,0.7C382.4,21.6,382.7,20.7,382.6,20.1z"/>
		<path class="st6" d="M372.5,42.5c-0.8,1.5-2.1,2.6-3.5,3.5c-0.5,0.3-0.9,0.6-1.4,0.9c-0.4,0.3-0.4,1.2-1.2,0.9
			c-0.8-0.3-1.2-1.1-1.5-1.8c-0.3-0.5,0.2-0.9,0.7-0.8c2.8,0.3,4.4-1.6,6-3.3c0.3-0.3,0.7-0.6,1.1-0.6
			C372.9,41.6,372.3,42,372.5,42.5z"/>
	</g>
	<g>
		<path class="st1" d="M374.8,119c-0.3,0.3-0.9,0.2-1.1-0.2l0,0c-0.4-0.2-0.6-0.6-0.8-0.9c-0.2-0.4-0.5-0.6-0.8-0.9l-0.1-0.1
			c-0.1-0.2-0.2-0.4-0.4-0.6c-0.3-0.2-0.6-0.3-0.6-0.8c-0.3-1.3,0.4-2.2,1.3-2.8c2.8-2.2,3.9-5.3,4.7-8.5c0.7-2.8,1.5-5.7,2.7-8.4
			c2-4.4,4.9-7.5,9.9-8.4c0.1,0,0.1,0,0.2-0.1s0.3-0.2,0.5-0.2h1c0.2,0,0.4,0.1,0.5,0.2s0.2,0.2,0.3,0.2c4.2,1.6,6.1,7,5,11.4
			c-1.5,6.1-5.7,10-11.3,12.4c-1.6,0.7-3.4,1.2-5.1,1.8c-1.9,0.7-3.5,1.7-4.4,3.6C375.8,117.6,375.4,118.4,374.8,119z"/>
		<path class="st2" d="M374.5,119.2C374.4,119.2,374.4,119.2,374.5,119.2c0.2-0.6,0.5-1.2,0.7-1.8c0.8-2.3,2.2-3.9,4.5-4.6
			c1.9-0.7,3.8-1.3,5.7-2.1c4.5-1.8,8-4.8,10.1-9.3c2.1-4.6,1.3-9-2.3-12.6c-0.5-0.5-1.1-0.8-1.5-1.4c0.2-0.1,0.1-0.1,0.3-0.2
			c0.4,0.5,1.1,0.4,1.6,0.5c5.8,1.6,8.5,6.4,6.7,12.1c-1.8,5.4-5.3,9.5-10.6,11.8c-1.9,0.8-3.9,1.5-5.8,2.1
			c-2.9,0.9-5.5,2.2-7.6,4.5C375.6,118.7,375.2,119.2,374.5,119.2z"/>
		<path class="st3" d="M371,115.5c0.6,0.2,1.1-1,1.8-0.2c-0.8,0.8-1.3,1.9-2.1,2.7c-1.2,1.1-2.4,1.9-4,2.3c1.5-0.4,2.8-1.1,3.9-2.3
			c0.5-0.5,0.9-1.4,1.9-1.4c0.4,0.3,0.7,0.5,1.1,0.8c-0.4,1.5-1.7,2.3-2.8,3.2c-1.1,0.9-2,1.9-2.1,3.4c-0.1,1.2-0.9,1.4-1.9,1.1
			c-1.1-0.2-1.7-0.6-1.5-1.8c0.2-0.8-0.2-1.3-0.9-1.8c-0.6-0.4-1.2-0.9-0.8-1.8c0.4-0.8,1.1-1.7,1.9-1.5c2.3,0.8,3.3-0.8,4.5-2
			C370.4,116.1,370.7,115.8,371,115.5z"/>
		<path class="st4" d="M366.9,125.2c1.1-0.1,1.5-0.7,1.3-1.8c-0.2-1.2,0.3-1.9,1.4-2.4c1.7-0.7,2.8-2.2,4-3.5
			c0.3,0.4,0.1,0.8,0.1,1.3c-1.9,1.6-3.9,3.2-4.5,5.9C368.8,126.2,367.8,125.6,366.9,125.2z"/>
		<path class="st5" d="M382.6,94.3c0-2.6,2.9-5,5.4-4.5c0.7,0.1,1.4,0.4,1.6,1.2c0.2,0.8-0.4,1.2-0.9,1.6c-1.2,1-2.5,1.9-3.8,2.8
			c-0.5,0.4-1,1-1.7,0.7C382.4,95.8,382.7,94.9,382.6,94.3z"/>
		<path class="st6" d="M372.5,116.7c-0.8,1.5-2.1,2.6-3.5,3.5c-0.5,0.3-0.9,0.6-1.4,0.9c-0.4,0.3-0.4,1.2-1.2,0.9
			c-0.8-0.3-1.2-1.1-1.5-1.8c-0.3-0.5,0.2-0.9,0.7-0.8c2.8,0.3,4.4-1.6,6-3.3c0.3-0.3,0.7-0.6,1.1-0.6
			C372.9,115.8,372.3,116.2,372.5,116.7z"/>
	</g>
	<g>
		<path class="st1" d="M305.4,90.8c-0.3,0.3-0.9,0.2-1.1-0.2l0,0c-0.4-0.2-0.6-0.6-0.8-0.9c-0.2-0.4-0.5-0.6-0.8-0.9l-0.1-0.1
			c-0.1-0.2-0.2-0.4-0.4-0.6c-0.3-0.2-0.6-0.3-0.6-0.8c-0.3-1.3,0.4-2.2,1.3-2.8c2.8-2.2,3.9-5.3,4.7-8.5c0.7-2.8,1.5-5.7,2.7-8.4
			c2-4.4,4.9-7.5,9.9-8.4c0.1,0,0.1,0,0.2-0.1s0.3-0.2,0.5-0.2h1c0.2,0,0.4,0.1,0.5,0.2c0.1,0.1,0.2,0.2,0.3,0.2
			c4.2,1.6,6.1,7,5,11.4c-1.5,6.1-5.7,10-11.3,12.4c-1.6,0.7-3.4,1.2-5.1,1.8c-1.9,0.7-3.5,1.7-4.4,3.6
			C306.4,89.5,306.1,90.3,305.4,90.8z"/>
		<path class="st2" d="M305.1,91.1L305.1,91.1c0.2-0.6,0.5-1.2,0.7-1.8c0.8-2.3,2.2-3.9,4.5-4.6c1.9-0.7,3.8-1.3,5.7-2.1
			c4.5-1.8,8-4.8,10.1-9.3c2.1-4.6,1.3-9-2.3-12.6c-0.5-0.5-1.1-0.8-1.5-1.4c0.2-0.1,0.1-0.1,0.3-0.2c0.4,0.5,1.1,0.4,1.6,0.5
			c5.8,1.6,8.5,6.4,6.7,12.1c-1.8,5.4-5.3,9.5-10.6,11.8c-1.9,0.8-3.9,1.5-5.8,2.1c-2.9,0.9-5.5,2.2-7.6,4.5
			C306.3,90.6,305.8,91.1,305.1,91.1z"/>
		<path class="st3" d="M301.6,87.4c0.6,0.2,1.1-1,1.8-0.2c-0.8,0.8-1.3,1.9-2.1,2.7c-1.2,1.1-2.4,1.9-4,2.3c1.5-0.4,2.8-1.1,3.9-2.3
			c0.5-0.5,0.9-1.4,1.9-1.4c0.4,0.3,0.7,0.5,1.1,0.8c-0.4,1.5-1.7,2.3-2.8,3.2c-1.1,0.9-2,1.9-2.1,3.4c-0.1,1.2-0.9,1.4-1.9,1.1
			c-1.1-0.2-1.7-0.6-1.5-1.8c0.2-0.8-0.2-1.3-0.9-1.8c-0.6-0.4-1.2-0.9-0.8-1.8c0.4-0.8,1.1-1.7,1.9-1.5c2.3,0.8,3.3-0.8,4.5-2
			C301.1,87.9,301.3,87.6,301.6,87.4z"/>
		<path class="st4" d="M297.5,97c1.1-0.1,1.5-0.7,1.3-1.8c-0.2-1.2,0.3-1.9,1.4-2.4c1.7-0.7,2.8-2.2,4-3.5c0.3,0.4,0.1,0.8,0.1,1.3
			c-1.9,1.6-3.9,3.2-4.5,5.9C299.5,98,298.4,97.5,297.5,97z"/>
		<path class="st5" d="M313.2,66.2c0-2.6,2.9-5,5.4-4.5c0.7,0.1,1.4,0.4,1.6,1.2s-0.4,1.2-0.9,1.6c-1.2,1-2.5,1.9-3.8,2.8
			c-0.5,0.4-1,1-1.7,0.7C313.1,67.6,313.3,66.8,313.2,66.2z"/>
		<path class="st6" d="M303.2,88.5c-0.8,1.5-2.1,2.6-3.5,3.5c-0.5,0.3-0.9,0.6-1.4,0.9c-0.4,0.3-0.4,1.2-1.2,0.9
			c-0.8-0.3-1.2-1.1-1.5-1.8c-0.3-0.5,0.2-0.9,0.7-0.8c2.8,0.3,4.4-1.6,6-3.3c0.3-0.3,0.7-0.6,1.1-0.6
			C303.5,87.7,302.9,88,303.2,88.5z"/>
	</g>
	<g>
		<path class="st1" d="M304,165c-0.3,0.3-0.9,0.2-1.1-0.2l0,0c-0.4-0.2-0.6-0.6-0.8-0.9c-0.2-0.4-0.5-0.6-0.8-0.9l-0.1-0.1
			c-0.1-0.2-0.2-0.4-0.4-0.6c-0.3-0.2-0.6-0.3-0.6-0.8c-0.3-1.3,0.4-2.2,1.3-2.8c2.8-2.2,3.9-5.3,4.7-8.5c0.7-2.8,1.5-5.7,2.7-8.4
			c2-4.4,4.9-7.5,9.9-8.4c0.1,0,0.1,0,0.2-0.1s0.3-0.2,0.5-0.2h1c0.2,0,0.4,0.1,0.5,0.2c0.1,0.1,0.2,0.2,0.3,0.2
			c4.2,1.6,6.1,7,5,11.4c-1.5,6.1-5.7,10-11.3,12.4c-1.6,0.7-3.4,1.2-5.1,1.8c-1.9,0.7-3.5,1.7-4.4,3.6
			C305,163.7,304.6,164.5,304,165z"/>
		<path class="st2" d="M303.7,165.3C303.7,165.3,303.6,165.3,303.7,165.3c0.2-0.6,0.5-1.2,0.7-1.8c0.8-2.3,2.2-3.9,4.5-4.6
			c1.9-0.7,3.8-1.3,5.7-2.1c4.5-1.8,8-4.8,10.1-9.3c2.1-4.6,1.3-9-2.3-12.6c-0.5-0.5-1.1-0.8-1.5-1.4c0.2-0.1,0.1-0.1,0.3-0.2
			c0.4,0.5,1.1,0.4,1.6,0.5c5.8,1.6,8.5,6.4,6.7,12.1c-1.8,5.4-5.3,9.5-10.6,11.8c-1.9,0.8-3.9,1.5-5.8,2.1
			c-2.9,0.9-5.5,2.2-7.6,4.5C304.8,164.8,304.4,165.3,303.7,165.3z"/>
		<path class="st3" d="M300.2,161.6c0.6,0.2,1.1-1,1.8-0.2c-0.8,0.8-1.3,1.9-2.1,2.7c-1.2,1.1-2.4,1.9-4,2.3
			c1.5-0.4,2.8-1.1,3.9-2.3c0.5-0.5,0.9-1.4,1.9-1.4c0.4,0.3,0.7,0.5,1.1,0.8c-0.4,1.5-1.7,2.3-2.8,3.2c-1.1,0.9-2,1.9-2.1,3.4
			c-0.1,1.2-0.9,1.4-1.9,1.1c-1.1-0.2-1.7-0.6-1.5-1.8c0.2-0.8-0.2-1.3-0.9-1.8c-0.6-0.4-1.2-0.9-0.8-1.8c0.4-0.8,1.1-1.7,1.9-1.5
			c2.3,0.8,3.3-0.8,4.5-2C299.7,162.1,299.9,161.8,300.2,161.6z"/>
		<path class="st4" d="M296.1,171.2c1.1-0.1,1.5-0.7,1.3-1.8c-0.2-1.2,0.3-1.9,1.4-2.4c1.7-0.7,2.8-2.2,4-3.5
			c0.3,0.4,0.1,0.8,0.1,1.3c-1.9,1.6-3.9,3.2-4.5,5.9C298,172.2,297,171.7,296.1,171.2z"/>
		<path class="st5" d="M311.8,140.4c0-2.6,2.9-5,5.4-4.5c0.7,0.1,1.4,0.4,1.6,1.2s-0.4,1.2-0.9,1.6c-1.2,1-2.5,1.9-3.8,2.8
			c-0.5,0.4-1,1-1.7,0.7C311.6,141.8,311.9,141,311.8,140.4z"/>
		<path class="st6" d="M301.7,162.7c-0.8,1.5-2.1,2.6-3.5,3.5c-0.5,0.3-0.9,0.6-1.4,0.9c-0.4,0.3-0.4,1.2-1.2,0.9
			c-0.8-0.3-1.2-1.1-1.5-1.8c-0.3-0.5,0.2-0.9,0.7-0.8c2.8,0.3,4.4-1.6,6-3.3c0.3-0.3,0.7-0.6,1.1-0.6
			C302.1,161.9,301.5,162.2,301.7,162.7z"/>
	</g>
	<g>
		<path class="st1" d="M374.8,194c-0.3,0.3-0.9,0.2-1.1-0.2l0,0c-0.4-0.2-0.6-0.6-0.8-0.9c-0.2-0.4-0.5-0.6-0.8-0.9l-0.1-0.1
			c-0.1-0.2-0.2-0.4-0.4-0.6c-0.3-0.2-0.6-0.3-0.6-0.8c-0.3-1.3,0.4-2.2,1.3-2.8c2.8-2.2,3.9-5.3,4.7-8.5c0.7-2.8,1.5-5.7,2.7-8.4
			c2-4.4,4.9-7.5,9.9-8.4c0.1,0,0.1,0,0.2-0.1s0.3-0.2,0.5-0.2h1c0.2,0,0.4,0.1,0.5,0.2c0.1,0.1,0.2,0.2,0.3,0.2
			c4.2,1.6,6.1,7,5,11.4c-1.5,6.1-5.7,10-11.3,12.4c-1.6,0.7-3.4,1.2-5.1,1.8c-1.9,0.7-3.5,1.7-4.4,3.6
			C375.8,192.7,375.4,193.5,374.8,194z"/>
		<path class="st2" d="M374.5,194.3C374.4,194.3,374.4,194.2,374.5,194.3c0.2-0.6,0.5-1.2,0.7-1.8c0.8-2.3,2.2-3.9,4.5-4.6
			c1.9-0.7,3.8-1.3,5.7-2.1c4.5-1.8,8-4.8,10.1-9.3c2.1-4.6,1.3-9-2.3-12.6c-0.5-0.5-1.1-0.8-1.5-1.4c0.2-0.1,0.1-0.1,0.3-0.2
			c0.4,0.5,1.1,0.4,1.6,0.5c5.8,1.6,8.5,6.4,6.7,12.1c-1.8,5.4-5.3,9.5-10.6,11.8c-1.9,0.8-3.9,1.5-5.8,2.1
			c-2.9,0.9-5.5,2.2-7.6,4.5C375.6,193.8,375.2,194.3,374.5,194.3z"/>
		<path class="st3" d="M371,190.6c0.6,0.2,1.1-1,1.8-0.2c-0.8,0.8-1.3,1.9-2.1,2.7c-1.2,1.1-2.4,1.9-4,2.3c1.5-0.4,2.8-1.1,3.9-2.3
			c0.5-0.5,0.9-1.4,1.9-1.4c0.4,0.3,0.7,0.5,1.1,0.8c-0.4,1.5-1.7,2.3-2.8,3.2c-1.1,0.9-2,1.9-2.1,3.4c-0.1,1.2-0.9,1.4-1.9,1.1
			c-1.1-0.2-1.7-0.6-1.5-1.8c0.2-0.8-0.2-1.3-0.9-1.8c-0.6-0.4-1.2-0.9-0.8-1.8c0.4-0.8,1.1-1.7,1.9-1.5c2.3,0.8,3.3-0.8,4.5-2
			C370.4,191.1,370.7,190.8,371,190.6z"/>
		<path class="st4" d="M366.9,200.2c1.1-0.1,1.5-0.7,1.3-1.8c-0.2-1.2,0.3-1.9,1.4-2.4c1.7-0.7,2.8-2.2,4-3.5
			c0.3,0.4,0.1,0.8,0.1,1.3c-1.9,1.6-3.9,3.2-4.5,5.9C368.8,201.2,367.8,200.7,366.9,200.2z"/>
		<path class="st5" d="M382.6,169.4c0-2.6,2.9-5,5.4-4.5c0.7,0.1,1.4,0.4,1.6,1.2s-0.4,1.2-0.9,1.6c-1.2,1-2.5,1.9-3.8,2.8
			c-0.5,0.4-1,1-1.7,0.7C382.4,170.8,382.7,170,382.6,169.4z"/>
		<path class="st6" d="M372.5,191.7c-0.8,1.5-2.1,2.6-3.5,3.5c-0.5,0.3-0.9,0.6-1.4,0.9c-0.4,0.3-0.4,1.2-1.2,0.9
			c-0.8-0.3-1.2-1.1-1.5-1.8c-0.3-0.5,0.2-0.9,0.7-0.8c2.8,0.3,4.4-1.6,6-3.3c0.3-0.3,0.7-0.6,1.1-0.6
			C372.9,190.9,372.3,191.2,372.5,191.7z"/>
	</g>
</g>
<g>
	<rect x="65.1" y="207.9" class="st0" width="139.9" height="210.3"/>
	<g>
		<path class="st1" d="M162.9,252.6c-0.3,0.3-0.9,0.2-1.1-0.2l0,0c-0.4-0.2-0.6-0.6-0.8-0.9c-0.2-0.4-0.5-0.6-0.8-0.9l-0.1-0.1
			c-0.1-0.2-0.2-0.4-0.4-0.6c-0.3-0.2-0.6-0.3-0.6-0.8c-0.3-1.3,0.4-2.2,1.3-2.8c2.8-2.2,3.9-5.3,4.7-8.5c0.7-2.8,1.5-5.7,2.7-8.4
			c2-4.4,4.9-7.5,9.9-8.4c0.1,0,0.1,0,0.2-0.1c0.1-0.1,0.3-0.2,0.5-0.2h1c0.2,0,0.4,0.1,0.5,0.2c0.1,0.1,0.2,0.2,0.3,0.2
			c4.2,1.6,6.1,7,5,11.4c-1.5,6.1-5.7,10-11.3,12.4c-1.6,0.7-3.4,1.2-5.1,1.8c-1.9,0.7-3.5,1.7-4.4,3.6
			C163.9,251.2,163.5,252,162.9,252.6z"/>
		<path class="st2" d="M162.6,252.8C162.6,252.8,162.5,252.8,162.6,252.8c0.2-0.6,0.5-1.2,0.7-1.8c0.8-2.3,2.2-3.9,4.5-4.6
			c1.9-0.7,3.8-1.3,5.7-2.1c4.5-1.8,8-4.8,10.1-9.3c2.1-4.6,1.3-9-2.3-12.6c-0.5-0.5-1.1-0.8-1.5-1.4c0.2-0.1,0.1-0.1,0.3-0.2
			c0.4,0.5,1.1,0.4,1.6,0.5c5.8,1.6,8.5,6.4,6.7,12.1c-1.8,5.4-5.3,9.5-10.6,11.8c-1.9,0.8-3.9,1.5-5.8,2.1
			c-2.9,0.9-5.5,2.2-7.6,4.5C163.7,252.3,163.3,252.8,162.6,252.8z"/>
		<path class="st3" d="M159.1,249.1c0.6,0.2,1.1-1,1.8-0.2c-0.8,0.8-1.3,1.9-2.1,2.7c-1.2,1.1-2.4,1.9-4,2.3
			c1.5-0.4,2.8-1.1,3.9-2.3c0.5-0.5,0.9-1.4,1.9-1.4c0.4,0.3,0.7,0.5,1.1,0.8c-0.4,1.5-1.7,2.3-2.8,3.2s-2,1.9-2.1,3.4
			c-0.1,1.2-0.9,1.4-1.9,1.1c-1.1-0.2-1.7-0.6-1.5-1.8c0.2-0.8-0.2-1.3-0.9-1.8c-0.6-0.4-1.2-0.9-0.8-1.8c0.4-0.8,1.1-1.7,1.9-1.5
			c2.3,0.8,3.3-0.8,4.5-2C158.6,249.7,158.8,249.4,159.1,249.1z"/>
		<path class="st4" d="M155,258.8c1.1-0.1,1.5-0.7,1.3-1.8c-0.2-1.2,0.3-1.9,1.4-2.4c1.7-0.7,2.8-2.2,4-3.5c0.3,0.4,0.1,0.8,0.1,1.3
			c-1.9,1.6-3.9,3.2-4.5,5.9C156.9,259.7,155.9,259.2,155,258.8z"/>
		<path class="st5" d="M170.7,227.9c0-2.6,2.9-5,5.4-4.5c0.7,0.1,1.4,0.4,1.6,1.2c0.2,0.8-0.4,1.2-0.9,1.6c-1.2,1-2.5,1.9-3.8,2.8
			c-0.5,0.4-1,1-1.7,0.7C170.5,229.4,170.8,228.5,170.7,227.9z"/>
		<path class="st6" d="M160.6,250.3c-0.8,1.5-2.1,2.6-3.5,3.5c-0.5,0.3-0.9,0.6-1.4,0.9c-0.4,0.3-0.4,1.2-1.2,0.9s-1.2-1.1-1.5-1.8
			c-0.3-0.5,0.2-0.9,0.7-0.8c2.8,0.3,4.4-1.6,6-3.3c0.3-0.3,0.7-0.6,1.1-0.6C161,249.4,160.4,249.8,160.6,250.3z"/>
	</g>
	<g>
		<path class="st1" d="M162.9,326.8c-0.3,0.3-0.9,0.2-1.1-0.2l0,0c-0.4-0.2-0.6-0.6-0.8-0.9c-0.2-0.4-0.5-0.6-0.8-0.9l-0.1-0.1
			c-0.1-0.2-0.2-0.4-0.4-0.6c-0.3-0.2-0.6-0.3-0.6-0.8c-0.3-1.3,0.4-2.2,1.3-2.8c2.8-2.2,3.9-5.3,4.7-8.5c0.7-2.8,1.5-5.7,2.7-8.4
			c2-4.4,4.9-7.5,9.9-8.4c0.1,0,0.1,0,0.2-0.1c0.1-0.1,0.3-0.2,0.5-0.2h1c0.2,0,0.4,0.1,0.5,0.2s0.2,0.2,0.3,0.2
			c4.2,1.6,6.1,7,5,11.4c-1.5,6.1-5.7,10-11.3,12.4c-1.6,0.7-3.4,1.2-5.1,1.8c-1.9,0.7-3.5,1.7-4.4,3.6
			C163.9,325.4,163.5,326.2,162.9,326.8z"/>
		<path class="st2" d="M162.6,327C162.6,327,162.5,327,162.6,327c0.2-0.6,0.5-1.2,0.7-1.8c0.8-2.3,2.2-3.9,4.5-4.6
			c1.9-0.7,3.8-1.3,5.7-2.1c4.5-1.8,8-4.8,10.1-9.3c2.1-4.6,1.3-9-2.3-12.6c-0.5-0.5-1.1-0.8-1.5-1.4c0.2-0.1,0.1-0.1,0.3-0.2
			c0.4,0.5,1.1,0.4,1.6,0.5c5.8,1.6,8.5,6.4,6.7,12.1c-1.8,5.4-5.3,9.5-10.6,11.8c-1.9,0.8-3.9,1.5-5.8,2.1
			c-2.9,0.9-5.5,2.2-7.6,4.5C163.7,326.5,163.3,327,162.6,327z"/>
		<path class="st3" d="M159.1,323.3c0.6,0.2,1.1-1,1.8-0.2c-0.8,0.8-1.3,1.9-2.1,2.7c-1.2,1.1-2.4,1.9-4,2.3
			c1.5-0.4,2.8-1.1,3.9-2.3c0.5-0.5,0.9-1.4,1.9-1.4c0.4,0.3,0.7,0.5,1.1,0.8c-0.4,1.5-1.7,2.3-2.8,3.2c-1.1,0.9-2,1.9-2.1,3.4
			c-0.1,1.2-0.9,1.4-1.9,1.1c-1.1-0.2-1.7-0.6-1.5-1.8c0.2-0.8-0.2-1.3-0.9-1.8c-0.6-0.4-1.2-0.9-0.8-1.8c0.4-0.8,1.1-1.7,1.9-1.5
			c2.3,0.8,3.3-0.8,4.5-2C158.6,323.9,158.8,323.6,159.1,323.3z"/>
		<path class="st4" d="M155,333c1.1-0.1,1.5-0.7,1.3-1.8c-0.2-1.2,0.3-1.9,1.4-2.4c1.7-0.7,2.8-2.2,4-3.5c0.3,0.4,0.1,0.8,0.1,1.3
			c-1.9,1.6-3.9,3.2-4.5,5.9C156.9,333.9,155.9,333.4,155,333z"/>
		<path class="st5" d="M170.7,302.1c0-2.6,2.9-5,5.4-4.5c0.7,0.1,1.4,0.4,1.6,1.2c0.2,0.8-0.4,1.2-0.9,1.6c-1.2,1-2.5,1.9-3.8,2.8
			c-0.5,0.4-1,1-1.7,0.7C170.5,303.6,170.8,302.7,170.7,302.1z"/>
		<path class="st6" d="M160.6,324.5c-0.8,1.5-2.1,2.6-3.5,3.5c-0.5,0.3-0.9,0.6-1.4,0.9c-0.4,0.3-0.4,1.2-1.2,0.9
			c-0.8-0.3-1.2-1.1-1.5-1.8c-0.3-0.5,0.2-0.9,0.7-0.8c2.8,0.3,4.4-1.6,6-3.3c0.3-0.3,0.7-0.6,1.1-0.6
			C161,323.6,160.4,324,160.6,324.5z"/>
	</g>
	<g>
		<path class="st1" d="M93.5,298.6c-0.3,0.3-0.9,0.2-1.1-0.2l0,0c-0.4-0.2-0.6-0.6-0.8-0.9c-0.2-0.4-0.5-0.6-0.8-0.9l-0.1-0.1
			c-0.1-0.2-0.2-0.4-0.4-0.6c-0.3-0.2-0.6-0.3-0.6-0.8c-0.3-1.3,0.4-2.2,1.3-2.8c2.8-2.2,3.9-5.3,4.7-8.5c0.7-2.8,1.5-5.7,2.7-8.4
			c2-4.4,4.9-7.5,9.9-8.4c0.1,0,0.1,0,0.2-0.1s0.3-0.2,0.5-0.2h1c0.2,0,0.4,0.1,0.5,0.2s0.2,0.2,0.3,0.2c4.2,1.6,6.1,7,5,11.4
			c-1.5,6.1-5.7,10-11.3,12.4c-1.6,0.7-3.4,1.2-5.1,1.8c-1.9,0.7-3.5,1.7-4.4,3.6C94.5,297.3,94.2,298.1,93.5,298.6z"/>
		<path class="st2" d="M93.2,298.9C93.2,298.9,93.2,298.8,93.2,298.9c0.2-0.6,0.5-1.2,0.7-1.8c0.8-2.3,2.2-3.9,4.5-4.6
			c1.9-0.7,3.8-1.3,5.7-2.1c4.5-1.8,8-4.8,10.1-9.3c2.1-4.6,1.3-9-2.3-12.6c-0.5-0.5-1.1-0.8-1.5-1.4c0.2-0.1,0.1-0.1,0.3-0.2
			c0.4,0.5,1.1,0.4,1.6,0.5c5.8,1.6,8.5,6.4,6.7,12.1c-1.8,5.4-5.3,9.5-10.6,11.8c-1.9,0.8-3.9,1.5-5.8,2.1
			c-2.9,0.9-5.5,2.2-7.6,4.5C94.4,298.3,93.9,298.9,93.2,298.9z"/>
		<path class="st3" d="M89.7,295.2c0.6,0.2,1.1-1,1.8-0.2c-0.8,0.8-1.3,1.9-2.1,2.7c-1.2,1.1-2.4,1.9-4,2.3c1.5-0.4,2.8-1.1,3.9-2.3
			c0.5-0.5,0.9-1.4,1.9-1.4c0.4,0.3,0.7,0.5,1.1,0.8c-0.4,1.5-1.7,2.3-2.8,3.2c-1.1,0.9-2,1.9-2.1,3.4c-0.1,1.2-0.9,1.4-1.9,1.1
			c-1.1-0.2-1.7-0.6-1.5-1.8c0.2-0.8-0.2-1.3-0.9-1.8c-0.6-0.4-1.2-0.9-0.8-1.8c0.4-0.8,1.1-1.7,1.9-1.5c2.3,0.8,3.3-0.8,4.5-2
			C89.2,295.7,89.5,295.4,89.7,295.2z"/>
		<path class="st4" d="M85.6,304.8c1.1-0.1,1.5-0.7,1.3-1.8c-0.2-1.2,0.3-1.9,1.4-2.4c1.7-0.7,2.8-2.2,4-3.5
			c0.3,0.4,0.1,0.8,0.1,1.3c-1.9,1.6-3.9,3.2-4.5,5.9C87.6,305.8,86.5,305.3,85.6,304.8z"/>
		<path class="st5" d="M101.4,274c0-2.6,2.9-5,5.4-4.5c0.7,0.1,1.4,0.4,1.6,1.2c0.2,0.8-0.4,1.2-0.9,1.6c-1.2,1-2.5,1.9-3.8,2.8
			c-0.5,0.4-1,1-1.7,0.7C101.2,275.4,101.4,274.6,101.4,274z"/>
		<path class="st6" d="M91.3,296.3c-0.8,1.5-2.1,2.6-3.5,3.5c-0.5,0.3-0.9,0.6-1.4,0.9c-0.4,0.3-0.4,1.2-1.2,0.9
			c-0.8-0.3-1.2-1.1-1.5-1.8c-0.3-0.5,0.2-0.9,0.7-0.8c2.8,0.3,4.4-1.6,6-3.3c0.3-0.3,0.7-0.6,1.1-0.6
			C91.6,295.5,91,295.8,91.3,296.3z"/>
	</g>
	<g>
		<path class="st1" d="M92.1,372.8c-0.3,0.3-0.9,0.2-1.1-0.2l0,0c-0.4-0.2-0.6-0.6-0.8-0.9c-0.2-0.4-0.5-0.6-0.8-0.9l-0.1-0.1
			c-0.1-0.2-0.2-0.4-0.4-0.6c-0.3-0.2-0.6-0.3-0.6-0.8c-0.3-1.3,0.4-2.2,1.3-2.8c2.8-2.2,3.9-5.3,4.7-8.5c0.7-2.8,1.5-5.7,2.7-8.4
			c2-4.4,4.9-7.5,9.9-8.4c0.1,0,0.1,0,0.2-0.1s0.3-0.2,0.5-0.2h1c0.2,0,0.4,0.1,0.5,0.2s0.2,0.2,0.3,0.2c4.2,1.6,6.1,7,5,11.4
			c-1.5,6.1-5.7,10-11.3,12.4c-1.6,0.7-3.4,1.2-5.1,1.8c-1.9,0.7-3.5,1.7-4.4,3.6C93.1,371.5,92.7,372.3,92.1,372.8z"/>
		<path class="st2" d="M91.8,373.1C91.8,373.1,91.8,373,91.8,373.1c0.2-0.6,0.5-1.2,0.7-1.8c0.8-2.3,2.2-3.9,4.5-4.6
			c1.9-0.7,3.8-1.3,5.7-2.1c4.5-1.8,8-4.8,10.1-9.3c2.1-4.6,1.3-9-2.3-12.6c-0.5-0.5-1.1-0.8-1.5-1.4c0.2-0.1,0.1-0.1,0.3-0.2
			c0.4,0.5,1.1,0.4,1.6,0.5c5.8,1.6,8.5,6.4,6.7,12.1c-1.8,5.4-5.3,9.5-10.6,11.8c-1.9,0.8-3.9,1.5-5.8,2.1
			c-2.9,0.9-5.5,2.2-7.6,4.5C92.9,372.5,92.5,373.1,91.8,373.1z"/>
		<path class="st3" d="M88.3,369.4c0.6,0.2,1.1-1,1.8-0.2c-0.8,0.8-1.3,1.9-2.1,2.7c-1.2,1.1-2.4,1.9-4,2.3c1.5-0.4,2.8-1.1,3.9-2.3
			c0.5-0.5,0.9-1.4,1.9-1.4c0.4,0.3,0.7,0.5,1.1,0.8c-0.4,1.5-1.7,2.3-2.8,3.2c-1.1,0.9-2,1.9-2.1,3.4c-0.1,1.2-0.9,1.4-1.9,1.1
			c-1.1-0.2-1.7-0.6-1.5-1.8c0.2-0.8-0.2-1.3-0.9-1.8c-0.6-0.4-1.2-0.9-0.8-1.8c0.4-0.8,1.1-1.7,1.9-1.5c2.3,0.8,3.3-0.8,4.5-2
			C87.8,369.9,88,369.6,88.3,369.4z"/>
		<path class="st4" d="M84.2,379c1.1-0.1,1.5-0.7,1.3-1.8c-0.2-1.2,0.3-1.9,1.4-2.4c1.7-0.7,2.8-2.2,4-3.5c0.3,0.4,0.1,0.8,0.1,1.3
			c-1.9,1.6-3.9,3.2-4.5,5.9C86.1,380,85.1,379.5,84.2,379z"/>
		<path class="st5" d="M99.9,348.2c0-2.6,2.9-5,5.4-4.5c0.7,0.1,1.4,0.4,1.6,1.2c0.2,0.8-0.4,1.2-0.9,1.6c-1.2,1-2.5,1.9-3.8,2.8
			c-0.5,0.4-1,1-1.7,0.7C99.7,349.6,100,348.8,99.9,348.2z"/>
		<path class="st6" d="M89.8,370.5c-0.8,1.5-2.1,2.6-3.5,3.5c-0.5,0.3-0.9,0.6-1.4,0.9c-0.4,0.3-0.4,1.2-1.2,0.9
			c-0.8-0.3-1.2-1.1-1.5-1.8c-0.3-0.5,0.2-0.9,0.7-0.8c2.8,0.3,4.4-1.6,6-3.3c0.3-0.3,0.7-0.6,1.1-0.6
			C90.2,369.6,89.6,370,89.8,370.5z"/>
	</g>
	<g>
		<path class="st1" d="M162.9,401.8c-0.3,0.3-0.9,0.2-1.1-0.2l0,0c-0.4-0.2-0.6-0.6-0.8-0.9c-0.2-0.4-0.5-0.6-0.8-0.9l-0.1-0.1
			c-0.1-0.2-0.2-0.4-0.4-0.6c-0.3-0.2-0.6-0.3-0.6-0.8c-0.3-1.3,0.4-2.2,1.3-2.8c2.8-2.2,3.9-5.3,4.7-8.5c0.7-2.8,1.5-5.7,2.7-8.4
			c2-4.4,4.9-7.5,9.9-8.4c0.1,0,0.1,0,0.2-0.1c0.1-0.1,0.3-0.2,0.5-0.2h1c0.2,0,0.4,0.1,0.5,0.2s0.2,0.2,0.3,0.2
			c4.2,1.6,6.1,7,5,11.4c-1.5,6.1-5.7,10-11.3,12.4c-1.6,0.7-3.4,1.2-5.1,1.8c-1.9,0.7-3.5,1.7-4.4,3.6
			C163.9,400.5,163.5,401.2,162.9,401.8z"/>
		<path class="st2" d="M162.6,402C162.6,402,162.5,402,162.6,402c0.2-0.6,0.5-1.2,0.7-1.8c0.8-2.3,2.2-3.9,4.5-4.6
			c1.9-0.7,3.8-1.3,5.7-2.1c4.5-1.8,8-4.8,10.1-9.3c2.1-4.6,1.3-9-2.3-12.6c-0.5-0.5-1.1-0.8-1.5-1.4c0.2-0.1,0.1-0.1,0.3-0.2
			c0.4,0.5,1.1,0.4,1.6,0.5c5.8,1.6,8.5,6.4,6.7,12.1c-1.8,5.4-5.3,9.5-10.6,11.8c-1.9,0.8-3.9,1.5-5.8,2.1
			c-2.9,0.9-5.5,2.2-7.6,4.5C163.7,401.5,163.3,402.1,162.6,402z"/>
		<path class="st3" d="M159.1,398.3c0.6,0.2,1.1-1,1.8-0.2c-0.8,0.8-1.3,1.9-2.1,2.7c-1.2,1.1-2.4,1.9-4,2.3
			c1.5-0.4,2.8-1.1,3.9-2.3c0.5-0.5,0.9-1.4,1.9-1.4c0.4,0.3,0.7,0.5,1.1,0.8c-0.4,1.5-1.7,2.3-2.8,3.2c-1.1,0.9-2,1.9-2.1,3.4
			c-0.1,1.2-0.9,1.4-1.9,1.1c-1.1-0.2-1.7-0.6-1.5-1.8c0.2-0.8-0.2-1.3-0.9-1.8c-0.6-0.4-1.2-0.9-0.8-1.8c0.4-0.8,1.1-1.7,1.9-1.5
			c2.3,0.8,3.3-0.8,4.5-2C158.6,398.9,158.8,398.6,159.1,398.3z"/>
		<path class="st4" d="M155,408c1.1-0.1,1.5-0.7,1.3-1.8c-0.2-1.2,0.3-1.9,1.4-2.4c1.7-0.7,2.8-2.2,4-3.5c0.3,0.4,0.1,0.8,0.1,1.3
			c-1.9,1.6-3.9,3.2-4.5,5.9C156.9,409,155.9,408.4,155,408z"/>
		<path class="st5" d="M170.7,377.1c0-2.6,2.9-5,5.4-4.5c0.7,0.1,1.4,0.4,1.6,1.2c0.2,0.8-0.4,1.2-0.9,1.6c-1.2,1-2.5,1.9-3.8,2.8
			c-0.5,0.4-1,1-1.7,0.7C170.5,378.6,170.8,377.7,170.7,377.1z"/>
		<path class="st6" d="M160.6,399.5c-0.8,1.5-2.1,2.6-3.5,3.5c-0.5,0.3-0.9,0.6-1.4,0.9c-0.4,0.3-0.4,1.2-1.2,0.9
			c-0.8-0.3-1.2-1.1-1.5-1.8c-0.3-0.5,0.2-0.9,0.7-0.8c2.8,0.3,4.4-1.6,6-3.3c0.3-0.3,0.7-0.6,1.1-0.6
			C161,398.6,160.4,399,160.6,399.5z"/>
	</g>
</g>
<g>
	<rect x="200.6" y="207.9" class="st0" width="139.9" height="210.3"/>
	<g>
		<path class="st1" d="M298.5,252.6c-0.3,0.3-0.9,0.2-1.1-0.2l0,0c-0.4-0.2-0.6-0.6-0.8-0.9c-0.2-0.4-0.5-0.6-0.8-0.9l-0.1-0.1
			c-0.1-0.2-0.2-0.4-0.4-0.6c-0.3-0.2-0.6-0.3-0.6-0.8c-0.3-1.3,0.4-2.2,1.3-2.8c2.8-2.2,3.9-5.3,4.7-8.5c0.7-2.8,1.5-5.7,2.7-8.4
			c2-4.4,4.9-7.5,9.9-8.4c0.1,0,0.1,0,0.2-0.1s0.3-0.2,0.5-0.2h1c0.2,0,0.4,0.1,0.5,0.2c0.1,0.1,0.2,0.2,0.3,0.2
			c4.2,1.6,6.1,7,5,11.4c-1.5,6.1-5.7,10-11.3,12.4c-1.6,0.7-3.4,1.2-5.1,1.8c-1.9,0.7-3.5,1.7-4.4,3.6
			C299.5,251.2,299.1,252,298.5,252.6z"/>
		<path class="st2" d="M298.1,252.8L298.1,252.8c0.2-0.6,0.5-1.2,0.7-1.8c0.8-2.3,2.2-3.9,4.5-4.6c1.9-0.7,3.8-1.3,5.7-2.1
			c4.5-1.8,8-4.8,10.1-9.3c2.1-4.6,1.3-9-2.3-12.6c-0.5-0.5-1.1-0.8-1.5-1.4c0.2-0.1,0.1-0.1,0.3-0.2c0.4,0.5,1.1,0.4,1.6,0.5
			c5.8,1.6,8.5,6.4,6.7,12.1c-1.8,5.4-5.3,9.5-10.6,11.8c-1.9,0.8-3.9,1.5-5.8,2.1c-2.9,0.9-5.5,2.2-7.6,4.5
			C299.3,252.3,298.9,252.8,298.1,252.8z"/>
		<path class="st3" d="M294.7,249.1c0.6,0.2,1.1-1,1.8-0.2c-0.8,0.8-1.3,1.9-2.1,2.7c-1.2,1.1-2.4,1.9-4,2.3
			c1.5-0.4,2.8-1.1,3.9-2.3c0.5-0.5,0.9-1.4,1.9-1.4c0.4,0.3,0.7,0.5,1.1,0.8c-0.4,1.5-1.7,2.3-2.8,3.2c-1.1,0.9-2,1.9-2.1,3.4
			c-0.1,1.2-0.9,1.4-1.9,1.1c-1.1-0.2-1.7-0.6-1.5-1.8c0.2-0.8-0.2-1.3-0.9-1.8c-0.6-0.4-1.2-0.9-0.8-1.8c0.4-0.8,1.1-1.7,1.9-1.5
			c2.3,0.8,3.3-0.8,4.5-2C294.1,249.7,294.4,249.4,294.7,249.1z"/>
		<path class="st4" d="M290.6,258.8c1.1-0.1,1.5-0.7,1.3-1.8c-0.2-1.2,0.3-1.9,1.4-2.4c1.7-0.7,2.8-2.2,4-3.5
			c0.3,0.4,0.1,0.8,0.1,1.3c-1.9,1.6-3.9,3.2-4.5,5.9C292.5,259.7,291.5,259.2,290.6,258.8z"/>
		<path class="st5" d="M306.3,227.9c0-2.6,2.9-5,5.4-4.5c0.7,0.1,1.4,0.4,1.6,1.2s-0.4,1.2-0.9,1.6c-1.2,1-2.5,1.9-3.8,2.8
			c-0.5,0.4-1,1-1.7,0.7C306.1,229.4,306.4,228.5,306.3,227.9z"/>
		<path class="st6" d="M296.2,250.3c-0.8,1.5-2.1,2.6-3.5,3.5c-0.5,0.3-0.9,0.6-1.4,0.9c-0.4,0.3-0.4,1.2-1.2,0.9
			c-0.8-0.3-1.2-1.1-1.5-1.8c-0.3-0.5,0.2-0.9,0.7-0.8c2.8,0.3,4.4-1.6,6-3.3c0.3-0.3,0.7-0.6,1.1-0.6
			C296.5,249.4,296,249.8,296.2,250.3z"/>
	</g>
	<g>
		<path class="st1" d="M298.5,326.8c-0.3,0.3-0.9,0.2-1.1-0.2l0,0c-0.4-0.2-0.6-0.6-0.8-0.9c-0.2-0.4-0.5-0.6-0.8-0.9l-0.1-0.1
			c-0.1-0.2-0.2-0.4-0.4-0.6c-0.3-0.2-0.6-0.3-0.6-0.8c-0.3-1.3,0.4-2.2,1.3-2.8c2.8-2.2,3.9-5.3,4.7-8.5c0.7-2.8,1.5-5.7,2.7-8.4
			c2-4.4,4.9-7.5,9.9-8.4c0.1,0,0.1,0,0.2-0.1s0.3-0.2,0.5-0.2h1c0.2,0,0.4,0.1,0.5,0.2s0.2,0.2,0.3,0.2c4.2,1.6,6.1,7,5,11.4
			c-1.5,6.1-5.7,10-11.3,12.4c-1.6,0.7-3.4,1.2-5.1,1.8c-1.9,0.7-3.5,1.7-4.4,3.6C299.5,325.4,299.1,326.2,298.5,326.8z"/>
		<path class="st2" d="M298.1,327L298.1,327c0.2-0.6,0.5-1.2,0.7-1.8c0.8-2.3,2.2-3.9,4.5-4.6c1.9-0.7,3.8-1.3,5.7-2.1
			c4.5-1.8,8-4.8,10.1-9.3c2.1-4.6,1.3-9-2.3-12.6c-0.5-0.5-1.1-0.8-1.5-1.4c0.2-0.1,0.1-0.1,0.3-0.2c0.4,0.5,1.1,0.4,1.6,0.5
			c5.8,1.6,8.5,6.4,6.7,12.1c-1.8,5.4-5.3,9.5-10.6,11.8c-1.9,0.8-3.9,1.5-5.8,2.1c-2.9,0.9-5.5,2.2-7.6,4.5
			C299.3,326.5,298.9,327,298.1,327z"/>
		<path class="st3" d="M294.7,323.3c0.6,0.2,1.1-1,1.8-0.2c-0.8,0.8-1.3,1.9-2.1,2.7c-1.2,1.1-2.4,1.9-4,2.3
			c1.5-0.4,2.8-1.1,3.9-2.3c0.5-0.5,0.9-1.4,1.9-1.4c0.4,0.3,0.7,0.5,1.1,0.8c-0.4,1.5-1.7,2.3-2.8,3.2c-1.1,0.9-2,1.9-2.1,3.4
			c-0.1,1.2-0.9,1.4-1.9,1.1c-1.1-0.2-1.7-0.6-1.5-1.8c0.2-0.8-0.2-1.3-0.9-1.8c-0.6-0.4-1.2-0.9-0.8-1.8c0.4-0.8,1.1-1.7,1.9-1.5
			c2.3,0.8,3.3-0.8,4.5-2C294.1,323.9,294.4,323.6,294.7,323.3z"/>
		<path class="st4" d="M290.6,333c1.1-0.1,1.5-0.7,1.3-1.8c-0.2-1.2,0.3-1.9,1.4-2.4c1.7-0.7,2.8-2.2,4-3.5c0.3,0.4,0.1,0.8,0.1,1.3
			c-1.9,1.6-3.9,3.2-4.5,5.9C292.5,333.9,291.5,333.4,290.6,333z"/>
		<path class="st5" d="M306.3,302.1c0-2.6,2.9-5,5.4-4.5c0.7,0.1,1.4,0.4,1.6,1.2c0.2,0.8-0.4,1.2-0.9,1.6c-1.2,1-2.5,1.9-3.8,2.8
			c-0.5,0.4-1,1-1.7,0.7C306.1,303.6,306.4,302.7,306.3,302.1z"/>
		<path class="st6" d="M296.2,324.5c-0.8,1.5-2.1,2.6-3.5,3.5c-0.5,0.3-0.9,0.6-1.4,0.9c-0.4,0.3-0.4,1.2-1.2,0.9
			c-0.8-0.3-1.2-1.1-1.5-1.8c-0.3-0.5,0.2-0.9,0.7-0.8c2.8,0.3,4.4-1.6,6-3.3c0.3-0.3,0.7-0.6,1.1-0.6
			C296.5,323.6,296,324,296.2,324.5z"/>
	</g>
	<g>
		<path class="st1" d="M229.1,298.6c-0.3,0.3-0.9,0.2-1.1-0.2l0,0c-0.4-0.2-0.6-0.6-0.8-0.9c-0.2-0.4-0.5-0.6-0.8-0.9l-0.1-0.1
			c-0.1-0.2-0.2-0.4-0.4-0.6c-0.3-0.2-0.6-0.3-0.6-0.8c-0.3-1.3,0.4-2.2,1.3-2.8c2.8-2.2,3.9-5.3,4.7-8.5c0.7-2.8,1.5-5.7,2.7-8.4
			c2-4.4,4.9-7.5,9.9-8.4c0.1,0,0.1,0,0.2-0.1c0.1-0.1,0.3-0.2,0.5-0.2h1c0.2,0,0.4,0.1,0.5,0.2s0.2,0.2,0.3,0.2
			c4.2,1.6,6.1,7,5,11.4c-1.5,6.1-5.7,10-11.3,12.4c-1.6,0.7-3.4,1.2-5.1,1.8c-1.9,0.7-3.5,1.7-4.4,3.6
			C230.1,297.3,229.8,298.1,229.1,298.6z"/>
		<path class="st2" d="M228.8,298.9C228.8,298.9,228.8,298.8,228.8,298.9c0.2-0.6,0.5-1.2,0.7-1.8c0.8-2.3,2.2-3.9,4.5-4.6
			c1.9-0.7,3.8-1.3,5.7-2.1c4.5-1.8,8-4.8,10.1-9.3c2.1-4.6,1.3-9-2.3-12.6c-0.5-0.5-1.1-0.8-1.5-1.4c0.2-0.1,0.1-0.1,0.3-0.2
			c0.4,0.5,1.1,0.4,1.6,0.5c5.8,1.6,8.5,6.4,6.7,12.1c-1.8,5.4-5.3,9.5-10.6,11.8c-1.9,0.8-3.9,1.5-5.8,2.1
			c-2.9,0.9-5.5,2.2-7.6,4.5C229.9,298.3,229.5,298.9,228.8,298.9z"/>
		<path class="st3" d="M225.3,295.2c0.6,0.2,1.1-1,1.8-0.2c-0.8,0.8-1.3,1.9-2.1,2.7c-1.2,1.1-2.4,1.9-4,2.3
			c1.5-0.4,2.8-1.1,3.9-2.3c0.5-0.5,0.9-1.4,1.9-1.4c0.4,0.3,0.7,0.5,1.1,0.8c-0.4,1.5-1.7,2.3-2.8,3.2c-1.1,0.9-2,1.9-2.1,3.4
			c-0.1,1.2-0.9,1.4-1.9,1.1c-1.1-0.2-1.7-0.6-1.5-1.8c0.2-0.8-0.2-1.3-0.9-1.8c-0.6-0.4-1.2-0.9-0.8-1.8c0.4-0.8,1.1-1.7,1.9-1.5
			c2.3,0.8,3.3-0.8,4.5-2C224.8,295.7,225,295.4,225.3,295.2z"/>
		<path class="st4" d="M221.2,304.8c1.1-0.1,1.5-0.7,1.3-1.8c-0.2-1.2,0.3-1.9,1.4-2.4c1.7-0.7,2.8-2.2,4-3.5
			c0.3,0.4,0.1,0.8,0.1,1.3c-1.9,1.6-3.9,3.2-4.5,5.9C223.1,305.8,222.1,305.3,221.2,304.8z"/>
		<path class="st5" d="M236.9,274c0-2.6,2.9-5,5.4-4.5c0.7,0.1,1.4,0.4,1.6,1.2c0.2,0.8-0.4,1.2-0.9,1.6c-1.2,1-2.5,1.9-3.8,2.8
			c-0.5,0.4-1,1-1.7,0.7C236.7,275.4,237,274.6,236.9,274z"/>
		<path class="st6" d="M226.8,296.3c-0.8,1.5-2.1,2.6-3.5,3.5c-0.5,0.3-0.9,0.6-1.4,0.9c-0.4,0.3-0.4,1.2-1.2,0.9
			c-0.8-0.3-1.2-1.1-1.5-1.8c-0.3-0.5,0.2-0.9,0.7-0.8c2.8,0.3,4.4-1.6,6-3.3c0.3-0.3,0.7-0.6,1.1-0.6
			C227.2,295.5,226.6,295.8,226.8,296.3z"/>
	</g>
	<g>
		<path class="st1" d="M227.7,372.8c-0.3,0.3-0.9,0.2-1.1-0.2l0,0c-0.4-0.2-0.6-0.6-0.8-0.9c-0.2-0.4-0.5-0.6-0.8-0.9l-0.1-0.1
			c-0.1-0.2-0.2-0.4-0.4-0.6c-0.3-0.2-0.6-0.3-0.6-0.8c-0.3-1.3,0.4-2.2,1.3-2.8c2.8-2.2,3.9-5.3,4.7-8.5c0.7-2.8,1.5-5.7,2.7-8.4
			c2-4.4,4.9-7.5,9.9-8.4c0.1,0,0.1,0,0.2-0.1c0.1-0.1,0.3-0.2,0.5-0.2h1c0.2,0,0.4,0.1,0.5,0.2s0.2,0.2,0.3,0.2
			c4.2,1.6,6.1,7,5,11.4c-1.5,6.1-5.7,10-11.3,12.4c-1.6,0.7-3.4,1.2-5.1,1.8c-1.9,0.7-3.5,1.7-4.4,3.6
			C228.7,371.5,228.3,372.3,227.7,372.8z"/>
		<path class="st2" d="M227.4,373.1C227.3,373.1,227.3,373,227.4,373.1c0.2-0.6,0.5-1.2,0.7-1.8c0.8-2.3,2.2-3.9,4.5-4.6
			c1.9-0.7,3.8-1.3,5.7-2.1c4.5-1.8,8-4.8,10.1-9.3c2.1-4.6,1.3-9-2.3-12.6c-0.5-0.5-1.1-0.8-1.5-1.4c0.2-0.1,0.1-0.1,0.3-0.2
			c0.4,0.5,1.1,0.4,1.6,0.5c5.8,1.6,8.5,6.4,6.7,12.1c-1.8,5.4-5.3,9.5-10.6,11.8c-1.9,0.8-3.9,1.5-5.8,2.1
			c-2.9,0.9-5.5,2.2-7.6,4.5C228.5,372.5,228.1,373.1,227.4,373.1z"/>
		<path class="st3" d="M223.9,369.4c0.6,0.2,1.1-1,1.8-0.2c-0.8,0.8-1.3,1.9-2.1,2.7c-1.2,1.1-2.4,1.9-4,2.3
			c1.5-0.4,2.8-1.1,3.9-2.3c0.5-0.5,0.9-1.4,1.9-1.4c0.4,0.3,0.7,0.5,1.1,0.8c-0.4,1.5-1.7,2.3-2.8,3.2c-1.1,0.9-2,1.9-2.1,3.4
			c-0.1,1.2-0.9,1.4-1.9,1.1c-1.1-0.2-1.7-0.6-1.5-1.8c0.2-0.8-0.2-1.3-0.9-1.8c-0.6-0.4-1.2-0.9-0.8-1.8c0.4-0.8,1.1-1.7,1.9-1.5
			c2.3,0.8,3.3-0.8,4.5-2C223.3,369.9,223.6,369.6,223.9,369.4z"/>
		<path class="st4" d="M219.8,379c1.1-0.1,1.5-0.7,1.3-1.8c-0.2-1.2,0.3-1.9,1.4-2.4c1.7-0.7,2.8-2.2,4-3.5c0.3,0.4,0.1,0.8,0.1,1.3
			c-1.9,1.6-3.9,3.2-4.5,5.9C221.7,380,220.7,379.5,219.8,379z"/>
		<path class="st5" d="M235.5,348.2c0-2.6,2.9-5,5.4-4.5c0.7,0.1,1.4,0.4,1.6,1.2c0.2,0.8-0.4,1.2-0.9,1.6c-1.2,1-2.5,1.9-3.8,2.8
			c-0.5,0.4-1,1-1.7,0.7C235.3,349.6,235.6,348.8,235.5,348.2z"/>
		<path class="st6" d="M225.4,370.5c-0.8,1.5-2.1,2.6-3.5,3.5c-0.5,0.3-0.9,0.6-1.4,0.9c-0.4,0.3-0.4,1.2-1.2,0.9
			c-0.8-0.3-1.2-1.1-1.5-1.8c-0.3-0.5,0.2-0.9,0.7-0.8c2.8,0.3,4.4-1.6,6-3.3c0.3-0.3,0.7-0.6,1.1-0.6
			C225.8,369.6,225.2,370,225.4,370.5z"/>
	</g>
	<g>
		<path class="st1" d="M298.5,401.8c-0.3,0.3-0.9,0.2-1.1-0.2l0,0c-0.4-0.2-0.6-0.6-0.8-0.9c-0.2-0.4-0.5-0.6-0.8-0.9l-0.1-0.1
			c-0.1-0.2-0.2-0.4-0.4-0.6c-0.3-0.2-0.6-0.3-0.6-0.8c-0.3-1.3,0.4-2.2,1.3-2.8c2.8-2.2,3.9-5.3,4.7-8.5c0.7-2.8,1.5-5.7,2.7-8.4
			c2-4.4,4.9-7.5,9.9-8.4c0.1,0,0.1,0,0.2-0.1s0.3-0.2,0.5-0.2h1c0.2,0,0.4,0.1,0.5,0.2s0.2,0.2,0.3,0.2c4.2,1.6,6.1,7,5,11.4
			c-1.5,6.1-5.7,10-11.3,12.4c-1.6,0.7-3.4,1.2-5.1,1.8c-1.9,0.7-3.5,1.7-4.4,3.6C299.5,400.5,299.1,401.2,298.5,401.8z"/>
		<path class="st2" d="M298.1,402L298.1,402c0.2-0.6,0.5-1.2,0.7-1.8c0.8-2.3,2.2-3.9,4.5-4.6c1.9-0.7,3.8-1.3,5.7-2.1
			c4.5-1.8,8-4.8,10.1-9.3c2.1-4.6,1.3-9-2.3-12.6c-0.5-0.5-1.1-0.8-1.5-1.4c0.2-0.1,0.1-0.1,0.3-0.2c0.4,0.5,1.1,0.4,1.6,0.5
			c5.8,1.6,8.5,6.4,6.7,12.1c-1.8,5.4-5.3,9.5-10.6,11.8c-1.9,0.8-3.9,1.5-5.8,2.1c-2.9,0.9-5.5,2.2-7.6,4.5
			C299.3,401.5,298.9,402.1,298.1,402z"/>
		<path class="st3" d="M294.7,398.3c0.6,0.2,1.1-1,1.8-0.2c-0.8,0.8-1.3,1.9-2.1,2.7c-1.2,1.1-2.4,1.9-4,2.3
			c1.5-0.4,2.8-1.1,3.9-2.3c0.5-0.5,0.9-1.4,1.9-1.4c0.4,0.3,0.7,0.5,1.1,0.8c-0.4,1.5-1.7,2.3-2.8,3.2c-1.1,0.9-2,1.9-2.1,3.4
			c-0.1,1.2-0.9,1.4-1.9,1.1c-1.1-0.2-1.7-0.6-1.5-1.8c0.2-0.8-0.2-1.3-0.9-1.8c-0.6-0.4-1.2-0.9-0.8-1.8c0.4-0.8,1.1-1.7,1.9-1.5
			c2.3,0.8,3.3-0.8,4.5-2C294.1,398.9,294.4,398.6,294.7,398.3z"/>
		<path class="st4" d="M290.6,408c1.1-0.1,1.5-0.7,1.3-1.8c-0.2-1.2,0.3-1.9,1.4-2.4c1.7-0.7,2.8-2.2,4-3.5c0.3,0.4,0.1,0.8,0.1,1.3
			c-1.9,1.6-3.9,3.2-4.5,5.9C292.5,409,291.5,408.4,290.6,408z"/>
		<path class="st5" d="M306.3,377.1c0-2.6,2.9-5,5.4-4.5c0.7,0.1,1.4,0.4,1.6,1.2c0.2,0.8-0.4,1.2-0.9,1.6c-1.2,1-2.5,1.9-3.8,2.8
			c-0.5,0.4-1,1-1.7,0.7C306.1,378.6,306.4,377.7,306.3,377.1z"/>
		<path class="st6" d="M296.2,399.5c-0.8,1.5-2.1,2.6-3.5,3.5c-0.5,0.3-0.9,0.6-1.4,0.9c-0.4,0.3-0.4,1.2-1.2,0.9
			c-0.8-0.3-1.2-1.1-1.5-1.8c-0.3-0.5,0.2-0.9,0.7-0.8c2.8,0.3,4.4-1.6,6-3.3c0.3-0.3,0.7-0.6,1.1-0.6
			C296.5,398.6,296,399,296.2,399.5z"/>
	</g>
</g>
<rect x="336.4" y="207.9" class="st0" width="139.9" height="210.3"/>
<g>
	<path class="st1" d="M437.7,252.6c-0.3,0.3-0.9,0.2-1.1-0.2l0,0c-0.4-0.2-0.6-0.6-0.8-0.9c-0.2-0.4-0.5-0.6-0.8-0.9l-0.1-0.1
		c-0.1-0.2-0.2-0.4-0.4-0.6c-0.3-0.2-0.6-0.3-0.6-0.8c-0.3-1.3,0.4-2.2,1.3-2.8c2.8-2.2,3.9-5.3,4.7-8.5c0.7-2.8,1.5-5.7,2.7-8.4
		c2-4.4,4.9-7.5,9.9-8.4c0.1,0,0.1,0,0.2-0.1s0.3-0.2,0.5-0.2h1c0.2,0,0.4,0.1,0.5,0.2c0.1,0.1,0.2,0.2,0.3,0.2
		c4.2,1.6,6.1,7,5,11.4c-1.5,6.1-5.7,10-11.3,12.4c-1.6,0.7-3.4,1.2-5.1,1.8c-1.9,0.7-3.5,1.7-4.4,3.6
		C438.7,251.2,438.4,252,437.7,252.6z"/>
	<path class="st2" d="M437.4,252.8L437.4,252.8c0.2-0.6,0.5-1.2,0.7-1.8c0.8-2.3,2.2-3.9,4.5-4.6c1.9-0.7,3.8-1.3,5.7-2.1
		c4.5-1.8,8-4.8,10.1-9.3c2.1-4.6,1.3-9-2.3-12.6c-0.5-0.5-1.1-0.8-1.5-1.4c0.2-0.1,0.1-0.1,0.3-0.2c0.4,0.5,1.1,0.4,1.6,0.5
		c5.8,1.6,8.5,6.4,6.7,12.1c-1.8,5.4-5.3,9.5-10.6,11.8c-1.9,0.8-3.9,1.5-5.8,2.1c-2.9,0.9-5.5,2.2-7.6,4.5
		C438.6,252.3,438.1,252.8,437.4,252.8z"/>
	<path class="st3" d="M433.9,249.1c0.6,0.2,1.1-1,1.8-0.2c-0.8,0.8-1.3,1.9-2.1,2.7c-1.2,1.1-2.4,1.9-4,2.3c1.5-0.4,2.8-1.1,3.9-2.3
		c0.5-0.5,0.9-1.4,1.9-1.4c0.4,0.3,0.7,0.5,1.1,0.8c-0.4,1.5-1.7,2.3-2.8,3.2c-1.1,0.9-2,1.9-2.1,3.4c-0.1,1.2-0.9,1.4-1.9,1.1
		c-1.1-0.2-1.7-0.6-1.5-1.8c0.2-0.8-0.2-1.3-0.9-1.8c-0.6-0.4-1.2-0.9-0.8-1.8c0.4-0.8,1.1-1.7,1.9-1.5c2.3,0.8,3.3-0.8,4.5-2
		C433.4,249.7,433.6,249.4,433.9,249.1z"/>
	<path class="st4" d="M429.8,258.8c1.1-0.1,1.5-0.7,1.3-1.8c-0.2-1.2,0.3-1.9,1.4-2.4c1.7-0.7,2.8-2.2,4-3.5
		c0.3,0.4,0.1,0.8,0.1,1.3c-1.9,1.6-3.9,3.2-4.5,5.9C431.8,259.7,430.7,259.2,429.8,258.8z"/>
	<path class="st5" d="M445.6,227.9c0-2.6,2.9-5,5.4-4.5c0.7,0.1,1.4,0.4,1.6,1.2s-0.4,1.2-0.9,1.6c-1.2,1-2.5,1.9-3.8,2.8
		c-0.5,0.4-1,1-1.7,0.7C445.4,229.4,445.6,228.5,445.6,227.9z"/>
	<path class="st6" d="M435.5,250.3c-0.8,1.5-2.1,2.6-3.5,3.5c-0.5,0.3-0.9,0.6-1.4,0.9c-0.4,0.3-0.4,1.2-1.2,0.9
		c-0.8-0.3-1.2-1.1-1.5-1.8c-0.3-0.5,0.2-0.9,0.7-0.8c2.8,0.3,4.4-1.6,6-3.3c0.3-0.3,0.7-0.6,1.1-0.6
		C435.8,249.4,435.2,249.8,435.5,250.3z"/>
</g>
<g>
	<path class="st1" d="M437.7,326.8c-0.3,0.3-0.9,0.2-1.1-0.2l0,0c-0.4-0.2-0.6-0.6-0.8-0.9c-0.2-0.4-0.5-0.6-0.8-0.9l-0.1-0.1
		c-0.1-0.2-0.2-0.4-0.4-0.6c-0.3-0.2-0.6-0.3-0.6-0.8c-0.3-1.3,0.4-2.2,1.3-2.8c2.8-2.2,3.9-5.3,4.7-8.5c0.7-2.8,1.5-5.7,2.7-8.4
		c2-4.4,4.9-7.5,9.9-8.4c0.1,0,0.1,0,0.2-0.1s0.3-0.2,0.5-0.2h1c0.2,0,0.4,0.1,0.5,0.2s0.2,0.2,0.3,0.2c4.2,1.6,6.1,7,5,11.4
		c-1.5,6.1-5.7,10-11.3,12.4c-1.6,0.7-3.4,1.2-5.1,1.8c-1.9,0.7-3.5,1.7-4.4,3.6C438.7,325.4,438.4,326.2,437.7,326.8z"/>
	<path class="st2" d="M437.4,327L437.4,327c0.2-0.6,0.5-1.2,0.7-1.8c0.8-2.3,2.2-3.9,4.5-4.6c1.9-0.7,3.8-1.3,5.7-2.1
		c4.5-1.8,8-4.8,10.1-9.3c2.1-4.6,1.3-9-2.3-12.6c-0.5-0.5-1.1-0.8-1.5-1.4c0.2-0.1,0.1-0.1,0.3-0.2c0.4,0.5,1.1,0.4,1.6,0.5
		c5.8,1.6,8.5,6.4,6.7,12.1c-1.8,5.4-5.3,9.5-10.6,11.8c-1.9,0.8-3.9,1.5-5.8,2.1c-2.9,0.9-5.5,2.2-7.6,4.5
		C438.6,326.5,438.1,327,437.4,327z"/>
	<path class="st3" d="M433.9,323.3c0.6,0.2,1.1-1,1.8-0.2c-0.8,0.8-1.3,1.9-2.1,2.7c-1.2,1.1-2.4,1.9-4,2.3c1.5-0.4,2.8-1.1,3.9-2.3
		c0.5-0.5,0.9-1.4,1.9-1.4c0.4,0.3,0.7,0.5,1.1,0.8c-0.4,1.5-1.7,2.3-2.8,3.2c-1.1,0.9-2,1.9-2.1,3.4c-0.1,1.2-0.9,1.4-1.9,1.1
		c-1.1-0.2-1.7-0.6-1.5-1.8c0.2-0.8-0.2-1.3-0.9-1.8c-0.6-0.4-1.2-0.9-0.8-1.8c0.4-0.8,1.1-1.7,1.9-1.5c2.3,0.8,3.3-0.8,4.5-2
		C433.4,323.9,433.6,323.6,433.9,323.3z"/>
	<path class="st4" d="M429.8,333c1.1-0.1,1.5-0.7,1.3-1.8c-0.2-1.2,0.3-1.9,1.4-2.4c1.7-0.7,2.8-2.2,4-3.5c0.3,0.4,0.1,0.8,0.1,1.3
		c-1.9,1.6-3.9,3.2-4.5,5.9C431.8,333.9,430.7,333.4,429.8,333z"/>
	<path class="st5" d="M445.6,302.1c0-2.6,2.9-5,5.4-4.5c0.7,0.1,1.4,0.4,1.6,1.2c0.2,0.8-0.4,1.2-0.9,1.6c-1.2,1-2.5,1.9-3.8,2.8
		c-0.5,0.4-1,1-1.7,0.7C445.4,303.6,445.6,302.7,445.6,302.1z"/>
	<path class="st6" d="M435.5,324.5c-0.8,1.5-2.1,2.6-3.5,3.5c-0.5,0.3-0.9,0.6-1.4,0.9c-0.4,0.3-0.4,1.2-1.2,0.9
		c-0.8-0.3-1.2-1.1-1.5-1.8c-0.3-0.5,0.2-0.9,0.7-0.8c2.8,0.3,4.4-1.6,6-3.3c0.3-0.3,0.7-0.6,1.1-0.6
		C435.8,323.6,435.2,324,435.5,324.5z"/>
</g>
<g>
	<path class="st1" d="M437.7,401.8c-0.3,0.3-0.9,0.2-1.1-0.2l0,0c-0.4-0.2-0.6-0.6-0.8-0.9c-0.2-0.4-0.5-0.6-0.8-0.9l-0.1-0.1
		c-0.1-0.2-0.2-0.4-0.4-0.6c-0.3-0.2-0.6-0.3-0.6-0.8c-0.3-1.3,0.4-2.2,1.3-2.8c2.8-2.2,3.9-5.3,4.7-8.5c0.7-2.8,1.5-5.7,2.7-8.4
		c2-4.4,4.9-7.5,9.9-8.4c0.1,0,0.1,0,0.2-0.1s0.3-0.2,0.5-0.2h1c0.2,0,0.4,0.1,0.5,0.2s0.2,0.2,0.3,0.2c4.2,1.6,6.1,7,5,11.4
		c-1.5,6.1-5.7,10-11.3,12.4c-1.6,0.7-3.4,1.2-5.1,1.8c-1.9,0.7-3.5,1.7-4.4,3.6C438.7,400.5,438.4,401.2,437.7,401.8z"/>
	<path class="st2" d="M437.4,402L437.4,402c0.2-0.6,0.5-1.2,0.7-1.8c0.8-2.3,2.2-3.9,4.5-4.6c1.9-0.7,3.8-1.3,5.7-2.1
		c4.5-1.8,8-4.8,10.1-9.3c2.1-4.6,1.3-9-2.3-12.6c-0.5-0.5-1.1-0.8-1.5-1.4c0.2-0.1,0.1-0.1,0.3-0.2c0.4,0.5,1.1,0.4,1.6,0.5
		c5.8,1.6,8.5,6.4,6.7,12.1c-1.8,5.4-5.3,9.5-10.6,11.8c-1.9,0.8-3.9,1.5-5.8,2.1c-2.9,0.9-5.5,2.2-7.6,4.5
		C438.6,401.5,438.1,402.1,437.4,402z"/>
	<path class="st3" d="M433.9,398.3c0.6,0.2,1.1-1,1.8-0.2c-0.8,0.8-1.3,1.9-2.1,2.7c-1.2,1.1-2.4,1.9-4,2.3c1.5-0.4,2.8-1.1,3.9-2.3
		c0.5-0.5,0.9-1.4,1.9-1.4c0.4,0.3,0.7,0.5,1.1,0.8c-0.4,1.5-1.7,2.3-2.8,3.2c-1.1,0.9-2,1.9-2.1,3.4c-0.1,1.2-0.9,1.4-1.9,1.1
		c-1.1-0.2-1.7-0.6-1.5-1.8c0.2-0.8-0.2-1.3-0.9-1.8c-0.6-0.4-1.2-0.9-0.8-1.8c0.4-0.8,1.1-1.7,1.9-1.5c2.3,0.8,3.3-0.8,4.5-2
		C433.4,398.9,433.6,398.6,433.9,398.3z"/>
	<path class="st4" d="M429.8,408c1.1-0.1,1.5-0.7,1.3-1.8c-0.2-1.2,0.3-1.9,1.4-2.4c1.7-0.7,2.8-2.2,4-3.5c0.3,0.4,0.1,0.8,0.1,1.3
		c-1.9,1.6-3.9,3.2-4.5,5.9C431.8,409,430.7,408.4,429.8,408z"/>
	<path class="st5" d="M445.6,377.1c0-2.6,2.9-5,5.4-4.5c0.7,0.1,1.4,0.4,1.6,1.2c0.2,0.8-0.4,1.2-0.9,1.6c-1.2,1-2.5,1.9-3.8,2.8
		c-0.5,0.4-1,1-1.7,0.7C445.4,378.6,445.6,377.7,445.6,377.1z"/>
	<path class="st6" d="M435.5,399.5c-0.8,1.5-2.1,2.6-3.5,3.5c-0.5,0.3-0.9,0.6-1.4,0.9c-0.4,0.3-0.4,1.2-1.2,0.9
		c-0.8-0.3-1.2-1.1-1.5-1.8c-0.3-0.5,0.2-0.9,0.7-0.8c2.8,0.3,4.4-1.6,6-3.3c0.3-0.3,0.7-0.6,1.1-0.6
		C435.8,398.6,435.2,399,435.5,399.5z"/>
</g>
<g>
	<rect x="-69.4" y="207.9" class="st0" width="139.9" height="210.3"/>
	<g>
		<path class="st1" d="M28.4,252.6c-0.3,0.3-0.9,0.2-1.1-0.2l0,0c-0.4-0.2-0.6-0.6-0.8-0.9c-0.2-0.4-0.5-0.6-0.8-0.9l-0.1-0.1
			c-0.1-0.2-0.2-0.4-0.4-0.6c-0.3-0.2-0.6-0.3-0.6-0.8c-0.3-1.3,0.4-2.2,1.3-2.8c2.8-2.2,3.9-5.3,4.7-8.5c0.7-2.8,1.5-5.7,2.7-8.4
			c2-4.4,4.9-7.5,9.9-8.4c0.1,0,0.1,0,0.2-0.1c0.1-0.1,0.3-0.2,0.5-0.2h1c0.2,0,0.4,0.1,0.5,0.2c0.1,0.1,0.2,0.2,0.3,0.2
			c4.2,1.6,6.1,7,5,11.4c-1.5,6.1-5.7,10-11.3,12.4c-1.6,0.7-3.4,1.2-5.1,1.8c-1.9,0.7-3.5,1.7-4.4,3.6
			C29.4,251.2,29.1,252,28.4,252.6z"/>
		<path class="st2" d="M28.1,252.8L28.1,252.8c0.2-0.6,0.5-1.2,0.7-1.8c0.8-2.3,2.2-3.9,4.5-4.6c1.9-0.7,3.8-1.3,5.7-2.1
			c4.5-1.8,8-4.8,10.1-9.3c2.1-4.6,1.3-9-2.3-12.6c-0.5-0.5-1.1-0.8-1.5-1.4c0.2-0.1,0.1-0.1,0.3-0.2c0.4,0.5,1.1,0.4,1.6,0.5
			c5.8,1.6,8.5,6.4,6.7,12.1c-1.8,5.4-5.3,9.5-10.6,11.8c-1.9,0.8-3.9,1.5-5.8,2.1c-2.9,0.9-5.5,2.2-7.6,4.5
			C29.3,252.3,28.8,252.8,28.1,252.8z"/>
		<path class="st3" d="M24.6,249.1c0.6,0.2,1.1-1,1.8-0.2c-0.8,0.8-1.3,1.9-2.1,2.7c-1.2,1.1-2.4,1.9-4,2.3c1.5-0.4,2.8-1.1,3.9-2.3
			c0.5-0.5,0.9-1.4,1.9-1.4c0.4,0.3,0.7,0.5,1.1,0.8c-0.4,1.5-1.7,2.3-2.8,3.2c-1.1,0.9-2,1.9-2.1,3.4c-0.1,1.2-0.9,1.4-1.9,1.1
			c-1.1-0.2-1.7-0.6-1.5-1.8c0.2-0.8-0.2-1.3-0.9-1.8c-0.6-0.4-1.2-0.9-0.8-1.8c0.4-0.8,1.1-1.7,1.9-1.5c2.3,0.8,3.3-0.8,4.5-2
			C24.1,249.7,24.3,249.4,24.6,249.1z"/>
		<path class="st4" d="M20.5,258.8c1.1-0.1,1.5-0.7,1.3-1.8c-0.2-1.2,0.3-1.9,1.4-2.4c1.7-0.7,2.8-2.2,4-3.5
			c0.3,0.4,0.1,0.8,0.1,1.3c-1.9,1.6-3.9,3.2-4.5,5.9C22.5,259.7,21.4,259.2,20.5,258.8z"/>
		<path class="st5" d="M36.2,227.9c0-2.6,2.9-5,5.4-4.5c0.7,0.1,1.4,0.4,1.6,1.2c0.2,0.8-0.4,1.2-0.9,1.6c-1.2,1-2.5,1.9-3.8,2.8
			c-0.5,0.4-1,1-1.7,0.7S36.3,228.5,36.2,227.9z"/>
		<path class="st6" d="M26.2,250.3c-0.8,1.5-2.1,2.6-3.5,3.5c-0.5,0.3-0.9,0.6-1.4,0.9c-0.4,0.3-0.4,1.2-1.2,0.9
			c-0.8-0.3-1.2-1.1-1.5-1.8c-0.3-0.5,0.2-0.9,0.7-0.8c2.8,0.3,4.4-1.6,6-3.3c0.3-0.3,0.7-0.6,1.1-0.6
			C26.5,249.4,25.9,249.8,26.2,250.3z"/>
	</g>
	<g>
		<path class="st1" d="M28.4,326.8c-0.3,0.3-0.9,0.2-1.1-0.2l0,0c-0.4-0.2-0.6-0.6-0.8-0.9c-0.2-0.4-0.5-0.6-0.8-0.9l-0.1-0.1
			c-0.1-0.2-0.2-0.4-0.4-0.6c-0.3-0.2-0.6-0.3-0.6-0.8c-0.3-1.3,0.4-2.2,1.3-2.8c2.8-2.2,3.9-5.3,4.7-8.5c0.7-2.8,1.5-5.7,2.7-8.4
			c2-4.4,4.9-7.5,9.9-8.4c0.1,0,0.1,0,0.2-0.1c0.1-0.1,0.3-0.2,0.5-0.2h1c0.2,0,0.4,0.1,0.5,0.2s0.2,0.2,0.3,0.2
			c4.2,1.6,6.1,7,5,11.4c-1.5,6.1-5.7,10-11.3,12.4c-1.6,0.7-3.4,1.2-5.1,1.8c-1.9,0.7-3.5,1.7-4.4,3.6
			C29.4,325.4,29.1,326.2,28.4,326.8z"/>
		<path class="st2" d="M28.1,327L28.1,327c0.2-0.6,0.5-1.2,0.7-1.8c0.8-2.3,2.2-3.9,4.5-4.6c1.9-0.7,3.8-1.3,5.7-2.1
			c4.5-1.8,8-4.8,10.1-9.3c2.1-4.6,1.3-9-2.3-12.6c-0.5-0.5-1.1-0.8-1.5-1.4c0.2-0.1,0.1-0.1,0.3-0.2c0.4,0.5,1.1,0.4,1.6,0.5
			c5.8,1.6,8.5,6.4,6.7,12.1c-1.8,5.4-5.3,9.5-10.6,11.8c-1.9,0.8-3.9,1.5-5.8,2.1c-2.9,0.9-5.5,2.2-7.6,4.5
			C29.3,326.5,28.8,327,28.1,327z"/>
		<path class="st3" d="M24.6,323.3c0.6,0.2,1.1-1,1.8-0.2c-0.8,0.8-1.3,1.9-2.1,2.7c-1.2,1.1-2.4,1.9-4,2.3c1.5-0.4,2.8-1.1,3.9-2.3
			c0.5-0.5,0.9-1.4,1.9-1.4c0.4,0.3,0.7,0.5,1.1,0.8c-0.4,1.5-1.7,2.3-2.8,3.2c-1.1,0.9-2,1.9-2.1,3.4c-0.1,1.2-0.9,1.4-1.9,1.1
			c-1.1-0.2-1.7-0.6-1.5-1.8c0.2-0.8-0.2-1.3-0.9-1.8c-0.6-0.4-1.2-0.9-0.8-1.8c0.4-0.8,1.1-1.7,1.9-1.5c2.3,0.8,3.3-0.8,4.5-2
			C24.1,323.9,24.3,323.6,24.6,323.3z"/>
		<path class="st4" d="M20.5,333c1.1-0.1,1.5-0.7,1.3-1.8c-0.2-1.2,0.3-1.9,1.4-2.4c1.7-0.7,2.8-2.2,4-3.5c0.3,0.4,0.1,0.8,0.1,1.3
			c-1.9,1.6-3.9,3.2-4.5,5.9C22.5,333.9,21.4,333.4,20.5,333z"/>
		<path class="st5" d="M36.2,302.1c0-2.6,2.9-5,5.4-4.5c0.7,0.1,1.4,0.4,1.6,1.2c0.2,0.8-0.4,1.2-0.9,1.6c-1.2,1-2.5,1.9-3.8,2.8
			c-0.5,0.4-1,1-1.7,0.7C36.1,303.6,36.3,302.7,36.2,302.1z"/>
		<path class="st6" d="M26.2,324.5c-0.8,1.5-2.1,2.6-3.5,3.5c-0.5,0.3-0.9,0.6-1.4,0.9c-0.4,0.3-0.4,1.2-1.2,0.9
			c-0.8-0.3-1.2-1.1-1.5-1.8c-0.3-0.5,0.2-0.9,0.7-0.8c2.8,0.3,4.4-1.6,6-3.3c0.3-0.3,0.7-0.6,1.1-0.6
			C26.5,323.6,25.9,324,26.2,324.5z"/>
	</g>
	<g>
		<path class="st1" d="M-41,298.6c-0.3,0.3-0.9,0.2-1.1-0.2l0,0c-0.4-0.2-0.6-0.6-0.8-0.9c-0.2-0.4-0.5-0.6-0.8-0.9l-0.1-0.1
			c-0.1-0.2-0.2-0.4-0.4-0.6c-0.3-0.2-0.6-0.3-0.6-0.8c-0.3-1.3,0.4-2.2,1.3-2.8c2.8-2.2,3.9-5.3,4.7-8.5c0.7-2.8,1.5-5.7,2.7-8.4
			c2-4.4,4.9-7.5,9.9-8.4c0.1,0,0.1,0,0.2-0.1s0.3-0.2,0.5-0.2h1c0.2,0,0.4,0.1,0.5,0.2s0.2,0.2,0.3,0.2c4.2,1.6,6.1,7,5,11.4
			c-1.5,6.1-5.7,10-11.3,12.4c-1.6,0.7-3.4,1.2-5.1,1.8c-1.9,0.7-3.5,1.7-4.4,3.6C-40,297.3-40.3,298.1-41,298.6z"/>
		<path class="st2" d="M-41.3,298.9C-41.3,298.9-41.3,298.8-41.3,298.9c0.2-0.6,0.5-1.2,0.7-1.8c0.8-2.3,2.2-3.9,4.5-4.6
			c1.9-0.7,3.8-1.3,5.7-2.1c4.5-1.8,8-4.8,10.1-9.3c2.1-4.6,1.3-9-2.3-12.6c-0.5-0.5-1.1-0.8-1.5-1.4c0.2-0.1,0.1-0.1,0.3-0.2
			c0.4,0.5,1.1,0.4,1.6,0.5c5.8,1.6,8.5,6.4,6.7,12.1c-1.8,5.4-5.3,9.5-10.6,11.8c-1.9,0.8-3.9,1.5-5.8,2.1
			c-2.9,0.9-5.5,2.2-7.6,4.5C-40.1,298.3-40.5,298.9-41.3,298.9z"/>
		<path class="st3" d="M-44.8,295.2c0.6,0.2,1.1-1,1.8-0.2c-0.8,0.8-1.3,1.9-2.1,2.7c-1.2,1.1-2.4,1.9-4,2.3
			c1.5-0.4,2.8-1.1,3.9-2.3c0.5-0.5,0.9-1.4,1.9-1.4c0.4,0.3,0.7,0.5,1.1,0.8c-0.4,1.5-1.7,2.3-2.8,3.2c-1.1,0.9-2,1.9-2.1,3.4
			c-0.1,1.2-0.9,1.4-1.9,1.1c-1.1-0.2-1.7-0.6-1.5-1.8c0.2-0.8-0.2-1.3-0.9-1.8c-0.6-0.4-1.2-0.9-0.8-1.8c0.4-0.8,1.1-1.7,1.9-1.5
			c2.3,0.8,3.3-0.8,4.5-2C-45.3,295.7-45,295.4-44.8,295.2z"/>
		<path class="st4" d="M-48.8,304.8c1.1-0.1,1.5-0.7,1.3-1.8c-0.2-1.2,0.3-1.9,1.4-2.4c1.7-0.7,2.8-2.2,4-3.5
			c0.3,0.4,0.1,0.8,0.1,1.3c-1.9,1.6-3.9,3.2-4.5,5.9C-46.9,305.8-47.9,305.3-48.8,304.8z"/>
		<path class="st5" d="M-33.1,274c0-2.6,2.9-5,5.4-4.5c0.7,0.1,1.4,0.4,1.6,1.2c0.2,0.8-0.4,1.2-0.9,1.6c-1.2,1-2.5,1.9-3.8,2.8
			c-0.5,0.4-1,1-1.7,0.7C-33.3,275.4-33,274.6-33.1,274z"/>
		<path class="st6" d="M-43.2,296.3c-0.8,1.5-2.1,2.6-3.5,3.5c-0.5,0.3-0.9,0.6-1.4,0.9c-0.4,0.3-0.4,1.2-1.2,0.9
			c-0.8-0.3-1.2-1.1-1.5-1.8c-0.3-0.5,0.2-0.9,0.7-0.8c2.8,0.3,4.4-1.6,6-3.3c0.3-0.3,0.7-0.6,1.1-0.6
			C-42.9,295.5-43.5,295.8-43.2,296.3z"/>
	</g>
	<g>
		<path class="st1" d="M-42.4,372.8c-0.3,0.3-0.9,0.2-1.1-0.2l0,0c-0.4-0.2-0.6-0.6-0.8-0.9c-0.2-0.4-0.5-0.6-0.8-0.9l-0.1-0.1
			c-0.1-0.2-0.2-0.4-0.4-0.6c-0.3-0.2-0.6-0.3-0.6-0.8c-0.3-1.3,0.4-2.2,1.3-2.8c2.8-2.2,3.9-5.3,4.7-8.5c0.7-2.8,1.5-5.7,2.7-8.4
			c2-4.4,4.9-7.5,9.9-8.4c0.1,0,0.1,0,0.2-0.1s0.3-0.2,0.5-0.2h1c0.2,0,0.4,0.1,0.5,0.2s0.2,0.2,0.3,0.2c4.2,1.6,6.1,7,5,11.4
			c-1.5,6.1-5.7,10-11.3,12.4c-1.6,0.7-3.4,1.2-5.1,1.8c-1.9,0.7-3.5,1.7-4.4,3.6C-41.4,371.5-41.7,372.3-42.4,372.8z"/>
		<path class="st2" d="M-42.7,373.1C-42.7,373.1-42.7,373-42.7,373.1c0.2-0.6,0.5-1.2,0.7-1.8c0.8-2.3,2.2-3.9,4.5-4.6
			c1.9-0.7,3.8-1.3,5.7-2.1c4.5-1.8,8-4.8,10.1-9.3c2.1-4.6,1.3-9-2.3-12.6c-0.5-0.5-1.1-0.8-1.5-1.4c0.2-0.1,0.1-0.1,0.3-0.2
			c0.4,0.5,1.1,0.4,1.6,0.5c5.8,1.6,8.5,6.4,6.7,12.1c-1.8,5.4-5.3,9.5-10.6,11.8c-1.9,0.8-3.9,1.5-5.8,2.1
			c-2.9,0.9-5.5,2.2-7.6,4.5C-41.5,372.5-42,373.1-42.7,373.1z"/>
		<path class="st3" d="M-46.2,369.4c0.6,0.2,1.1-1,1.8-0.2c-0.8,0.8-1.3,1.9-2.1,2.7c-1.2,1.1-2.4,1.9-4,2.3
			c1.5-0.4,2.8-1.1,3.9-2.3c0.5-0.5,0.9-1.4,1.9-1.4c0.4,0.3,0.7,0.5,1.1,0.8c-0.4,1.5-1.7,2.3-2.8,3.2c-1.1,0.9-2,1.9-2.1,3.4
			c-0.1,1.2-0.9,1.4-1.9,1.1c-1.1-0.2-1.7-0.6-1.5-1.8c0.2-0.8-0.2-1.3-0.9-1.8c-0.6-0.4-1.2-0.9-0.8-1.8c0.4-0.8,1.1-1.7,1.9-1.5
			c2.3,0.8,3.3-0.8,4.5-2C-46.7,369.9-46.4,369.6-46.2,369.4z"/>
		<path class="st4" d="M-50.3,379c1.1-0.1,1.5-0.7,1.3-1.8c-0.2-1.2,0.3-1.9,1.4-2.4c1.7-0.7,2.8-2.2,4-3.5c0.3,0.4,0.1,0.8,0.1,1.3
			c-1.9,1.6-3.9,3.2-4.5,5.9C-48.3,380-49.4,379.5-50.3,379z"/>
		<path class="st5" d="M-34.5,348.2c0-2.6,2.9-5,5.4-4.5c0.7,0.1,1.4,0.4,1.6,1.2c0.2,0.8-0.4,1.2-0.9,1.6c-1.2,1-2.5,1.9-3.8,2.8
			c-0.5,0.4-1,1-1.7,0.7C-34.7,349.6-34.5,348.8-34.5,348.2z"/>
		<path class="st6" d="M-44.6,370.5c-0.8,1.5-2.1,2.6-3.5,3.5c-0.5,0.3-0.9,0.6-1.4,0.9c-0.4,0.3-0.4,1.2-1.2,0.9
			c-0.8-0.3-1.2-1.1-1.5-1.8c-0.3-0.5,0.2-0.9,0.7-0.8c2.8,0.3,4.4-1.6,6-3.3c0.3-0.3,0.7-0.6,1.1-0.6
			C-44.3,369.6-44.9,370-44.6,370.5z"/>
	</g>
	<g>
		<path class="st1" d="M28.4,401.8c-0.3,0.3-0.9,0.2-1.1-0.2l0,0c-0.4-0.2-0.6-0.6-0.8-0.9c-0.2-0.4-0.5-0.6-0.8-0.9l-0.1-0.1
			c-0.1-0.2-0.2-0.4-0.4-0.6c-0.3-0.2-0.6-0.3-0.6-0.8c-0.3-1.3,0.4-2.2,1.3-2.8c2.8-2.2,3.9-5.3,4.7-8.5c0.7-2.8,1.5-5.7,2.7-8.4
			c2-4.4,4.9-7.5,9.9-8.4c0.1,0,0.1,0,0.2-0.1c0.1-0.1,0.3-0.2,0.5-0.2h1c0.2,0,0.4,0.1,0.5,0.2s0.2,0.2,0.3,0.2
			c4.2,1.6,6.1,7,5,11.4c-1.5,6.1-5.7,10-11.3,12.4c-1.6,0.7-3.4,1.2-5.1,1.8c-1.9,0.7-3.5,1.7-4.4,3.6
			C29.4,400.5,29.1,401.2,28.4,401.8z"/>
		<path class="st2" d="M28.1,402L28.1,402c0.2-0.6,0.5-1.2,0.7-1.8c0.8-2.3,2.2-3.9,4.5-4.6c1.9-0.7,3.8-1.3,5.7-2.1
			c4.5-1.8,8-4.8,10.1-9.3c2.1-4.6,1.3-9-2.3-12.6c-0.5-0.5-1.1-0.8-1.5-1.4c0.2-0.1,0.1-0.1,0.3-0.2c0.4,0.5,1.1,0.4,1.6,0.5
			c5.8,1.6,8.5,6.4,6.7,12.1c-1.8,5.4-5.3,9.5-10.6,11.8c-1.9,0.8-3.9,1.5-5.8,2.1c-2.9,0.9-5.5,2.2-7.6,4.5
			C29.3,401.5,28.8,402.1,28.1,402z"/>
		<path class="st3" d="M24.6,398.3c0.6,0.2,1.1-1,1.8-0.2c-0.8,0.8-1.3,1.9-2.1,2.7c-1.2,1.1-2.4,1.9-4,2.3c1.5-0.4,2.8-1.1,3.9-2.3
			c0.5-0.5,0.9-1.4,1.9-1.4c0.4,0.3,0.7,0.5,1.1,0.8c-0.4,1.5-1.7,2.3-2.8,3.2c-1.1,0.9-2,1.9-2.1,3.4c-0.1,1.2-0.9,1.4-1.9,1.1
			c-1.1-0.2-1.7-0.6-1.5-1.8c0.2-0.8-0.2-1.3-0.9-1.8c-0.6-0.4-1.2-0.9-0.8-1.8c0.4-0.8,1.1-1.7,1.9-1.5c2.3,0.8,3.3-0.8,4.5-2
			C24.1,398.9,24.3,398.6,24.6,398.3z"/>
		<path class="st4" d="M20.5,408c1.1-0.1,1.5-0.7,1.3-1.8c-0.2-1.2,0.3-1.9,1.4-2.4c1.7-0.7,2.8-2.2,4-3.5c0.3,0.4,0.1,0.8,0.1,1.3
			c-1.9,1.6-3.9,3.2-4.5,5.9C22.5,409,21.4,408.4,20.5,408z"/>
		<path class="st5" d="M36.2,377.1c0-2.6,2.9-5,5.4-4.5c0.7,0.1,1.4,0.4,1.6,1.2c0.2,0.8-0.4,1.2-0.9,1.6c-1.2,1-2.5,1.9-3.8,2.8
			c-0.5,0.4-1,1-1.7,0.7C36.1,378.6,36.3,377.7,36.2,377.1z"/>
		<path class="st6" d="M26.2,399.5c-0.8,1.5-2.1,2.6-3.5,3.5c-0.5,0.3-0.9,0.6-1.4,0.9c-0.4,0.3-0.4,1.2-1.2,0.9
			c-0.8-0.3-1.2-1.1-1.5-1.8c-0.3-0.5,0.2-0.9,0.7-0.8c2.8,0.3,4.4-1.6,6-3.3c0.3-0.3,0.7-0.6,1.1-0.6
			C26.5,398.6,25.9,399,26.2,399.5z"/>
	</g>
</g>
</svg>
