<?xml version="1.0" encoding="utf-8"?>
<!-- Generator: Adobe Illustrator 26.0.2, SVG Export Plug-In . SVG Version: 6.00 Build 0)  -->
<svg version="1.1" id="Layer_1" xmlns="http://www.w3.org/2000/svg" xmlns:xlink="http://www.w3.org/1999/xlink" x="0px" y="0px"
	 viewBox="0 0 207 115.3" style="enable-background:new 0 0 207 115.3;" xml:space="preserve">
<style type="text/css">
	.st0{fill:#BA6E8A;}
	.st1{fill:#3F2222;}
	.st2{fill:#B96E8A;}
	.st3{fill:#F4C1DA;}
	.st4{fill:#FAE7F1;}
</style>
<g id="Pig_1_00000152253661835635599680000000843185395194512274_">
	<g>
		<path class="st0" d="M75.3,103.1c0-8.2,0-16.3,0-24.5h-24v24.5c3.2,0.5,7,0.9,11.1,1C67.4,104.2,71.7,103.7,75.3,103.1z"/>
		<path class="st1" d="M62.5,104.1c-4.2,0-7.9-0.4-11.1-1v5.5c3,0.9,7.2,1.7,12.3,1.7c4.8,0,8.8-0.9,11.7-1.7c0-1.8,0-3.7,0-5.5
			C71.7,103.7,67.4,104.2,62.5,104.1z"/>
	</g>
	<g>
		<path class="st2" d="M170.1,101.8c0-8.2,0-16.3,0-24.5h-24v24.5c3.2,0.5,7,0.9,11.1,1C162.2,102.8,166.5,102.4,170.1,101.8z"/>
		<path class="st1" d="M157.3,102.7c-4.2,0-7.9-0.4-11.1-1v5.5c3,0.9,7.2,1.7,12.3,1.7c4.8,0,8.8-0.9,11.7-1.7c0-1.8,0-3.7,0-5.5
			C166.5,102.4,162.2,102.8,157.3,102.7z"/>
	</g>
	<g>
		<path class="st2" d="M194.8,36.8c-1.8,0-3.4-1.1-4.3-2.2c-1.4-1.8-1.6-4.5-0.5-6.1c0.8-1.2,2.3-1.9,4.5-2
			c-4.6-1.5-12.8,2.6-15.5,5.3c-0.4,0.4-1,0.4-1.4,0s-0.4-1,0-1.4c3-3,14.5-9.3,19.8-4.5c0.2,0.2,0.4,0.4,0.7,0.7
			c2.4,0.4,5.2,1.1,8.3,2.4c0.5,0.2,0.7,0.7,0.5,1.2c-0.2,0.5-0.7,0.7-1.2,0.5c-2.4-0.9-4.6-1.6-6.4-2c0.5,1.2,0.7,2.7,0.3,4.1
			c-0.1,0.5-1,2.9-3.4,3.7C195.7,36.8,195.3,36.8,194.8,36.8z M195.2,28.4c-1.9,0-3.1,0.4-3.6,1.1c-0.6,0.9-0.5,2.7,0.4,3.9
			c0.8,1,2.2,1.8,3.6,1.4c1.5-0.5,2.1-2.2,2.1-2.4c0.4-1.4-0.1-2.9-0.8-3.9C196.3,28.4,195.7,28.4,195.2,28.4z"/>
	</g>
	<path class="st0" d="M28.9,8.5c-1.6-2-3.2-3.4-4.4-4.3c-2.1-1.6-4.2-3.1-7-3c-0.7,0-1.2,0.1-1.6,0.2c-1.9,0.4-4.1,1.4-6.8,4
		C7.4,7,4.4,9.9,2.7,14.7c-1.1,3.1-1.3,6-1.2,8.4c0.1,1.9,2.4,2.6,3.7,1.2c0,0,0,0,0,0c0.9-1,1.9-1.8,2.7-2.4"/>
	<g>
		<path class="st1" d="M154.4,107.2c0,1.8,0,3.6-0.1,5.4c2.5,0.8,6.2,1.7,10.7,1.8c5,0,9-1.1,11.5-2c0-1.6,0.1-3.3,0.2-5
			c-3.3,0.5-6.9,0.8-10.9,0.8C161.6,108.2,157.8,107.8,154.4,107.2z"/>
		<path class="st3" d="M179.5,79.8c2.6-2.7,6.5-7.5,9.2-14.5c3.3-8.8,2.9-16.5,2.4-20.4c-0.3-11.5-5.1-22.2-13.2-30.1
			c-6-5.9-14.2-9-22.6-9H41.9v0c-0.4,0-0.9,0-1.3,0C18.2,5.9,0,23.9,0,46s18.2,40.1,40.6,40.1c0.4,0,0.9,0,1.3,0v0h23.2v21
			c3.5,0.6,7.5,1,12,1c4.6,0,8.8-0.4,12.4-1V86.1h65.1c-0.1,7-0.1,14.1-0.2,21.1c3.4,0.5,7.2,0.9,11.5,0.9c4,0,7.6-0.3,10.9-0.8
			c0.2-5,0.6-10.3,1.2-15.7C178.4,87.6,178.9,83.6,179.5,79.8z"/>
	</g>
	<ellipse class="st1" cx="49.7" cy="40" rx="4.2" ry="6.6"/>
	<ellipse class="st1" cx="20.3" cy="40" rx="4.2" ry="6.6"/>
	<g id="Nose">
		<path class="st2" d="M49.2,63.4c1.7-5.2-5.5-14.2-13.8-14.3c-8.6-0.1-16,9.2-14.3,14.4c1.7,5.4,12.9,5.6,13.7,5.6
			C38.9,69.2,47.7,68.2,49.2,63.4z"/>
		<ellipse class="st1" cx="29" cy="59.1" rx="2.6" ry="2.8"/>
		<ellipse class="st1" cx="42" cy="59.1" rx="2.6" ry="2.8"/>
	</g>
	<path class="st2" d="M81.6,1.8c-3.1-0.7-6.7-1.3-10.7-1.6c-3.6-0.3-6.9-0.2-9.7,0c-0.4,0-0.7,0.1-1,0.4c-1.3,1-3,2.4-4.5,4.5
		c-0.3,0.4-0.6,0.8-0.8,1.2L55,6.3l4.2,6.6l0.5-0.8c0.3-0.4,0.6-0.7,0.9-1l1.6,1.3c1.3,1.2,2.6,2.7,3.9,4.3c2.5,3.1,4.2,6.1,5.6,8.9
		c0.6,1.3,2.3,1.5,3.2,0.4c1.9-2.2,3.7-4.9,5.2-8.2c1.1-2.4,2.9-6.5,3.1-12.1L83,3.6C83,2.7,82.4,1.9,81.6,1.8z"/>
	<g>
		<path class="st4" d="M160.3,16.3h-56.7c-1.2,0-2.2-1.1-2.2-2.5s1-2.5,2.2-2.5h56.7c1.2,0,2.2,1.1,2.2,2.5S161.6,16.3,160.3,16.3z"
			/>
	</g>
	<path class="st1" d="M65.1,107.2v5.9c2.5,1,6.7,2.3,12,2.3c5.4,0,9.7-1.3,12.3-2.3c0-1.9,0-3.9,0-5.8c-3.6,0.6-7.8,1-12.4,1
		C72.7,108.2,68.6,107.7,65.1,107.2z"/>
</g>
</svg>
