<svg xmlns="http://www.w3.org/2000/svg" viewBox="0 0 567.56 701.34"><defs><style>.cls-1{fill:#878ca5;}.cls-2{fill:#1a1a1a;}.cls-3{fill:#5e6973;}.cls-4{fill:#dfc9f2;}.cls-5,.cls-6,.cls-7{fill:#fff;}.cls-5{opacity:0.15;}.cls-6{opacity:0.21;}.cls-7{opacity:0.24;}.cls-8{fill:#b3b3b3;opacity:0.28;}</style></defs><g id="Layer_2" data-name="Layer 2"><g id="stunning_tongs" data-name="stunning tongs"><path class="cls-1" d="M162.19,243.19a4.58,4.58,0,0,1,1.62.32c30.08-11.58,48.54-55.86,64.2-102.35L215.44,138a4.09,4.09,0,0,1-.52-.23c-12.16,25.14-36.31,102-71.32,96.77-35,5.21-59.15-71.58-71.3-96.75l-12.37,4.54a3.23,3.23,0,0,1-.33.06c15.87,46.93,34.68,91.35,65.53,101.77a4.68,4.68,0,0,1,2.82-1Zm8.9-16.4c15-9.45,32.68-48,36.75-57.22a2.18,2.18,0,0,1,2.88-1.1,2.22,2.22,0,0,1,1.17,2.76c-12.63,34.8-32.41,54.7-37.48,59.4a2.17,2.17,0,0,1-2.6.26l-.63-.38A2.2,2.2,0,0,1,171.09,226.79Zm-56.84,4.83-.62.38a2.17,2.17,0,0,1-2.6-.26c-5.07-4.7-24.85-24.6-37.48-59.4a2.19,2.19,0,0,1,1.17-2.75,2.16,2.16,0,0,1,2.88,1.1c4.06,9.23,21.7,47.76,36.75,57.21A2.2,2.2,0,0,1,114.25,231.62Z"/><path class="cls-2" d="M358.75,435.47c-95.91,100.71-174.26,30.74-188.09,16.76a6.74,6.74,0,0,1-3.53,1.58c10.32,11.72,88.71,92.84,196.87-12.51,116.19-113.17,193.6,260,193.6,260l10-9.07S480.4,307.75,358.75,435.47Z"/><path class="cls-3" d="M170.92,452h0a1.92,1.92,0,0,0-.68-3.18c-19-7.92-15.53-84.11-14.55-100.52,5.22-9.71,8.68-26.62,8.68-45.86,0-14-1.84-26.8-4.85-36.47a4.8,4.8,0,0,0,.89-1.35l6.2-14.82a4.77,4.77,0,0,0-2.8-6.32,4.58,4.58,0,0,0-1.62-.32H128a4.68,4.68,0,0,0-2.82,1,4.76,4.76,0,0,0-1.45,6L131.23,265c.09.17.22.3.32.46-3.12,9.73-5,22.73-5,37,0,19.76,3.64,37.07,9.09,46.64,2.41,71.49,17.83,95.34,26.14,103a6.56,6.56,0,0,0,5.37,1.66,6.74,6.74,0,0,0,3.53-1.58C170.75,452.16,170.84,452.11,170.92,452ZM145.59,330.9c-4.64,0-8.4-.48-8.4-1.06s3.76-1.07,8.4-1.07,8.4.48,8.4,1.07S150.23,330.9,145.59,330.9Zm0-8.9c-4.64,0-8.4-.48-8.4-1.07s3.76-1.06,8.4-1.06,8.4.47,8.4,1.06S150.23,322,145.59,322Zm0-8.91c-4.64,0-8.4-.48-8.4-1.06S141,311,145.59,311s8.4.48,8.4,1.07S150.23,313.09,145.59,313.09Zm0-8.9c-4.64,0-8.4-.48-8.4-1.07s3.76-1.06,8.4-1.06,8.4.48,8.4,1.06S150.23,304.19,145.59,304.19Zm0-8.91c-4.64,0-8.4-.47-8.4-1.06s3.76-1.06,8.4-1.06,8.4.47,8.4,1.06S150.23,295.28,145.59,295.28Zm5.12-9.47H140.2a3.58,3.58,0,0,1-3.45-4.55l2.6-9.35a3.59,3.59,0,0,1,3.45-2.63h4.79a3.59,3.59,0,0,1,3.4,2.46l3.12,9.35A3.59,3.59,0,0,1,150.71,285.81Z"/><path d="M72.3,137.78l.38-.15a4.3,4.3,0,0,0,2.58-4.2l.06-7.63A6.33,6.33,0,0,0,74,121.9a5.15,5.15,0,0,0,1.69-4L23.38,9.13l.42-.21L3.07,18.17A5.16,5.16,0,0,0,.38,24.83L42.8,130a5.19,5.19,0,0,0,5.89,3.12,6.19,6.19,0,0,0,1.38,2.29L55.45,141a4.29,4.29,0,0,0,4.15,1.38,3.23,3.23,0,0,0,.33-.06ZM49.55,117.85a3.71,3.71,0,0,1-4.86-2L10.52,34.43a3.71,3.71,0,1,1,6.85-2.87L51.54,113A3.7,3.7,0,0,1,49.55,117.85Z"/><path class="cls-4" d="M75.68,117.88l.29.6,39.27-18.89-2.65-3.25-2.53,1.13,1.1-2.89-2.24-2.74L106.33,93,107.46,90l-2.21-2.71-2.65,1.19,1.16-3-2.18-2.67L98.88,84,100.06,81l-2.14-2.63-2.77,1.23,1.21-3.14-2.11-2.59-2.82,1.26,1.23-3.21-2.08-2.55L87.7,70.61,89,67.34l-2-2.51L84,66.13l1.28-3.33-2-2.48-3,1.34,1.3-3.4-2-2.44-3,1.36,1.33-3.47L75.9,51.32,72.79,52.7l1.36-3.53-1.92-2.35-3.16,1.41,1.38-3.6-1.89-2.31-3.22,1.43,1.41-3.66-1.86-2.28-3.27,1.46L63,35.55l-1.82-2.24L57.89,34.8,59.34,31l-1.79-2.2-3.39,1.51,1.48-3.85-1.76-2.16-3.44,1.53,1.5-3.91-1.73-2.12-3.5,1.56,1.53-4-1.7-2.09L43,16.89l1.55-4-1.45-1.78L39.66,12.6l1.5-3.9L39.68,6.89l-3.5,1.57,1.53-4L36.28,2.71,23.8,8.92l-.42.21Zm24-17.65,2.88,2.66-22.9,10.63-2.83-3.36Z"/><path d="M228,141.16l.6.15a4.23,4.23,0,0,0,4.32-1.77l4.76-6.18a6.36,6.36,0,0,0,1.14-2.43,5.16,5.16,0,0,0,5.52-3.71l31.19-109a5.19,5.19,0,0,0-3.38-6.35l-21.59-7L251,5,210.39,118.65a5.15,5.15,0,0,0,2.11,3.83,6.28,6.28,0,0,0-.92,4l.85,7.59a4.44,4.44,0,0,0,2.49,3.68,4.09,4.09,0,0,0,.52.23Z"/><path class="cls-4" d="M250.57,4.87,237.52,0l-1.24,1.89,1.94,3.81-3.65-1.19-1.28,2,1.9,3.72L231.62,9l-1.25,1.92,2,3.86-3.7-1.21-1.47,2.25,1.93,3.8-3.64-1.18L224,20.75l1.91,3.73-3.59-1.16-1.52,2.33,1.87,3.68-3.52-1.15-1.56,2.37,1.84,3.62L215.92,33l-1.58,2.42L216.15,39l-3.41-1.11-1.61,2.46,1.78,3.49-3.35-1.09-1.63,2.5,1.74,3.44-3.29-1.08-1.66,2.55,1.72,3.37-3.24-1-1.69,2.58,1.69,3.31-3.17-1L198.31,60,200,63.22l-3.11-1-1.75,2.67,1.62,3.18-3.05-1-1.77,2.71,1.59,3.13-3-1-1.8,2.76,1.56,3.06-2.94-1-1.83,2.8,1.53,3-2.87-.94-1.86,2.84,1.5,2.94L181,86.51l-1.89,2.89,1.47,2.87-2.76-.89-1.91,2.92,1.43,2.82-2.7-.88-1.94,3,1.41,2.76-2.65-.86-2.29,3.51,41,14.68.23-.64L251,5ZM183.84,106.35l.47-4.36,23,9.66.07,3.92Z"/><path class="cls-1" d="M114.35,227.9c-15-9.45-32.69-48-36.75-57.21a2.16,2.16,0,0,0-2.88-1.1,2.19,2.19,0,0,0-1.17,2.75C86.18,207.14,106,227,111,231.74a2.17,2.17,0,0,0,2.6.26l.62-.38A2.2,2.2,0,0,0,114.35,227.9Z"/><path class="cls-5" d="M114.35,227.9c-15-9.45-32.69-48-36.75-57.21a2.16,2.16,0,0,0-2.88-1.1,2.19,2.19,0,0,0-1.17,2.75C86.18,207.14,106,227,111,231.74a2.17,2.17,0,0,0,2.6.26l.62-.38A2.2,2.2,0,0,0,114.35,227.9Z"/><path class="cls-1" d="M171.18,230.51l.63.38a2.17,2.17,0,0,0,2.6-.26c5.07-4.7,24.85-24.6,37.48-59.4a2.22,2.22,0,0,0-1.17-2.76,2.18,2.18,0,0,0-2.88,1.1c-4.07,9.24-21.7,47.77-36.75,57.22A2.2,2.2,0,0,0,171.18,230.51Z"/><path class="cls-5" d="M171.18,230.51l.63.38a2.17,2.17,0,0,0,2.6-.26c5.07-4.7,24.85-24.6,37.48-59.4a2.22,2.22,0,0,0-1.17-2.76,2.18,2.18,0,0,0-2.88,1.1c-4.07,9.24-21.7,47.77-36.75,57.22A2.2,2.2,0,0,0,171.18,230.51Z"/><path d="M17.37,31.56a3.71,3.71,0,1,0-6.85,2.87l34.17,81.44A3.72,3.72,0,0,0,51.54,113Z"/><path class="cls-6" d="M17.37,31.56a3.71,3.71,0,1,0-6.85,2.87l34.17,81.44A3.72,3.72,0,0,0,51.54,113Z"/><polygon class="cls-4" points="102.57 102.89 99.69 100.23 76.84 110.16 79.67 113.52 102.57 102.89"/><polygon class="cls-7" points="102.57 102.89 99.69 100.23 76.84 110.16 79.67 113.52 102.57 102.89"/><polygon class="cls-4" points="184.31 101.99 183.84 106.35 207.35 115.57 207.28 111.65 184.31 101.99"/><polygon class="cls-7" points="184.31 101.99 183.84 106.35 207.35 115.57 207.28 111.65 184.31 101.99"/><path class="cls-3" d="M151,271.74a3.59,3.59,0,0,0-3.4-2.46H142.8a3.59,3.59,0,0,0-3.45,2.63l-2.6,9.35a3.58,3.58,0,0,0,3.45,4.55h10.51a3.59,3.59,0,0,0,3.4-4.72Z"/><path class="cls-8" d="M151,271.74a3.59,3.59,0,0,0-3.4-2.46H142.8a3.59,3.59,0,0,0-3.45,2.63l-2.6,9.35a3.58,3.58,0,0,0,3.45,4.55h10.51a3.59,3.59,0,0,0,3.4-4.72Z"/><path class="cls-3" d="M145.59,293.16c-4.64,0-8.4.47-8.4,1.06s3.76,1.06,8.4,1.06,8.4-.47,8.4-1.06S150.23,293.16,145.59,293.16Z"/><path class="cls-8" d="M145.59,293.16c-4.64,0-8.4.47-8.4,1.06s3.76,1.06,8.4,1.06,8.4-.47,8.4-1.06S150.23,293.16,145.59,293.16Z"/><path class="cls-3" d="M145.59,302.06c-4.64,0-8.4.48-8.4,1.06s3.76,1.07,8.4,1.07,8.4-.48,8.4-1.07S150.23,302.06,145.59,302.06Z"/><path class="cls-8" d="M145.59,302.06c-4.64,0-8.4.48-8.4,1.06s3.76,1.07,8.4,1.07,8.4-.48,8.4-1.07S150.23,302.06,145.59,302.06Z"/><path class="cls-3" d="M145.59,311c-4.64,0-8.4.48-8.4,1.07s3.76,1.06,8.4,1.06,8.4-.48,8.4-1.06S150.23,311,145.59,311Z"/><path class="cls-8" d="M145.59,311c-4.64,0-8.4.48-8.4,1.07s3.76,1.06,8.4,1.06,8.4-.48,8.4-1.06S150.23,311,145.59,311Z"/><path class="cls-3" d="M145.59,319.87c-4.64,0-8.4.47-8.4,1.06S141,322,145.59,322s8.4-.48,8.4-1.07S150.23,319.87,145.59,319.87Z"/><path class="cls-8" d="M145.59,319.87c-4.64,0-8.4.47-8.4,1.06S141,322,145.59,322s8.4-.48,8.4-1.07S150.23,319.87,145.59,319.87Z"/><ellipse class="cls-3" cx="145.59" cy="329.84" rx="8.4" ry="1.06"/><ellipse class="cls-8" cx="145.59" cy="329.84" rx="8.4" ry="1.06"/></g></g></svg>