<?xml version="1.0" encoding="utf-8"?>
<!-- Generator: Adobe Illustrator 26.0.2, SVG Export Plug-In . SVG Version: 6.00 Build 0)  -->
<svg version="1.1" id="Layer_2" xmlns="http://www.w3.org/2000/svg" xmlns:xlink="http://www.w3.org/1999/xlink" x="0px" y="0px"
	 viewBox="0 0 144 168.3" style="enable-background:new 0 0 144 168.3;" xml:space="preserve">
<g>
	<g>
		<path d="M11.4,168.3H0v-37.8h11l4.6,7.9l4.6-7.9h11.1v37.8H20v-18.9l-4.3,7.3l-4.3-7.3V168.3z"/>
		<path d="M45.4,158.8h9.9v9.5H34.1v-37.8h21.3v9.5h-9.9v4.7h6.9v9.5h-6.9V158.8z"/>
		<path d="M69.9,161.9l-1.5,6.4H56.9l9.2-37.8h16.2l8.7,37.8H79.6l-1.5-6.4H69.9z M71.9,153h4.2l-2.1-9.2L71.9,153z"/>
		<path d="M106.1,168.3H94.7v-22.5H89v-15.3h22.8v15.3h-5.7L106.1,168.3L106.1,168.3z"/>
		<path d="M134.2,151.8v16.5h-11.4v-16.5l-9.8-21.3h11.5l4,8.6l4-8.6H144L134.2,151.8z"/>
	</g>
	<g id="Colour_Logo_1_00000078035946992990886140000007217662550543091893_">
		<path d="M119.9,58.1h-11.3c-0.2,6.7-3.7,11.9-8.1,11.9c-4.4,0-8-5.2-8.1-11.9H49.6c-0.2,6.7-3.7,11.9-8.1,11.9s-8-5.2-8.1-11.9
			h-8.5c-3.2,0-5.7,2.6-5.7,5.7v3.5c0,3.2,2.6,5.7,5.7,5.7h31.5c4.6-2.7,10.4-4.3,16.7-4.3c6.3,0,12.1,1.6,16.7,4.3h30.3
			c3.2,0,5.7-2.6,5.7-5.7v-3.5C125.6,60.7,123.1,58.1,119.9,58.1z"/>
		<path d="M76.2,73.5c-0.1,0-0.2,0-0.3,0c-0.4,0-0.8-0.1-1.1-0.1c-0.1,0-0.2,0-0.4,0c-0.5,0-0.9,0-1.4,0c-0.5,0-1,0-1.4,0
			c-0.1,0-0.2,0-0.4,0c-0.4,0-0.8,0-1.1,0.1c-0.1,0-0.2,0-0.3,0c-11.5,1-20.4,7.4-20.4,15.1c0,8.4,10.6,15.2,23.6,15.2
			S96.6,97,96.6,88.6C96.6,80.9,87.7,74.5,76.2,73.5z M60.1,91.7c-2.4,0-4.4-2-4.4-4.4s2-4.4,4.4-4.4s4.4,2,4.4,4.4
			C64.6,89.7,62.6,91.7,60.1,91.7z M86.2,91.7c-2.4,0-4.4-2-4.4-4.4s2-4.4,4.4-4.4s4.4,2,4.4,4.4C90.7,89.7,88.7,91.7,86.2,91.7z"/>
		<path d="M126.3,41.7c-2-5-5.2-9.5-9.3-13.6c1.1-3.3,2.2-7.1,2.8-11.5c0.9-6.7,0.6-12.4,0-16.6c-2.7,1.9-6.4,5-9.7,9.5
			c-2.6,3.5-4.2,6.9-5.3,9.5c0.1,0.1,0.1,0.3,0.2,0.4c-9.4-5-20.9-8-33.4-8c-12.5,0-24,3-33.4,8c0.1-0.1,0.1-0.3,0.2-0.4
			c-1.1-2.7-2.7-6-5.3-9.5c-3.4-4.6-7-7.6-9.7-9.5c-0.6,4.2-0.9,10,0,16.6C24,21,25,24.8,26.1,28.1c-4.2,4-7.3,8.6-9.3,13.6
			c-2.3,5.7,2.3,11.8,9.1,11.8h7.8c1.1-4.9,4.1-8.3,7.7-8.3s6.6,3.4,7.7,8.3h43.7c1.1-4.9,4.1-8.3,7.7-8.3s6.6,3.4,7.7,8.3h9.1
			C124,53.5,128.6,47.4,126.3,41.7z M32.9,42.9c-0.1,1.6-0.8,2.8-1.5,2.8c-0.8-0.1-1.3-1.4-1.2-3c0.1-1.6,0.8-2.8,1.5-2.8
			C32.4,39.9,33,41.3,32.9,42.9z M44.2,31.1c-0.5,0.3-1.5-0.8-2.1-2.4c-0.6-1.6-0.7-3.1-0.2-3.4c0.5-0.3,1.5,0.8,2.1,2.4
			C44.6,29.3,44.7,30.8,44.2,31.1z M50.2,42.8c-0.8,0.9-1.8,1.2-2.2,0.7s-0.2-1.6,0.5-2.5s1.8-1.2,2.2-0.7
			C51.2,40.8,50.9,42,50.2,42.8z M57.1,19.3c-0.6,1.1-1.6,1.7-2.2,1.2c-0.6-0.4-0.6-1.7,0-2.8c0.6-1.1,1.6-1.7,2.2-1.2
			S57.7,18.2,57.1,19.3z M66.7,38.1c-1.1,1.3-2.5,1.9-3.1,1.3c-0.6-0.6-0.1-2.2,1-3.5c1.1-1.3,2.5-1.9,3.1-1.3
			C68.3,35.2,67.8,36.7,66.7,38.1z M69.2,20.9c-1.2,1.1-2.5,1.5-3,0.9s0.1-2,1.3-3.1c1.2-1.1,2.5-1.5,3-0.9S70.3,19.8,69.2,20.9z
			 M83.2,43.4c-0.4,0.6-1.7,0.3-2.9-0.7c-1.2-1-1.9-2.2-1.5-2.8c0.4-0.6,1.7-0.3,2.9,0.7C82.9,41.5,83.6,42.8,83.2,43.4z M85.1,22.4
			c-0.3,0.5-1.6,0.2-3-0.8s-2.3-2.2-2-2.7c0.3-0.5,1.6-0.2,3,0.8C84.5,20.7,85.4,21.9,85.1,22.4z M88.5,36.1
			c-0.5,0.3-1.3-0.2-1.8-1.2c-0.5-1-0.6-2.1-0.1-2.4c0.5-0.3,1.3,0.2,1.8,1.2C88.9,34.7,88.9,35.7,88.5,36.1z M97.6,26.9
			c-0.8-1-1-2.1-0.6-2.6s1.5,0,2.3,0.9c0.8,1,1,2.1,0.6,2.6C99.3,28.3,98.3,27.9,97.6,26.9z M104,42.8c-0.2,0.6-1.3,0.5-2.4-0.1
			s-1.8-1.6-1.5-2.1c0.2-0.6,1.3-0.5,2.4,0.1C103.5,41.3,104.2,42.2,104,42.8z M111.5,35c-1.2,1.1-2.5,1.6-2.9,1.1
			c-0.4-0.5,0.3-1.8,1.6-2.9c1.2-1.1,2.5-1.6,2.9-1.1S112.8,33.9,111.5,35z"/>
		<path d="M121.3,98.3H96.4c-4.6,6.1-13.4,10.1-23.4,10.1s-18.8-4.1-23.4-10.1H23.4c-3.6,0-6.5,2.9-6.5,6.5v1
			c0,6.2,5,11.2,11.2,11.2h88.5c6.2,0,11.2-5,11.2-11.2v-1C127.8,101.2,124.9,98.3,121.3,98.3z"/>
		<path d="M46.1,88.6c0-4.5,2-8.6,5.4-11.9H25.3c-3.5,0-6.3,2.8-6.3,6.3v5.4c0,3.5,2.8,6.3,6.3,6.3h22
			C46.5,92.7,46.1,90.7,46.1,88.6z"/>
		<path d="M119.4,76.7h-25c3.4,3.3,5.4,7.5,5.4,11.9c0,2.1-0.4,4.1-1.3,6h20.8c3.5,0,6.3-2.8,6.3-6.3v-5.4
			C125.6,79.5,122.8,76.7,119.4,76.7z"/>
	</g>
</g>
</svg>
