<?xml version="1.0" encoding="utf-8"?>
<!-- Generator: Adobe Illustrator 26.0.2, SVG Export Plug-In . SVG Version: 6.00 Build 0)  -->
<svg version="1.1" xmlns="http://www.w3.org/2000/svg" xmlns:xlink="http://www.w3.org/1999/xlink" x="0px" y="0px"
	 viewBox="0 0 214.99 269.74" style="enable-background:new 0 0 214.99 269.74;" xml:space="preserve">
<style type="text/css">
	.st0{fill:none;stroke:#8E8E8E;stroke-width:0.5;stroke-miterlimit:10;stroke-dasharray:2,1;}
	.st1{fill:none;stroke:#8E8E8E;stroke-width:0.5;stroke-miterlimit:10;}
	.st2{opacity:0.5;fill:none;stroke:#000000;stroke-width:0.8;stroke-miterlimit:10;}
	.st3{fill:#262223;}
	.st4{fill:#8E8E8E;}
</style>
<g id="Layer_1">
</g>
<g id="Layer_2">
	<g>
		<g>
			<path d="M46.85,202.97H35.49v-37.75H46.5l4.6,7.87l4.63-7.87h11.08v37.75H55.46v-18.9l-4.35,7.3l-4.26-7.3V202.97z"/>
			<path d="M80.91,193.49h9.95v9.48h-21.3v-37.75h21.3v9.48h-9.95v4.68h6.95v9.48h-6.95V193.49z"/>
			<path d="M105.36,196.54l-1.46,6.43H92.4l9.18-37.75h16.2l8.71,37.75h-11.38l-1.48-6.43H105.36z M107.39,187.68h4.21l-2.08-9.23
				L107.39,187.68z"/>
			<path d="M141.56,202.97H130.2v-22.49h-5.71v-15.26h22.79v15.26h-5.71V202.97z"/>
			<path d="M169.72,186.49v16.48h-11.36v-16.48l-9.77-21.28h11.5l3.96,8.56l3.96-8.56h11.48L169.72,186.49z"/>
		</g>
		<g id="Colour_Logo_1_00000078035946992990886140000007217662550543091893_">
			<path d="M155.41,92.81h-11.27c-0.18,6.73-3.68,11.92-8.14,11.92c-4.45,0-7.96-5.2-8.14-11.92H85.05
				c-0.18,6.73-3.68,11.92-8.14,11.92s-7.96-5.2-8.14-11.92h-8.51c-3.16,0-5.72,2.56-5.72,5.72v3.54c0,3.16,2.56,5.72,5.72,5.72
				h31.46c4.59-2.71,10.39-4.35,16.71-4.35c6.32,0,12.12,1.64,16.71,4.35h30.28c3.16,0,5.72-2.56,5.72-5.72v-3.54
				C161.13,95.37,158.57,92.81,155.41,92.81z"/>
			<path d="M111.65,108.2c-0.09-0.01-0.19-0.02-0.28-0.02c-0.38-0.03-0.75-0.05-1.13-0.07c-0.12-0.01-0.25-0.01-0.37-0.02
				c-0.48-0.02-0.95-0.03-1.44-0.03c-0.48,0-0.96,0.01-1.44,0.03c-0.12,0-0.25,0.01-0.37,0.02c-0.38,0.02-0.76,0.04-1.13,0.07
				c-0.09,0.01-0.19,0.01-0.28,0.02c-11.5,1.02-20.39,7.39-20.39,15.09c0,8.4,10.6,15.23,23.62,15.23
				c13.02,0,23.62-6.83,23.62-15.23C132.05,115.6,123.16,109.22,111.65,108.2z M95.62,126.37c-2.45,0-4.43-1.98-4.43-4.43
				c0-2.45,1.98-4.43,4.43-4.43c2.45,0,4.43,1.98,4.43,4.43C100.05,124.38,98.07,126.37,95.62,126.37z M121.72,126.37
				c-2.45,0-4.43-1.98-4.43-4.43c0-2.45,1.98-4.43,4.43-4.43c2.45,0,4.43,1.98,4.43,4.43C126.15,124.38,124.17,126.37,121.72,126.37
				z"/>
			<path d="M161.83,76.34c-1.97-4.96-5.16-9.54-9.31-13.56c1.14-3.3,2.16-7.14,2.76-11.47c0.93-6.68,0.58-12.41,0-16.63
				c-2.71,1.91-6.37,4.96-9.74,9.53c-2.58,3.51-4.22,6.88-5.27,9.53c0.07,0.13,0.14,0.26,0.21,0.39c-9.39-5-20.93-7.96-33.41-7.96
				c-12.48,0-24.02,2.96-33.41,7.96c0.07-0.13,0.14-0.26,0.21-0.39c-1.05-2.65-2.69-6.02-5.27-9.53c-3.36-4.57-7.03-7.62-9.74-9.53
				c-0.58,4.22-0.93,9.95,0,16.63c0.6,4.34,1.62,8.18,2.76,11.47c-4.15,4.02-7.34,8.6-9.31,13.56c-2.28,5.74,2.35,11.81,9.06,11.81
				h7.84c1.09-4.9,4.08-8.35,7.7-8.35s6.61,3.44,7.7,8.35h43.69c1.09-4.9,4.08-8.35,7.7-8.35c3.62,0,6.61,3.44,7.7,8.35h9.07
				C159.49,88.15,164.12,82.08,161.83,76.34z M68.35,77.53c-0.09,1.6-0.78,2.85-1.53,2.79c-0.75-0.05-1.29-1.39-1.19-2.99
				c0.09-1.6,0.78-2.85,1.53-2.79C67.91,74.6,68.44,75.93,68.35,77.53z M79.66,65.76c-0.54,0.26-1.5-0.82-2.13-2.43
				c-0.63-1.6-0.7-3.12-0.16-3.38c0.54-0.26,1.5,0.82,2.13,2.43C80.13,63.98,80.2,65.5,79.66,65.76z M85.67,77.52
				c-0.76,0.89-1.75,1.2-2.22,0.71c-0.47-0.49-0.23-1.61,0.53-2.5c0.76-0.89,1.75-1.2,2.22-0.71
				C86.67,75.51,86.43,76.63,85.67,77.52z M92.57,53.98c-0.61,1.11-1.61,1.66-2.22,1.25c-0.61-0.42-0.61-1.66,0-2.76
				c0.61-1.11,1.61-1.66,2.22-1.25C93.18,51.63,93.18,52.87,92.57,53.98z M102.21,72.74c-1.12,1.33-2.5,1.92-3.08,1.32
				c-0.58-0.6-0.14-2.17,0.98-3.5s2.5-1.92,3.08-1.32C103.77,69.85,103.33,71.41,102.21,72.74z M104.67,55.6
				c-1.17,1.11-2.5,1.52-2.97,0.91c-0.47-0.61,0.1-2,1.27-3.12c1.17-1.11,2.5-1.52,2.97-0.91C106.41,53.09,105.84,54.48,104.67,55.6
				z M118.69,78.05c-0.37,0.58-1.66,0.28-2.87-0.68c-1.21-0.96-1.89-2.2-1.51-2.79c0.37-0.58,1.66-0.28,2.86,0.68
				C118.38,76.21,119.06,77.46,118.69,78.05z M120.61,57.11c-0.29,0.52-1.65,0.16-3.04-0.8c-1.39-0.96-2.29-2.16-2-2.67
				c0.29-0.52,1.65-0.16,3.04,0.8C120.01,55.4,120.9,56.59,120.61,57.11z M123.97,70.73c-0.47,0.31-1.29-0.24-1.83-1.24
				c-0.54-1-0.6-2.06-0.13-2.37c0.47-0.31,1.29,0.24,1.83,1.24C124.38,69.35,124.44,70.41,123.97,70.73z M133.05,61.61
				c-0.78-0.97-1.02-2.14-0.55-2.6c0.47-0.46,1.48-0.05,2.26,0.92c0.78,0.97,1.02,2.14,0.55,2.6
				C134.84,62.99,133.83,62.58,133.05,61.61z M139.46,77.45c-0.25,0.55-1.34,0.51-2.44-0.1c-1.1-0.61-1.79-1.55-1.54-2.1
				c0.25-0.55,1.34-0.51,2.44,0.1C139.02,75.95,139.71,76.89,139.46,77.45z M147.03,69.69c-1.23,1.12-2.54,1.63-2.91,1.12
				c-0.37-0.5,0.33-1.82,1.56-2.95c1.23-1.12,2.54-1.63,2.91-1.12S148.27,68.57,147.03,69.69z"/>
			<path d="M156.75,132.99h-24.9c-4.61,6.05-13.38,10.14-23.43,10.14c-10.05,0-18.82-4.1-23.43-10.14H58.92
				c-3.6,0-6.51,2.92-6.51,6.51v0.96c0,6.18,5.01,11.19,11.19,11.19h88.48c6.18,0,11.19-5.01,11.19-11.19v-0.96
				C163.26,135.91,160.35,132.99,156.75,132.99z"/>
			<path d="M81.56,123.29c0-4.48,2.04-8.62,5.45-11.94H60.8c-3.46,0-6.26,2.8-6.26,6.26v5.42c0,3.46,2.8,6.26,6.26,6.26h22.03
				C82.01,127.4,81.56,125.38,81.56,123.29z"/>
			<path d="M154.87,111.35h-25.02c3.41,3.33,5.45,7.46,5.45,11.94c0,2.09-0.45,4.11-1.27,6h20.84c3.46,0,6.26-2.8,6.26-6.26v-5.42
				C161.13,114.15,158.33,111.35,154.87,111.35z"/>
		</g>
	</g>
	<line class="st0" x1="0.94" y1="202.97" x2="213.55" y2="202.97"/>
	<line class="st1" x1="0.94" y1="237.06" x2="213.55" y2="237.06"/>
	<line class="st0" x1="0.94" y1="34.68" x2="213.55" y2="34.68"/>
	<line class="st1" x1="0.94" y1="0.58" x2="213.55" y2="0.58"/>
	<line class="st0" x1="35.49" y1="237.08" x2="35.49" y2="0.68"/>
	<line class="st1" x1="1.4" y1="237.08" x2="1.4" y2="0.68"/>
	<line class="st0" x1="179.49" y1="237.08" x2="179.49" y2="0.68"/>
	<line class="st1" x1="213.59" y1="237.08" x2="213.59" y2="0.68"/>
	<line class="st2" x1="92.65" y1="202.96" x2="92.65" y2="260.94"/>
	<line class="st2" x1="126.23" y1="202.96" x2="126.23" y2="260.94"/>
	<g>
		<path class="st3" d="M106.56,250.5l1.68,2.32c0.46,0.6,0.83,1.14,1.22,1.74h0.05c0.39-0.63,0.78-1.18,1.2-1.76l1.63-2.3h2.34
			l-4.02,5.22l4.12,5.58h-2.41l-1.76-2.43c-0.46-0.62-0.85-1.23-1.27-1.87h-0.05c-0.39,0.65-0.78,1.23-1.24,1.87l-1.71,2.43h-2.37
			l4.19-5.51l-4-5.29H106.56z"/>
	</g>
	<g>
		<path class="st4" d="M193.72,214.61l1.68,2.32c0.46,0.6,0.83,1.14,1.22,1.74h0.05c0.39-0.63,0.78-1.18,1.2-1.76l1.63-2.3h2.34
			l-4.02,5.22l4.12,5.58h-2.41l-1.76-2.43c-0.46-0.62-0.85-1.23-1.27-1.87h-0.05c-0.39,0.65-0.78,1.23-1.24,1.87l-1.71,2.43h-2.37
			l4.19-5.51l-4-5.29H193.72z"/>
	</g>
	<g>
		<path class="st4" d="M15.63,214.61l1.68,2.32c0.46,0.6,0.83,1.14,1.22,1.74h0.05c0.39-0.63,0.78-1.18,1.2-1.76l1.63-2.3h2.34
			l-4.02,5.22l4.12,5.58h-2.41l-1.76-2.43c-0.46-0.62-0.85-1.23-1.27-1.87h-0.05c-0.39,0.65-0.78,1.23-1.24,1.87l-1.71,2.43h-2.37
			l4.19-5.51l-4-5.29H15.63z"/>
	</g>
	<g>
		<path class="st4" d="M15.63,12.23l1.68,2.32c0.46,0.6,0.83,1.14,1.22,1.74h0.05c0.39-0.63,0.78-1.18,1.2-1.76l1.63-2.3h2.34
			l-4.02,5.22l4.12,5.58h-2.41l-1.76-2.43c-0.46-0.62-0.85-1.23-1.27-1.87h-0.05c-0.39,0.65-0.78,1.23-1.24,1.87l-1.71,2.43h-2.37
			l4.19-5.51l-4-5.29H15.63z"/>
	</g>
	<g>
		<path class="st4" d="M193.72,12.23l1.68,2.32c0.46,0.6,0.83,1.14,1.22,1.74h0.05c0.39-0.63,0.78-1.18,1.2-1.76l1.63-2.3h2.34
			l-4.02,5.22l4.12,5.58h-2.41l-1.76-2.43c-0.46-0.62-0.85-1.23-1.27-1.87h-0.05c-0.39,0.65-0.78,1.23-1.24,1.87l-1.71,2.43h-2.37
			l4.19-5.51l-4-5.29H193.72z"/>
	</g>
</g>
</svg>
